<svg width="30" height="30" viewBox="0 0 30 30" fill="none" xmlns="http://www.w3.org/2000/svg">
<g clip-path="url(#clip0_2019_377)">
<path d="M28.0518 14.6612C27.1074 13.6969 25.5552 13.68 24.5918 14.6234L24.4783 14.7343V6.45094C24.4783 6.34214 24.4351 6.2378 24.3582 6.16087C24.2812 6.08394 24.1769 6.04072 24.0681 6.04072H21.0951C20.9863 6.04072 20.8819 6.08394 20.805 6.16087C20.7281 6.2378 20.6848 6.34214 20.6848 6.45094V16.3988C20.3903 16.1307 20.0241 15.9404 19.6185 15.8606V10.0369C19.6185 9.92808 19.5753 9.82374 19.4983 9.74681C19.4214 9.66988 19.3171 9.62666 19.2083 9.62666H16.2369C16.1281 9.62666 16.0237 9.66988 15.9468 9.74681C15.8699 9.82374 15.8267 9.92808 15.8267 10.0369V15.8186H15.0567C14.9598 15.7465 14.861 15.677 14.7603 15.6104V7.9142C14.7603 7.8054 14.7171 7.70106 14.6402 7.62413C14.5632 7.5472 14.4589 7.50398 14.3501 7.50398H11.377C11.2683 7.50398 11.1639 7.5472 11.087 7.62413C11.0101 7.70106 10.9668 7.8054 10.9668 7.9142V14.9818C10.6123 15.0943 10.2569 15.2543 9.90054 15.4609V10.4604C9.90054 10.3516 9.85732 10.2473 9.78039 10.1703C9.70346 10.0934 9.59912 10.0502 9.49033 10.0502H6.51892C6.41013 10.0502 6.30579 10.0934 6.22886 10.1703C6.15193 10.2473 6.10871 10.3516 6.10871 10.4604V18.2182L5.42052 17.5299C5.34358 17.453 5.23923 17.4097 5.13043 17.4097C5.02162 17.4097 4.91727 17.453 4.84033 17.5299L1.3721 20.9979C1.33401 21.036 1.3038 21.0813 1.28318 21.131C1.26256 21.1808 1.25195 21.2341 1.25195 21.288C1.25195 21.3419 1.26256 21.3952 1.28318 21.445C1.3038 21.4948 1.33401 21.54 1.3721 21.5781L9.67507 29.8811C9.75203 29.958 9.8564 30.0012 9.96521 30.0012C10.074 30.0012 10.1784 29.9579 10.2553 29.881L13.7217 26.4129C13.7986 26.336 13.8418 26.2317 13.8417 26.1229C13.8417 26.0141 13.7985 25.9098 13.7216 25.8329L12.5911 24.7021L13.3904 23.9038L20.8143 23.8989C21.6731 23.8989 22.4201 23.5941 23.0345 22.9931L28.0142 18.123C28.979 17.1783 28.9958 15.6253 28.0518 14.6612ZM23.6578 6.86121V15.537L21.5053 17.6426V6.86121H23.6578ZM16.647 10.4471H18.7979V15.8186H16.647V10.4471ZM11.7871 8.32447H13.9397V15.1552C13.2293 14.8402 12.5109 14.7243 11.7871 14.8058V8.32447ZM9.07988 10.8707V16.0187C9.06189 16.0327 9.0439 16.046 9.02591 16.0602C9.01857 16.066 9.01144 16.0721 9.00453 16.0784L6.92902 17.9701V10.8707H9.07988ZM9.96511 29.0108L2.24234 21.288L5.13013 18.4002L6.04906 19.3193C6.05035 19.3208 6.0514 19.3223 6.05275 19.3238C6.06312 19.3352 6.07408 19.3457 6.08539 19.3556L12.8514 26.123L9.96511 29.0108ZM27.4403 17.5366L22.4608 22.4065C21.9986 22.8587 21.4601 23.0785 20.8141 23.0785L13.2203 23.0835C13.1117 23.0835 13.0076 23.1267 12.9307 23.2034L12.011 24.1219L6.95064 19.0605L9.5467 16.6944C11.3174 15.295 12.9919 15.2487 14.666 16.5524C14.738 16.6085 14.8267 16.639 14.918 16.639H19.1882C19.963 16.639 20.5934 17.2693 20.5934 18.0441C20.5934 18.0718 20.5923 18.0993 20.5907 18.1267C20.5902 18.1362 20.5893 18.1457 20.5886 18.1552C20.5863 18.1838 20.5832 18.2123 20.5793 18.2407C20.5767 18.2589 20.5737 18.277 20.5705 18.2951C20.5689 18.3036 20.5676 18.3122 20.5659 18.3207C20.5605 18.3476 20.5544 18.3744 20.5474 18.401C20.547 18.4024 20.5466 18.4038 20.5461 18.4052C20.5388 18.4328 20.5306 18.4601 20.5215 18.4871L20.521 18.4888C20.4918 18.5747 20.4545 18.6576 20.4096 18.7363C20.4062 18.7422 20.4035 18.7482 20.4004 18.7542C20.1561 19.1706 19.7043 19.451 19.1881 19.451H13.2206C13.1118 19.451 13.0074 19.4942 12.9305 19.5712C12.8536 19.6481 12.8104 19.7524 12.8104 19.8612C12.8104 19.97 12.8536 20.0744 12.9305 20.1513C13.0074 20.2282 13.1118 20.2714 13.2206 20.2714H19.1883C19.9964 20.2714 20.7052 19.8381 21.0951 19.1915L24.3431 16.0144C24.3513 16.0069 24.3592 15.9993 24.3668 15.9912L25.1656 15.2098C25.806 14.5828 26.8377 14.5942 27.4655 15.2353C28.093 15.8761 28.0817 16.9086 27.4403 17.5366ZM6.88226 8.2483C6.80643 8.17027 6.7647 8.06532 6.76625 7.95652C6.7678 7.84773 6.8125 7.744 6.89052 7.66816L11.1973 3.48264C11.2517 3.42972 11.3198 3.39296 11.3939 3.37642C11.4679 3.35989 11.5452 3.36425 11.6169 3.389L17.2866 5.3434L22.7268 0.82043H21.2727C21.1639 0.82043 21.0596 0.777211 20.9826 0.700281C20.9057 0.62335 20.8625 0.519011 20.8625 0.410215C20.8625 0.301419 20.9057 0.197079 20.9826 0.120149C21.0596 0.0432189 21.1639 1.62118e-09 21.2727 0H23.7724C23.8812 0 23.9856 0.0432189 24.0625 0.120149C24.1394 0.197079 24.1827 0.301419 24.1827 0.410215V2.91152C24.1827 3.02032 24.1394 3.12466 24.0625 3.20159C23.9856 3.27852 23.8812 3.32174 23.7724 3.32174C23.6636 3.32174 23.5593 3.27852 23.4824 3.20159C23.4054 3.12466 23.3622 3.02032 23.3622 2.91152V1.3592L17.6335 6.12193C17.5793 6.16702 17.5144 6.19737 17.445 6.21005C17.3757 6.22273 17.3042 6.2173 17.2375 6.1943L11.5882 4.24688L7.4624 8.2565C7.3859 8.33101 7.2833 8.37265 7.17652 8.37252C7.12164 8.37266 7.0673 8.36173 7.01674 8.34038C6.96618 8.31904 6.92044 8.28772 6.88226 8.2483Z" fill="url(#paint0_linear_2019_377)"/>
</g>
<defs>
<linearGradient id="paint0_linear_2019_377" x1="1.25195" y1="15.0006" x2="28.7489" y2="15.0006" gradientUnits="userSpaceOnUse">
<stop stop-color="#123499"/>
<stop offset="1" stop-color="#2A57DE"/>
</linearGradient>
<clipPath id="clip0_2019_377">
<rect width="30" height="30" fill="white"/>
</clipPath>
</defs>
</svg>
