<svg width="30" height="30" viewBox="0 0 30 30" fill="none" xmlns="http://www.w3.org/2000/svg">
<g clip-path="url(#clip0_2019_395)">
<path d="M13 15.5H11C10.8674 15.5 10.7402 15.5527 10.6464 15.6464C10.5527 15.7402 10.5 15.8674 10.5 16C10.5 16.1326 10.5527 16.2598 10.6464 16.3536C10.7402 16.4473 10.8674 16.5 11 16.5H13C13.1326 16.5 13.2598 16.4473 13.3536 16.3536C13.4473 16.2598 13.5 16.1326 13.5 16C13.5 15.8674 13.4473 15.7402 13.3536 15.6464C13.2598 15.5527 13.1326 15.5 13 15.5ZM12.5 17H11.5C11.3674 17 11.2402 17.0527 11.1464 17.1464C11.0527 17.2402 11 17.3674 11 17.5C11 17.6326 11.0527 17.7598 11.1464 17.8536C11.2402 17.9473 11.3674 18 11.5 18H12.5C12.6326 18 12.7598 17.9473 12.8536 17.8536C12.9473 17.7598 13 17.6326 13 17.5C13 17.3674 12.9473 17.2402 12.8536 17.1464C12.7598 17.0527 12.6326 17 12.5 17ZM10.5 11.5C10.5 11.3674 10.4473 11.2402 10.3536 11.1464C10.2598 11.0527 10.1326 11 10 11H9C8.86739 11 8.74021 11.0527 8.64645 11.1464C8.55268 11.2402 8.5 11.3674 8.5 11.5C8.5 11.6326 8.55268 11.7598 8.64645 11.8536C8.74021 11.9473 8.86739 12 9 12C9 12.1326 9.05268 12.2598 9.14645 12.3536C9.24021 12.4473 9.36739 12.5 9.5 12.5C9.63261 12.5 9.75979 12.4473 9.85355 12.3536C9.94732 12.2598 10 12.1326 10 12C10.1326 12 10.2598 11.9473 10.3536 11.8536C10.4473 11.7598 10.5 11.6326 10.5 11.5ZM15 11H14C13.8674 11 13.7402 11.0527 13.6464 11.1464C13.5527 11.2402 13.5 11.3674 13.5 11.5C13.5 11.6326 13.5527 11.7598 13.6464 11.8536C13.7402 11.9473 13.8674 12 14 12C14 12.1326 14.0527 12.2598 14.1464 12.3536C14.2402 12.4473 14.3674 12.5 14.5 12.5C14.6326 12.5 14.7598 12.4473 14.8536 12.3536C14.9473 12.2598 15 12.1326 15 12C15.1326 12 15.2598 11.9473 15.3536 11.8536C15.4473 11.7598 15.5 11.6326 15.5 11.5C15.5 11.3674 15.4473 11.2402 15.3536 11.1464C15.2598 11.0527 15.1326 11 15 11ZM11.5 14.5H12.5C12.6326 14.5 12.7598 14.4473 12.8536 14.3536C12.9473 14.2598 13 14.1326 13 14C13 13.8674 12.9473 13.7402 12.8536 13.6464C12.7598 13.5527 12.6326 13.5 12.5 13.5H11.5C11.3674 13.5 11.2402 13.5527 11.1464 13.6464C11.0527 13.7402 11 13.8674 11 14C11 14.1326 11.0527 14.2598 11.1464 14.3536C11.2402 14.4473 11.3674 14.5 11.5 14.5ZM10.5 10.5C10.6326 10.5 10.7598 10.4473 10.8536 10.3536C10.9473 10.2598 11 10.1326 11 10C11 9.86739 10.9473 9.74021 10.8536 9.64645C10.7598 9.55268 10.6326 9.5 10.5 9.5H8.5C8.36739 9.5 8.24021 9.55268 8.14645 9.64645C8.05268 9.74021 8 9.86739 8 10C8 10.1326 8.05268 10.2598 8.14645 10.3536C8.24021 10.4473 8.36739 10.5 8.5 10.5H10.5ZM13.5 10.5H15.5C15.6326 10.5 15.7598 10.4473 15.8536 10.3536C15.9473 10.2598 16 10.1326 16 10C16 9.86739 15.9473 9.74021 15.8536 9.64645C15.7598 9.55268 15.6326 9.5 15.5 9.5H13.5C13.3674 9.5 13.2402 9.55268 13.1464 9.64645C13.0527 9.74021 13 9.86739 13 10C13 10.1326 13.0527 10.2598 13.1464 10.3536C13.2402 10.4473 13.3674 10.5 13.5 10.5Z" fill="url(#paint0_linear_2019_395)"/>
<path d="M28.5 15.9992H21.5C21.1022 15.9992 20.7206 16.1572 20.4393 16.4385C20.158 16.7198 20 17.1013 20 17.4992V22.9397C18.817 22.4286 17.6084 21.979 16.379 21.5927C15.9438 20.4632 15.7877 19.2454 15.924 18.0427L17.146 16.9732C17.4142 16.7385 17.6292 16.4493 17.7765 16.1248C17.9238 15.8003 18 15.448 18 15.0917V14.4492C18.5281 14.3423 19.0074 14.0674 19.3662 13.6654C19.7251 13.2635 19.9441 12.7562 19.9906 12.2194C20.0371 11.6826 19.9085 11.1452 19.6241 10.6876C19.3398 10.23 18.9149 9.87669 18.413 9.68066C18.8598 8.6884 19.0611 7.60315 19 6.51665C19 3.98565 16.542 2.73515 15.338 2.27515C15.409 2.22261 15.4854 2.17786 15.566 2.14165C15.6989 2.08164 15.8113 1.9842 15.8897 1.86126C15.9681 1.73832 16.0089 1.5952 16.0072 1.44942C16.0055 1.30365 15.9613 1.16152 15.8801 1.04044C15.799 0.919355 15.6842 0.824562 15.55 0.767654C10.266 -1.49285 7.6465 1.89915 7.15 2.64215C6.65793 2.88175 6.22097 3.22092 5.8668 3.63818C5.51263 4.05543 5.24896 4.54169 5.0925 5.06615C4.5925 6.78115 5.2855 8.66615 5.737 9.62665C5.21062 9.79449 4.75484 10.1323 4.44114 10.5871C4.12744 11.0419 3.97357 11.5879 4.00365 12.1396C4.03374 12.6913 4.24608 13.2174 4.60738 13.6353C4.96868 14.0533 5.45849 14.3396 6 14.4492V15.0917C6.00002 15.448 6.07624 15.8003 6.22352 16.1248C6.37081 16.4493 6.58578 16.7385 6.854 16.9732L8.076 18.0427C8.21226 19.2454 8.05617 20.4632 7.621 21.5927C6.603 21.9122 2.546 23.2462 1.1465 24.6457C0.195 25.5992 0 27.2742 0 29.4992C0 29.6318 0.0526784 29.7589 0.146447 29.8527C0.240215 29.9465 0.367392 29.9992 0.5 29.9992H28.5C28.8978 29.9992 29.2794 29.8411 29.5607 29.5598C29.842 29.2785 30 28.897 30 28.4992V17.4992C30 17.1013 29.842 16.7198 29.5607 16.4385C29.2794 16.1572 28.8978 15.9992 28.5 15.9992ZM20.092 28.9992H17.4365L18.8365 25.9717C18.9096 25.811 18.9388 25.6338 18.9212 25.4582C18.9037 25.2825 18.8399 25.1147 18.7365 24.9717L17.296 22.9527C18.084 23.2302 19.082 23.6092 19.9995 24.0362V28.4992C20.0013 28.6699 20.0326 28.8391 20.092 28.9992ZM15.942 22.7757L16.392 23.4032L14.5 25.2922L13.133 23.9252C14.1601 23.8205 15.135 23.4214 15.9405 22.7757H15.942ZM12.7325 25.9992H11.2675L10.8435 25.3627L12 24.2062L13.1565 25.3627L12.7325 25.9992ZM9.5 25.2922L7.612 23.4042L8.062 22.7762C8.86727 23.422 9.84205 23.8214 10.869 23.9262L9.5 25.2922ZM7.023 24.2292L8.793 25.9992C8.96635 26.1708 9.19647 26.2732 9.44005 26.287C9.68363 26.3008 9.92386 26.2251 10.1155 26.0742L10.486 26.6297L10.269 28.9992H7.665L6.077 25.5547L7.023 24.2292ZM11.456 26.9992H12.544L12.727 28.9992H11.273L11.456 26.9992ZM13.514 26.6297L13.8845 26.0737C14.0752 26.2268 14.3159 26.3039 14.56 26.2902C14.8042 26.2764 15.0347 26.1727 15.207 25.9992L16.978 24.2282L17.928 25.5542L16.335 28.9992H13.731L13.514 26.6297ZM6.0545 5.34265C6.1808 4.92876 6.39538 4.54719 6.68344 4.22426C6.97149 3.90133 7.32617 3.64473 7.723 3.47215C7.81207 3.42781 7.88614 3.35826 7.936 3.27215C8.38275 2.56491 9.00382 1.9844 9.73958 1.58635C10.4753 1.18831 11.3011 0.986105 12.1375 0.999154C13.015 1.01282 13.8829 1.18387 14.7 1.50415C14.5434 1.62657 14.4037 1.76914 14.2845 1.92815C14.2127 2.02344 14.1647 2.13447 14.1444 2.25204C14.1242 2.3696 14.1322 2.49031 14.168 2.60413C14.2037 2.71795 14.2661 2.8216 14.3499 2.90647C14.4338 2.99135 14.5366 3.05501 14.65 3.09215C15.4375 3.34915 18 4.35165 18 6.51665C18.0198 7.25173 17.9307 7.98569 17.7355 8.69466C17.5297 8.21487 17.1748 7.8141 16.7235 7.55165C16.6356 7.50658 16.536 7.48915 16.438 7.50166C13.762 7.83566 13.0105 7.48066 11.765 6.89216C11.0823 6.55692 10.3785 6.26663 9.658 6.02316C9.29582 5.8729 8.90195 5.81511 8.51187 5.855C8.12179 5.89489 7.74777 6.0312 7.4235 6.25166C6.82393 6.74673 6.40918 7.42982 6.2465 8.19016C5.90552 7.28017 5.83877 6.29018 6.0545 5.34265ZM7 15.0917V13.9992C7 13.8665 6.94732 13.7394 6.85355 13.6456C6.75979 13.5518 6.63261 13.4992 6.5 13.4992C6.14635 13.5021 5.80316 13.3793 5.53172 13.1526C5.26028 12.9259 5.07826 12.6101 5.01817 12.2615C4.95809 11.913 5.02384 11.5545 5.20369 11.25C5.38354 10.9455 5.66578 10.7148 6 10.5992V11.4992C6 11.6318 6.05268 11.7589 6.14645 11.8527C6.24021 11.9465 6.36739 11.9992 6.5 11.9992C6.63261 11.9992 6.75979 11.9465 6.85355 11.8527C6.94732 11.7589 7 11.6318 7 11.4992V9.99916C7 9.38465 7.181 7.66066 8.008 7.06465C8.20536 6.94002 8.43062 6.86645 8.6635 6.85057C8.89638 6.83468 9.12954 6.87698 9.342 6.97366C10.0243 7.20532 10.6909 7.48107 11.3375 7.79916C12.6225 8.40616 13.557 8.84916 16.379 8.51916C16.5903 8.70072 16.7564 8.92898 16.8642 9.18586C16.972 9.44274 17.0185 9.72119 17 9.99916V11.4992C17 11.6318 17.0527 11.7589 17.1464 11.8527C17.2402 11.9465 17.3674 11.9992 17.5 11.9992C17.6326 11.9992 17.7598 11.9465 17.8536 11.8527C17.9473 11.7589 18 11.6318 18 11.4992V10.5992C18.3342 10.7148 18.6165 10.9455 18.7963 11.25C18.9762 11.5545 19.0419 11.913 18.9818 12.2615C18.9217 12.6101 18.7397 12.9259 18.4683 13.1526C18.1968 13.3793 17.8536 13.5021 17.5 13.4992C17.3674 13.4992 17.2402 13.5518 17.1464 13.6456C17.0527 13.7394 17 13.8665 17 13.9992V15.0917C17 15.3055 16.9543 15.5169 16.8659 15.7116C16.7775 15.9063 16.6485 16.0799 16.4875 16.2207L13.7375 18.6282C13.4641 18.8673 13.1132 18.9991 12.75 18.9992H11.25C10.8868 18.9991 10.5359 18.8673 10.2625 18.6282L7.5125 16.2207C7.35153 16.0799 7.22253 15.9063 7.13414 15.7116C7.04575 15.5169 7.00001 15.3055 7 15.0917ZM9.605 19.3807C10.0604 19.7791 10.6449 19.9989 11.25 19.9992H12.75C13.3556 19.9992 13.9407 19.7795 14.3965 19.3807L14.88 18.9572C14.878 19.9653 15.0612 20.9652 15.4205 21.9072C15.054 22.2642 14.054 22.9992 12 22.9992C9.946 22.9992 8.943 22.2617 8.5805 21.9072C8.94004 20.9653 9.12342 19.9653 9.1215 18.9572L9.605 19.3807ZM1.8535 25.3527C2.713 24.4932 5.0195 23.5487 6.7035 22.9527L5.2635 24.9702C5.15951 25.1135 5.09545 25.2819 5.07788 25.4581C5.06031 25.6344 5.08986 25.8121 5.1635 25.9732L6.5635 28.9992H1.0035C1.0275 27.5222 1.178 26.0282 1.8535 25.3527ZM29 28.4992C29 28.6318 28.9473 28.7589 28.8536 28.8527C28.7598 28.9465 28.6326 28.9992 28.5 28.9992H21.5C21.3674 28.9992 21.2402 28.9465 21.1464 28.8527C21.0527 28.7589 21 28.6318 21 28.4992V17.4992C21 17.3665 21.0527 17.2394 21.1464 17.1456C21.2402 17.0518 21.3674 16.9992 21.5 16.9992H28.5C28.6326 16.9992 28.7598 17.0518 28.8536 17.1456C28.9473 17.2394 29 17.3665 29 17.4992V28.4992Z" fill="url(#paint1_linear_2019_395)"/>
<path d="M27 18H23C22.7348 18 22.4804 18.1054 22.2929 18.2929C22.1054 18.4804 22 18.7348 22 19V21C22 21.2652 22.1054 21.5196 22.2929 21.7071C22.4804 21.8946 22.7348 22 23 22H27C27.2652 22 27.5196 21.8946 27.7071 21.7071C27.8946 21.5196 28 21.2652 28 21V19C28 18.7348 27.8946 18.4804 27.7071 18.2929C27.5196 18.1054 27.2652 18 27 18ZM23 21V19H27V21H23Z" fill="url(#paint2_linear_2019_395)"/>
<path d="M23 24C23.2761 24 23.5 23.7761 23.5 23.5C23.5 23.2239 23.2761 23 23 23C22.7239 23 22.5 23.2239 22.5 23.5C22.5 23.7761 22.7239 24 23 24Z" fill="url(#paint3_linear_2019_395)"/>
<path d="M25 24C25.2761 24 25.5 23.7761 25.5 23.5C25.5 23.2239 25.2761 23 25 23C24.7239 23 24.5 23.2239 24.5 23.5C24.5 23.7761 24.7239 24 25 24Z" fill="url(#paint4_linear_2019_395)"/>
<path d="M27 24C27.2761 24 27.5 23.7761 27.5 23.5C27.5 23.2239 27.2761 23 27 23C26.7239 23 26.5 23.2239 26.5 23.5C26.5 23.7761 26.7239 24 27 24Z" fill="url(#paint5_linear_2019_395)"/>
<path d="M23 26C23.2761 26 23.5 25.7761 23.5 25.5C23.5 25.2239 23.2761 25 23 25C22.7239 25 22.5 25.2239 22.5 25.5C22.5 25.7761 22.7239 26 23 26Z" fill="url(#paint6_linear_2019_395)"/>
<path d="M25 26C25.2761 26 25.5 25.7761 25.5 25.5C25.5 25.2239 25.2761 25 25 25C24.7239 25 24.5 25.2239 24.5 25.5C24.5 25.7761 24.7239 26 25 26Z" fill="url(#paint7_linear_2019_395)"/>
<path d="M23 28C23.2761 28 23.5 27.7761 23.5 27.5C23.5 27.2239 23.2761 27 23 27C22.7239 27 22.5 27.2239 22.5 27.5C22.5 27.7761 22.7239 28 23 28Z" fill="url(#paint8_linear_2019_395)"/>
<path d="M25 28C25.2761 28 25.5 27.7761 25.5 27.5C25.5 27.2239 25.2761 27 25 27C24.7239 27 24.5 27.2239 24.5 27.5C24.5 27.7761 24.7239 28 25 28Z" fill="url(#paint9_linear_2019_395)"/>
<path d="M27 25C26.8674 25 26.7402 25.0527 26.6464 25.1464C26.5527 25.2402 26.5 25.3674 26.5 25.5V27.5C26.5 27.6326 26.5527 27.7598 26.6464 27.8536C26.7402 27.9473 26.8674 28 27 28C27.1326 28 27.2598 27.9473 27.3536 27.8536C27.4473 27.7598 27.5 27.6326 27.5 27.5V25.5C27.5 25.3674 27.4473 25.2402 27.3536 25.1464C27.2598 25.0527 27.1326 25 27 25Z" fill="url(#paint10_linear_2019_395)"/>
</g>
<defs>
<linearGradient id="paint0_linear_2019_395" x1="8" y1="13.75" x2="16" y2="13.75" gradientUnits="userSpaceOnUse">
<stop stop-color="#123499"/>
<stop offset="1" stop-color="#2A57DE"/>
</linearGradient>
<linearGradient id="paint1_linear_2019_395" x1="0" y1="15.0006" x2="30" y2="15.0006" gradientUnits="userSpaceOnUse">
<stop stop-color="#123499"/>
<stop offset="1" stop-color="#2A57DE"/>
</linearGradient>
<linearGradient id="paint2_linear_2019_395" x1="22" y1="20" x2="28" y2="20" gradientUnits="userSpaceOnUse">
<stop stop-color="#123499"/>
<stop offset="1" stop-color="#2A57DE"/>
</linearGradient>
<linearGradient id="paint3_linear_2019_395" x1="22.5" y1="23.5" x2="23.5" y2="23.5" gradientUnits="userSpaceOnUse">
<stop stop-color="#123499"/>
<stop offset="1" stop-color="#2A57DE"/>
</linearGradient>
<linearGradient id="paint4_linear_2019_395" x1="24.5" y1="23.5" x2="25.5" y2="23.5" gradientUnits="userSpaceOnUse">
<stop stop-color="#123499"/>
<stop offset="1" stop-color="#2A57DE"/>
</linearGradient>
<linearGradient id="paint5_linear_2019_395" x1="26.5" y1="23.5" x2="27.5" y2="23.5" gradientUnits="userSpaceOnUse">
<stop stop-color="#123499"/>
<stop offset="1" stop-color="#2A57DE"/>
</linearGradient>
<linearGradient id="paint6_linear_2019_395" x1="22.5" y1="25.5" x2="23.5" y2="25.5" gradientUnits="userSpaceOnUse">
<stop stop-color="#123499"/>
<stop offset="1" stop-color="#2A57DE"/>
</linearGradient>
<linearGradient id="paint7_linear_2019_395" x1="24.5" y1="25.5" x2="25.5" y2="25.5" gradientUnits="userSpaceOnUse">
<stop stop-color="#123499"/>
<stop offset="1" stop-color="#2A57DE"/>
</linearGradient>
<linearGradient id="paint8_linear_2019_395" x1="22.5" y1="27.5" x2="23.5" y2="27.5" gradientUnits="userSpaceOnUse">
<stop stop-color="#123499"/>
<stop offset="1" stop-color="#2A57DE"/>
</linearGradient>
<linearGradient id="paint9_linear_2019_395" x1="24.5" y1="27.5" x2="25.5" y2="27.5" gradientUnits="userSpaceOnUse">
<stop stop-color="#123499"/>
<stop offset="1" stop-color="#2A57DE"/>
</linearGradient>
<linearGradient id="paint10_linear_2019_395" x1="26.5" y1="26.5" x2="27.5" y2="26.5" gradientUnits="userSpaceOnUse">
<stop stop-color="#123499"/>
<stop offset="1" stop-color="#2A57DE"/>
</linearGradient>
<clipPath id="clip0_2019_395">
<rect width="30" height="30" fill="white"/>
</clipPath>
</defs>
</svg>
