<svg width="24" height="24" viewBox="0 0 24 24" fill="none" xmlns="http://www.w3.org/2000/svg">
<path d="M12 23.75C10.2103 23.7484 8.49431 23.0367 7.22878 21.7712C5.96326 20.5057 5.25159 18.7897 5.25 17V5C5.25 2.38 7.38 0.25 10 0.25C12.62 0.25 14.75 2.38 14.75 5V16C14.75 17.516 13.516 18.75 12 18.75C10.484 18.75 9.25 17.516 9.25 16V7C9.25 6.80109 9.32902 6.61032 9.46967 6.46967C9.61032 6.32902 9.80109 6.25 10 6.25C10.1989 6.25 10.3897 6.32902 10.5303 6.46967C10.671 6.61032 10.75 6.80109 10.75 7V16C10.7681 16.3193 10.9076 16.6196 11.1401 16.8392C11.3725 17.0589 11.6802 17.1813 12 17.1813C12.3198 17.1813 12.6275 17.0589 12.8599 16.8392C13.0924 16.6196 13.2319 16.3193 13.25 16V5C13.25 3.208 11.792 1.75 10 1.75C8.208 1.75 6.75 3.208 6.75 5V17C6.75 19.894 9.106 22.25 12 22.25C14.894 22.25 17.25 19.894 17.25 17V7C17.25 6.80109 17.329 6.61032 17.4697 6.46967C17.6103 6.32902 17.8011 6.25 18 6.25C18.1989 6.25 18.3897 6.32902 18.5303 6.46967C18.671 6.61032 18.75 6.80109 18.75 7V17C18.7484 18.7897 18.0367 20.5057 16.7712 21.7712C15.5057 23.0367 13.7897 23.7484 12 23.75Z" fill="black"/>
</svg>
