<svg width="30" height="30" viewBox="0 0 30 30" fill="none" xmlns="http://www.w3.org/2000/svg">
<g clip-path="url(#clip0_3413_22618)">
<path d="M19.7934 21.0262L21.1644 18.7987L23.6385 17.9539L23.9126 15.352L25.7741 13.5172L24.8891 11.0543L25.7741 8.59144L23.9127 6.7566L23.6386 4.15481L21.1644 3.30994L19.7934 1.08239L17.2003 1.39588L14.9974 -0.0117188L12.7945 1.396L10.2014 1.0825L8.83042 3.31L6.35627 4.15487L6.08217 6.75666L4.2207 8.5915L5.10573 11.0544L4.2207 13.5173L6.08211 15.3521L6.35622 17.9539L8.83036 18.7988L10.2014 21.0263L12.7945 20.7129L14.9974 22.1205L17.2003 20.7129L19.7934 21.0262ZM7.41844 11.0544C7.41844 6.87011 10.8184 3.4659 14.9974 3.4659C19.1764 3.4659 22.5764 6.87011 22.5764 11.0544C22.5764 15.2387 19.1764 18.6429 14.9974 18.6429C10.8184 18.6429 7.41844 15.2387 7.41844 11.0544Z" fill="#008F37"/>
<path d="M14.9968 5.22266C11.787 5.22266 9.17565 7.83729 9.17565 11.0511C9.17565 14.265 11.787 16.8796 14.9968 16.8796C18.2066 16.8796 20.8179 14.265 20.8179 11.0511C20.8179 7.83729 18.2066 5.22266 14.9968 5.22266ZM12.3792 22.5325L9.29447 22.9054L7.66465 20.2572L7.11059 20.068L4.7207 27.5473L9.02317 27.3104L12.3893 30.0039L14.3702 23.8047L12.3792 22.5325ZM22.3289 20.2572L20.6991 22.9054L17.6144 22.5325L15.6234 23.8047L17.6043 30.0039L20.9704 27.3104L25.2729 27.5473L22.883 20.068L22.3289 20.2572Z" fill="#008F37"/>
</g>
<defs>
<clipPath id="clip0_3413_22618">
<rect width="30" height="30" fill="white"/>
</clipPath>
</defs>
</svg>
