<svg width="105" height="105" viewBox="0 0 105 105" fill="none" xmlns="http://www.w3.org/2000/svg">
<path fill-rule="evenodd" clip-rule="evenodd" d="M52.2044 104.409C41.8794 104.409 31.7862 101.347 23.2012 95.6108C14.6163 89.8745 7.92513 81.7213 3.9739 72.1822C0.0226734 62.6431 -1.01122 52.1465 1.0031 42.0198C3.01742 31.8932 7.98946 22.5913 15.2904 15.2903C22.5913 7.98943 31.8932 3.01744 42.0199 1.00312C52.1465 -1.01119 62.6431 0.022595 72.1823 3.97382C81.7214 7.92505 89.8745 14.6162 95.6108 23.2012C101.347 31.7862 104.409 41.8794 104.409 52.2044C104.409 66.0499 98.9087 79.3283 89.1185 89.1185C79.3283 98.9087 66.0499 104.409 52.2044 104.409ZM22.6463 63.9765C21.5237 62.8415 20.894 61.3095 20.894 59.7132C20.894 58.1168 21.5237 56.5848 22.6463 55.4498L25.7195 52.3941C26.2421 51.8667 26.8653 51.4498 27.5521 51.1679C28.239 50.8861 28.9756 50.7451 29.718 50.7534C30.4604 50.7617 31.1935 50.919 31.8739 51.2161C32.5543 51.5132 33.1681 51.944 33.6789 52.4828L39.1081 58.1157C39.367 58.3888 39.6788 58.6064 40.0245 58.755C40.3702 58.9037 40.7426 58.9804 41.1189 58.9804C41.4952 58.9804 41.8676 58.9037 42.2133 58.755C42.559 58.6064 42.8707 58.3888 43.1295 58.1157L70.7979 29.5947C71.3123 29.052 71.9312 28.619 72.6173 28.3216C73.3034 28.0242 74.0425 27.8687 74.7902 27.8643C75.538 27.8599 76.2789 28.0067 76.9684 28.296C77.6579 28.5853 78.2818 29.0111 78.8025 29.5477L81.7869 32.5651C82.8822 33.6954 83.4946 35.2076 83.4946 36.7815C83.4946 38.3554 82.8822 39.8675 81.7869 40.9979L45.0542 78.3257C44.5416 78.8564 43.9282 79.2793 43.25 79.5698C42.5718 79.8602 41.8423 80.0123 41.1045 80.0172C40.3668 80.022 39.6354 79.8796 38.9535 79.5981C38.2715 79.3166 37.6526 78.9018 37.133 78.3779L22.6463 63.9765Z" fill="url(#paint0_linear_2012_741)"/>
<defs>
<linearGradient id="paint0_linear_2012_741" x1="100.808" y1="104.409" x2="68.2276" y2="-12.6734" gradientUnits="userSpaceOnUse">
<stop stop-color="#123499"/>
<stop offset="1" stop-color="#093CD4"/>
</linearGradient>
</defs>
</svg>
