<svg width="30" height="30" viewBox="0 0 30 30" fill="none" xmlns="http://www.w3.org/2000/svg">
<g clip-path="url(#clip0_2210_3468)">
<path d="M29.7399 21.8274L26.6649 20.2899L24.7079 15.1993C24.6848 15.1391 24.6496 15.0843 24.6045 15.0383C24.5593 14.9923 24.5051 14.9562 24.4454 14.9321L12.3024 10.0782C12.2175 10.0444 12.1246 10.0361 12.035 10.0544C11.9455 10.0728 11.8633 10.1169 11.7985 10.1813L10.179 11.8008C10.1154 11.8657 10.072 11.9476 10.0541 12.0366C10.0362 12.1257 10.0446 12.218 10.0782 12.3024L14.9321 24.4454C14.9562 24.5051 14.9923 24.5593 15.0383 24.6044C15.0843 24.6496 15.1391 24.6848 15.1993 24.7079L20.2899 26.6649L21.8274 29.7399C21.8598 29.8077 21.908 29.8667 21.9679 29.912C22.0279 29.9573 22.0978 29.9875 22.1719 30C22.1969 30.0024 22.222 30.0024 22.2469 30C22.371 29.9995 22.4899 29.9498 22.5774 29.8618L29.8618 22.5774C29.9154 22.5257 29.9559 22.4619 29.9799 22.3914C30.004 22.3209 30.0109 22.2456 30 22.1719C29.9875 22.0978 29.9573 22.0279 29.912 21.9679C29.8667 21.908 29.8077 21.8598 29.7399 21.8274ZM11.0602 12.2414L11.3204 11.9836L17.3649 18.0282C16.9665 18.5926 16.7945 19.286 16.8828 19.9713C16.9711 20.6565 17.3132 21.2836 17.8417 21.7287C18.3701 22.1737 19.0463 22.4043 19.7365 22.3748C20.4268 22.3453 21.0808 22.0579 21.5694 21.5694C22.0579 21.0808 22.3453 20.4268 22.3748 19.7365C22.4043 19.0463 22.1738 18.3701 21.7287 17.8417C21.2836 17.3132 20.6565 16.9711 19.9713 16.8828C19.286 16.7945 18.5926 16.9665 18.0282 17.3649L11.9836 11.3204L12.2415 11.0602L23.9063 15.7266L25.7461 20.5125L20.5125 25.7461L15.7266 23.9063L11.0602 12.2414ZM19.6172 17.7961C20.0385 17.7968 20.4466 17.9434 20.7718 18.2112C21.0971 18.4789 21.3195 18.8511 21.4011 19.2644C21.4827 19.6777 21.4185 20.1065 21.2195 20.4778C21.0204 20.8491 20.6987 21.1399 20.3093 21.3006C19.9199 21.4613 19.4868 21.482 19.0838 21.3593C18.6808 21.2365 18.3328 20.9778 18.0992 20.6272C17.8655 20.2767 17.7606 19.8559 17.8024 19.4367C17.8442 19.0175 18.03 18.6257 18.3282 18.3282C18.6704 17.987 19.134 17.7957 19.6172 17.7961ZM22.3758 28.7391L21.204 26.3954L26.3907 21.2086L28.7344 22.3805L22.3758 28.7391Z" fill="#123499"/>
<path d="M8.96397 25.0776C8.87433 24.9929 8.75566 24.9457 8.63233 24.9457C8.50899 24.9457 8.39032 24.9929 8.30068 25.0776L7.70537 25.6729C6.11673 23.5168 5.24033 20.9187 5.19832 18.2409C5.15631 15.563 5.95077 12.9387 7.471 10.7338C7.92646 10.9845 8.45087 11.0807 8.96565 11.0082C9.48043 10.9357 9.95785 10.6983 10.3264 10.3317C10.6949 9.965 10.9347 9.48878 11.0097 8.97438C11.0848 8.45997 10.9912 7.93508 10.7429 7.47837C12.9478 5.95814 15.572 5.16368 18.2499 5.20569C20.9278 5.2477 23.5258 6.1241 25.6819 7.71274L25.0772 8.30102C24.9901 8.38891 24.9412 8.50771 24.9413 8.63149C24.941 8.69318 24.9528 8.75434 24.9761 8.81145C24.9994 8.86856 25.0338 8.9205 25.0772 8.9643L27.1444 11.0151C27.2323 11.1024 27.3511 11.1514 27.4749 11.1514C27.5987 11.1514 27.7175 11.1024 27.8054 11.0151L29.8608 8.95962C29.9044 8.91608 29.939 8.86438 29.9626 8.80748C29.9862 8.75057 29.9983 8.68958 29.9983 8.62798C29.9983 8.56637 29.9862 8.50538 29.9626 8.44847C29.939 8.39157 29.9044 8.33987 29.8608 8.29634L27.8054 6.24087C27.7175 6.15356 27.5987 6.10456 27.4749 6.10456C27.3511 6.10456 27.2323 6.15356 27.1444 6.24087L26.3499 7.03071C24.3917 5.55719 22.0766 4.63141 19.6423 4.34844C17.2081 4.06547 14.7423 4.43551 12.4983 5.42055L15.2007 2.72524C15.5071 2.87165 15.8555 2.90479 16.184 2.81878C16.5125 2.73278 16.7999 2.53318 16.9953 2.25541C17.1906 1.97764 17.2813 1.63965 17.2512 1.3014C17.221 0.96315 17.072 0.64651 16.8306 0.407653C16.5893 0.168796 16.2711 0.023164 15.9325 -0.00340614C15.594 -0.0299763 15.2569 0.0642328 14.9813 0.262508C14.7056 0.460783 14.509 0.750305 14.4265 1.07971C14.3439 1.40912 14.3807 1.75711 14.5304 2.06196L9.96944 6.62993C9.50635 6.31929 8.94977 6.17907 8.39478 6.23323C7.83979 6.28738 7.32082 6.53255 6.92651 6.92685C6.53221 7.32116 6.28705 7.84013 6.23289 8.39512C6.17873 8.95011 6.31895 9.50668 6.62959 9.96977L2.06162 14.5307C1.75558 14.3816 1.40658 14.3458 1.07664 14.4297C0.746697 14.5136 0.45718 14.7117 0.259536 14.9889C0.061892 15.2661 -0.0310793 15.6044 -0.00285702 15.9437C0.0253653 16.2829 0.172953 16.6012 0.413681 16.8419C0.654409 17.0827 0.972686 17.2302 1.31195 17.2585C1.65122 17.2867 1.98951 17.1937 2.26671 16.9961C2.5439 16.7984 2.74205 16.5089 2.82594 16.179C2.90983 15.849 2.87403 15.5 2.7249 15.194L5.42725 12.4987C4.44121 14.7421 4.07001 17.2074 4.35174 19.6417C4.63347 22.076 5.55799 24.3914 7.03037 26.3502L6.23818 27.1448C6.15088 27.2326 6.10188 27.3514 6.10188 27.4752C6.10188 27.5991 6.15088 27.7179 6.23818 27.8057L8.29365 29.8612C8.38116 29.9492 8.5 29.9989 8.62412 29.9995C8.68598 29.9995 8.74723 29.9873 8.80435 29.9636C8.86147 29.9399 8.91333 29.905 8.95694 29.8612L11.0147 27.8057C11.1021 27.7179 11.1511 27.5991 11.1511 27.4752C11.1511 27.3514 11.1021 27.2326 11.0147 27.1448L8.96397 25.0776ZM27.4796 7.22993L28.8718 8.62212L27.4796 10.0143L26.0874 8.62212L27.4796 7.22993ZM15.4679 1.08462C15.5375 1.01439 15.6265 0.966445 15.7234 0.946853C15.8204 0.927261 15.921 0.936909 16.0124 0.974574C16.1039 1.01224 16.1821 1.07622 16.2371 1.15841C16.2921 1.24059 16.3215 1.33727 16.3215 1.43618C16.3215 1.53509 16.2921 1.63177 16.2371 1.71395C16.1821 1.79614 16.1039 1.86012 16.0124 1.89779C15.921 1.93545 15.8204 1.9451 15.7234 1.92551C15.6265 1.90591 15.5375 1.85797 15.4679 1.78774C15.4217 1.7416 15.385 1.68679 15.36 1.62647C15.335 1.56614 15.3221 1.50148 15.3221 1.43618C15.3221 1.37088 15.335 1.30622 15.36 1.24589C15.385 1.18557 15.4217 1.13076 15.4679 1.08462ZM7.59287 7.59321C7.72899 7.45644 7.89078 7.34791 8.06896 7.27386C8.24714 7.1998 8.4382 7.16168 8.63115 7.16168C8.82411 7.16168 9.01517 7.1998 9.19335 7.27386C9.37153 7.34791 9.53332 7.45644 9.66943 7.59321C9.87519 7.79863 10.0154 8.06048 10.0723 8.3456C10.1292 8.63073 10.1002 8.92632 9.98905 9.19498C9.87789 9.46364 9.68954 9.69329 9.44783 9.85487C9.20611 10.0164 8.9219 10.1027 8.63115 10.1027C8.34041 10.1027 8.0562 10.0164 7.81448 9.85487C7.57277 9.69329 7.38441 9.46364 7.27326 9.19498C7.1621 8.92632 7.13314 8.63073 7.19003 8.3456C7.24693 8.06048 7.38712 7.79863 7.59287 7.59321ZM1.78975 16.1713C1.69405 16.2511 1.57197 16.2923 1.44749 16.2866C1.32301 16.281 1.20513 16.229 1.11702 16.1409C1.02891 16.0528 0.976935 15.935 0.97131 15.8105C0.965686 15.686 1.00682 15.5639 1.08662 15.4682C1.18042 15.376 1.30667 15.3244 1.43818 15.3244C1.5697 15.3244 1.69595 15.376 1.78975 15.4682C1.83595 15.5144 1.87261 15.5692 1.89762 15.6295C1.92263 15.6898 1.9355 15.7545 1.9355 15.8198C1.9355 15.8851 1.92263 15.9497 1.89762 16.0101C1.87261 16.0704 1.83595 16.1252 1.78975 16.1713ZM8.63115 28.8581L7.23897 27.4659L8.63115 26.0737L10.0233 27.4659L8.63115 28.8581Z" fill="#123499"/>
</g>
<defs>
<clipPath id="clip0_2210_3468">
<rect width="30" height="30" fill="white"/>
</clipPath>
</defs>
</svg>
