<svg width="50" height="50" viewBox="0 0 50 50" fill="none" xmlns="http://www.w3.org/2000/svg">
<path d="M20.0848 21.6296C23.1508 21.6296 25.6461 20.7815 25.6461 19.74C25.6443 18.8826 25.444 18.0373 25.061 17.2702C24.6781 16.5031 24.1227 15.835 23.4385 15.3183C22.5866 16.457 21.4008 17.2664 20.0857 17.2664C18.7697 17.2664 17.5838 16.456 16.7319 15.3164C16.0472 15.8332 15.4915 16.5015 15.1084 17.2689C14.7252 18.0364 14.525 18.8822 14.5234 19.74C14.5234 20.7815 17.0178 21.6296 20.0838 21.6296H20.0848ZM46.1461 21.4957C45.9566 21.305 45.7313 21.1538 45.483 21.0508C45.2348 20.9479 44.9686 20.8951 44.6999 20.8957H44.6951C44.4286 20.895 44.1646 20.9475 43.9185 21.05C43.6725 21.1526 43.4493 21.3031 43.2621 21.4928L42.114 22.6419L45.0763 25.4513L46.1461 24.3815C46.53 23.9975 46.7499 23.4711 46.7499 22.9381C46.7499 22.4051 46.53 21.8806 46.1461 21.4957ZM41.1131 23.6428L33.7121 31.0428C32.3215 32.4345 31.2788 34.1347 30.6687 36.0051L30.2008 37.4409L31.6442 36.973C33.5099 36.357 35.2063 35.3146 36.5989 33.9287L37.1338 33.3938L37.1385 33.3881L44.0753 26.4523L41.1131 23.6428Z" fill="#123499"/>
<path d="M20.0856 15.8496C21.779 15.8496 23.3724 13.3826 23.3724 11.4713C23.3724 9.65812 21.8979 8.18359 20.0856 8.18359C18.2734 8.18359 16.7988 9.65812 16.7988 11.4713C16.7988 13.3826 18.3932 15.8496 20.0856 15.8496Z" fill="#123499"/>
<path d="M4.14623 46.9288H36.0236C36.5226 46.9288 36.9292 46.5269 36.9292 46.0326V35.5241C35.5177 36.7698 33.8708 37.72 32.0858 38.3184L30.3934 38.8656C30.2623 38.9109 30.1274 38.9326 29.9925 38.9326C29.9264 38.9326 29.8632 38.9043 29.7972 38.8948L28.7689 39.7901C28.6989 39.8514 28.6175 39.8983 28.5294 39.928C28.4412 39.9576 28.3481 39.9696 28.2553 39.9631C28.1625 39.9566 28.0719 39.9318 27.9887 39.8901C27.9056 39.8485 27.8315 39.7908 27.7708 39.7203C27.6476 39.5788 27.5856 39.3942 27.5985 39.207C27.6114 39.0198 27.6982 38.8454 27.8396 38.7222L28.7491 37.9307C28.6972 37.7077 28.7053 37.475 28.7726 37.2562L29.3226 35.5675C30.0021 33.4846 31.1634 31.5915 32.7123 30.042L36.9292 25.825V3.97597C36.9292 3.47597 36.5226 3.07031 36.0236 3.07031H4.14623C3.65094 3.07031 3.25 3.47597 3.25 3.97597V46.0326C3.25 46.5269 3.65094 46.9288 4.14623 46.9288ZM25.2094 39.1335H14.1094C13.9218 39.1335 13.7418 39.059 13.6091 38.9263C13.4764 38.7936 13.4019 38.6136 13.4019 38.426C13.4019 38.2383 13.4764 38.0584 13.6091 37.9257C13.7418 37.793 13.9218 37.7184 14.1094 37.7184H25.2094C25.3971 37.7184 25.5771 37.793 25.7097 37.9257C25.8424 38.0584 25.917 38.2383 25.917 38.426C25.917 38.6136 25.8424 38.7936 25.7097 38.9263C25.5771 39.059 25.3971 39.1335 25.2094 39.1335ZM25.2094 34.3675H14.1094C13.9218 34.3675 13.7418 34.2929 13.6091 34.1602C13.4764 34.0276 13.4019 33.8476 13.4019 33.6599C13.4019 33.4723 13.4764 33.2923 13.6091 33.1596C13.7418 33.0269 13.9218 32.9524 14.1094 32.9524H25.2094C25.3971 32.9524 25.5771 33.0269 25.7097 33.1596C25.8424 33.2923 25.917 33.4723 25.917 33.6599C25.917 33.8476 25.8424 34.0276 25.7097 34.1602C25.5771 34.2929 25.3971 34.3675 25.2094 34.3675ZM31.7349 28.893C31.7349 29.0806 31.6604 29.2606 31.5277 29.3933C31.395 29.526 31.215 29.6005 31.0274 29.6005H14.1094C13.9218 29.6005 13.7418 29.526 13.6091 29.3933C13.4764 29.2606 13.4019 29.0806 13.4019 28.893C13.4019 28.7053 13.4764 28.5253 13.6091 28.3926C13.7418 28.26 13.9218 28.1854 14.1094 28.1854H31.0283C31.216 28.1854 31.3959 28.26 31.5286 28.3926C31.6613 28.5253 31.7349 28.7053 31.7349 28.893ZM16.0094 14.1005C15.6132 13.2533 15.384 12.3345 15.384 11.4731C15.384 8.87975 17.4934 6.77031 20.0858 6.77031C22.6783 6.77031 24.7877 8.87975 24.7877 11.4731C24.7877 12.3354 24.5585 13.2543 24.1613 14.1024C25.0561 14.7458 25.7855 15.5923 26.2896 16.5723C26.7938 17.5524 27.0582 18.638 27.0613 19.7401C27.0613 22.1788 23.3028 23.0448 20.084 23.0448C18.3613 23.0448 16.7434 22.7986 15.5302 22.3514C13.5283 21.6147 13.1085 20.5241 13.1085 19.7401C13.1115 18.6378 13.3761 17.5519 13.8804 16.5717C14.3847 15.5914 15.1143 14.7448 16.0094 14.1014V14.1005ZM9.14434 28.1854H10.4811C10.6688 28.1854 10.8488 28.26 10.9814 28.3926C11.1141 28.5253 11.1887 28.7053 11.1887 28.893C11.1887 29.0806 11.1141 29.2606 10.9814 29.3933C10.8488 29.526 10.6688 29.6005 10.4811 29.6005H9.14434C8.95669 29.6005 8.77672 29.526 8.64403 29.3933C8.51134 29.2606 8.43679 29.0806 8.43679 28.893C8.43679 28.7053 8.51134 28.5253 8.64403 28.3926C8.77672 28.26 8.95669 28.1854 9.14434 28.1854ZM9.14434 32.9524H10.4811C10.6688 32.9524 10.8488 33.0269 10.9814 33.1596C11.1141 33.2923 11.1887 33.4723 11.1887 33.6599C11.1887 33.8476 11.1141 34.0276 10.9814 34.1602C10.8488 34.2929 10.6688 34.3675 10.4811 34.3675H9.14434C8.95669 34.3675 8.77672 34.2929 8.64403 34.1602C8.51134 34.0276 8.43679 33.8476 8.43679 33.6599C8.43679 33.4723 8.51134 33.2923 8.64403 33.1596C8.77672 33.0269 8.95669 32.9524 9.14434 32.9524ZM9.14434 37.7184H10.4811C10.6688 37.7184 10.8488 37.793 10.9814 37.9257C11.1141 38.0584 11.1887 38.2383 11.1887 38.426C11.1887 38.6136 11.1141 38.7936 10.9814 38.9263C10.8488 39.059 10.6688 39.1335 10.4811 39.1335H9.14434C8.95669 39.1335 8.77672 39.059 8.64403 38.9263C8.51134 38.7936 8.43679 38.6136 8.43679 38.426C8.43679 38.2383 8.51134 38.0584 8.64403 37.9257C8.77672 37.793 8.95669 37.7184 9.14434 37.7184Z" fill="#123499"/>
</svg>
