<svg width="17" height="17" viewBox="0 0 17 17" fill="none" xmlns="http://www.w3.org/2000/svg">
<path d="M2.84218 10.9775C2.74331 10.9781 2.64648 10.9493 2.56395 10.8949C2.48141 10.8404 2.41687 10.7627 2.37849 10.6716C2.3401 10.5805 2.32959 10.48 2.34829 10.3829C2.36699 10.2859 2.41405 10.1965 2.48354 10.1261L10.2497 2.26562C10.2956 2.21759 10.3505 2.17917 10.4113 2.15259C10.4722 2.12602 10.5377 2.11183 10.6041 2.11086C10.6705 2.10988 10.7364 2.12213 10.798 2.1469C10.8596 2.17167 10.9156 2.20846 10.9629 2.25512C11.0101 2.30178 11.0476 2.35738 11.0731 2.41868C11.0986 2.47997 11.1116 2.54574 11.1115 2.61213C11.1113 2.67852 11.0979 2.74421 11.0721 2.80537C11.0462 2.86653 11.0085 2.92193 10.961 2.96834L3.19479 10.8289C3.09788 10.9269 2.97018 10.9767 2.84218 10.9775Z" fill="#FF8F27"/>
<path d="M2.09344 14.5837C2.01883 14.5842 1.94506 14.568 1.87753 14.5363C1.80999 14.5046 1.75041 14.4582 1.70315 14.4005C1.65588 14.3427 1.62214 14.2752 1.60439 14.2027C1.58663 14.1302 1.58532 14.0547 1.60055 13.9817L2.3513 10.3763C2.36451 10.3119 2.39031 10.2507 2.42722 10.1962C2.46413 10.1417 2.51143 10.0951 2.5664 10.0589C2.62138 10.0228 2.68294 9.99785 2.74757 9.98554C2.81221 9.97323 2.87863 9.9738 2.94304 9.98721C3.00745 10.0006 3.06859 10.0266 3.12293 10.0637C3.17728 10.1008 3.22377 10.1482 3.25975 10.2033C3.29573 10.2584 3.32048 10.32 3.33258 10.3847C3.34469 10.4494 3.34391 10.5158 3.3303 10.5802L2.57955 14.1855C2.55627 14.2975 2.49532 14.3981 2.40686 14.4705C2.3184 14.543 2.20778 14.5829 2.09344 14.5837ZM5.68896 13.7895C5.59009 13.7901 5.49326 13.7613 5.41073 13.7069C5.32819 13.6524 5.26365 13.5747 5.22527 13.4836C5.18688 13.3925 5.17638 13.292 5.19507 13.1949C5.21377 13.0979 5.26084 13.0085 5.33032 12.9381L13.0965 5.07787C13.1424 5.02984 13.1973 4.99142 13.2581 4.96485C13.319 4.93827 13.3845 4.92408 13.4509 4.92311C13.5173 4.92213 13.5832 4.93438 13.6448 4.95915C13.7064 4.98392 13.7624 5.02071 13.8097 5.06737C13.8569 5.11403 13.8944 5.16963 13.9199 5.23093C13.9454 5.29223 13.9584 5.35799 13.9582 5.42438C13.9581 5.49077 13.9447 5.55646 13.9188 5.61762C13.893 5.67878 13.8552 5.73418 13.8078 5.78059L6.04182 13.6409C5.9957 13.6877 5.94079 13.7249 5.88023 13.7504C5.81967 13.7759 5.75467 13.7892 5.68896 13.7895Z" fill="#FF8F27"/>
<path d="M2.09216 14.5836C1.96895 14.5838 1.85 14.5386 1.75809 14.4565C1.66619 14.3745 1.6078 14.2614 1.59411 14.1389C1.58043 14.0165 1.61241 13.8933 1.68393 13.793C1.75545 13.6927 1.86148 13.6223 1.98169 13.5953L5.57771 12.8011C5.70703 12.7729 5.84222 12.7972 5.95366 12.8686C6.0651 12.9399 6.1437 13.0526 6.17224 13.1818C6.20078 13.311 6.17692 13.4463 6.1059 13.558C6.03488 13.6696 5.92249 13.7486 5.79336 13.7775L2.19734 14.5717C2.16281 14.5795 2.12755 14.5835 2.09216 14.5836ZM12.0492 7.35165C11.9835 7.35217 11.9184 7.33968 11.8576 7.3149C11.7967 7.29012 11.7414 7.25355 11.6948 7.20728L8.84954 4.39615C8.80151 4.35032 8.76309 4.29538 8.73652 4.23454C8.70994 4.17369 8.69575 4.10817 8.69478 4.04178C8.6938 3.9754 8.70605 3.90948 8.73082 3.84788C8.75559 3.78629 8.79238 3.73024 8.83904 3.68301C8.8857 3.63578 8.94131 3.59832 9.0026 3.5728C9.0639 3.54729 9.12966 3.53425 9.19605 3.53442C9.26244 3.5346 9.32813 3.548 9.38929 3.57383C9.45045 3.59967 9.50585 3.63742 9.55226 3.6849L12.3975 6.49603C12.4679 6.56553 12.516 6.65432 12.5359 6.75118C12.5557 6.84804 12.5464 6.94862 12.5092 7.04019C12.4719 7.13177 12.4083 7.21024 12.3264 7.26567C12.2445 7.32111 12.1481 7.35103 12.0492 7.35165ZM13.4549 5.92914C13.3559 5.92981 13.259 5.90111 13.1764 5.84668C13.0938 5.79224 13.0291 5.71451 12.9907 5.62333C12.9523 5.53215 12.9418 5.43161 12.9605 5.33446C12.9793 5.2373 13.0264 5.14789 13.096 5.07754C13.3725 4.79761 13.5235 4.41994 13.5211 4.01445C13.5186 3.60896 13.3631 3.23314 13.0832 2.95658C12.803 2.67976 12.4253 2.52879 12.0198 2.53124C11.6144 2.53368 11.2385 2.6892 10.962 2.96938C10.9158 3.0161 10.8609 3.05327 10.8004 3.07876C10.7399 3.10426 10.6749 3.11759 10.6092 3.11799C10.5436 3.11838 10.4785 3.10584 10.4176 3.08107C10.3568 3.05631 10.3015 3.0198 10.2547 2.97365C10.208 2.92749 10.1708 2.87258 10.1453 2.81206C10.1198 2.75154 10.1065 2.68659 10.1061 2.62091C10.1057 2.55524 10.1183 2.49013 10.143 2.42931C10.1678 2.36848 10.2043 2.31313 10.2505 2.26641C10.7146 1.79635 11.3408 1.53532 12.0138 1.53125C12.6865 1.52719 13.3161 1.78065 13.7859 2.24507C14.256 2.70924 14.517 3.33543 14.5211 4.00842C14.5251 4.6814 14.2717 5.31069 13.8072 5.78051C13.7612 5.8273 13.7064 5.86452 13.6459 5.89003C13.5854 5.91554 13.5205 5.92883 13.4549 5.92914Z" fill="#FF8F27"/>
</svg>
