<svg width="24" height="24" viewBox="0 0 24 24" fill="none" xmlns="http://www.w3.org/2000/svg">
<path d="M4.1639 16.3506C4.01559 16.3505 3.87062 16.3065 3.74731 16.2241C3.624 16.1417 3.5279 16.0246 3.47114 15.8876C3.41439 15.7505 3.39954 15.5998 3.42847 15.4543C3.45739 15.3088 3.5288 15.1752 3.63365 15.0703L15.3539 3.35006C15.4231 3.27843 15.5058 3.22129 15.5973 3.18198C15.6889 3.14268 15.7873 3.12199 15.8869 3.12112C15.9864 3.12026 16.0852 3.13923 16.1774 3.17694C16.2695 3.21465 16.3533 3.27034 16.4237 3.34076C16.4941 3.41118 16.5498 3.49492 16.5875 3.58709C16.6252 3.67927 16.6442 3.77803 16.6433 3.87761C16.6425 3.9772 16.6218 4.07561 16.5825 4.16711C16.5432 4.25862 16.486 4.34137 16.4144 4.41056L4.69415 16.1308C4.5479 16.2771 4.3559 16.3506 4.1639 16.3506Z" fill="black"/>
<path d="M3.00646 21.7511C2.89455 21.7512 2.78403 21.7263 2.68302 21.6781C2.58201 21.6299 2.49305 21.5597 2.42268 21.4727C2.35231 21.3857 2.30231 21.284 2.27634 21.1752C2.25036 21.0663 2.24908 20.953 2.27258 20.8436L3.43133 15.4425C3.45173 15.3459 3.49098 15.2544 3.54684 15.173C3.6027 15.0916 3.67407 15.0221 3.75686 14.9684C3.83964 14.9147 3.93221 14.8778 4.02927 14.8599C4.12633 14.842 4.22596 14.8435 4.32245 14.8642C4.41895 14.8849 4.51041 14.9244 4.59159 14.9805C4.67277 15.0367 4.74208 15.1082 4.79555 15.1912C4.84901 15.2742 4.88558 15.3668 4.90315 15.464C4.92073 15.5611 4.91896 15.6607 4.89796 15.7571L3.73921 21.1582C3.70328 21.326 3.61094 21.4763 3.4776 21.5842C3.34427 21.6921 3.17798 21.751 3.00646 21.7511ZM8.40683 20.5924C8.25852 20.5923 8.11355 20.5483 7.99024 20.4659C7.86693 20.3835 7.77083 20.2664 7.71407 20.1294C7.65732 19.9923 7.64247 19.8416 7.6714 19.6961C7.70032 19.5506 7.77173 19.417 7.87658 19.3121L19.5968 7.59225C19.666 7.52061 19.7488 7.46348 19.8403 7.42417C19.9318 7.38486 20.0302 7.36417 20.1298 7.36331C20.2294 7.36244 20.3281 7.38142 20.4203 7.41913C20.5125 7.45684 20.5962 7.51253 20.6666 7.58295C20.737 7.65337 20.7927 7.73711 20.8304 7.82928C20.8682 7.92145 20.8871 8.02021 20.8863 8.1198C20.8854 8.21938 20.8647 8.3178 20.8254 8.4093C20.7861 8.5008 20.729 8.58356 20.6573 8.65275L8.93746 20.3726C8.86786 20.4424 8.78515 20.4978 8.69408 20.5355C8.60302 20.5732 8.5054 20.5925 8.40683 20.5924Z" fill="black"/>
<path d="M3.005 21.7501C2.82019 21.7493 2.64217 21.6804 2.50506 21.5564C2.36795 21.4325 2.28139 21.2624 2.26197 21.0786C2.24255 20.8948 2.29164 20.7103 2.39982 20.5605C2.50801 20.4106 2.66769 20.306 2.84825 20.2666L8.24938 19.1078C8.44359 19.0668 8.64616 19.1045 8.81267 19.2125C8.97918 19.3206 9.09606 19.4903 9.1377 19.6843C9.17934 19.8784 9.14233 20.0811 9.03479 20.248C8.92726 20.4148 8.75796 20.5322 8.564 20.5745L3.16288 21.7332C3.11102 21.7445 3.05808 21.7502 3.005 21.7501ZM18.0058 10.9925C17.9072 10.9927 17.8097 10.9733 17.7187 10.9356C17.6276 10.8979 17.545 10.8425 17.4755 10.7727L13.2331 6.53034C13.1615 6.46116 13.1044 6.3784 13.0651 6.2869C13.0257 6.19539 13.0051 6.09698 13.0042 5.9974C13.0033 5.89781 13.0223 5.79905 13.06 5.70688C13.0977 5.61471 13.1534 5.53097 13.2238 5.46055C13.2942 5.39013 13.378 5.33444 13.4702 5.29673C13.5623 5.25902 13.6611 5.24004 13.7607 5.24091C13.8603 5.24177 13.9587 5.26246 14.0502 5.30177C14.1417 5.34107 14.2244 5.39821 14.2936 5.46984L18.536 9.71222C18.6409 9.81711 18.7123 9.95073 18.7412 10.0962C18.7701 10.2417 18.7553 10.3924 18.6985 10.5295C18.6418 10.6665 18.5457 10.7836 18.4223 10.866C18.299 10.9484 18.1541 10.9924 18.0058 10.9925ZM20.1271 8.87147C19.9787 8.87159 19.8336 8.82766 19.7101 8.74526C19.5867 8.66286 19.4905 8.54568 19.4337 8.40856C19.3768 8.27144 19.362 8.12055 19.391 7.97499C19.42 7.82943 19.4915 7.69574 19.5965 7.59084C20.0139 7.17347 20.2438 6.60834 20.2438 6.00009C20.2438 5.39184 20.0139 4.82672 19.5965 4.40934C19.1788 3.99159 18.6136 3.76172 18.0054 3.76172C17.3971 3.76172 16.832 3.99159 16.4146 4.40934C16.345 4.479 16.2623 4.53426 16.1713 4.57196C16.0802 4.60965 15.9827 4.62906 15.8842 4.62906C15.7857 4.62906 15.6881 4.60965 15.5971 4.57196C15.5061 4.53426 15.4234 4.479 15.3538 4.40934C15.2841 4.33969 15.2288 4.25699 15.1911 4.16598C15.1534 4.07496 15.134 3.97742 15.134 3.87891C15.134 3.7804 15.1534 3.68285 15.1911 3.59184C15.2288 3.50082 15.2841 3.41813 15.3538 3.34847C16.0543 2.64759 16.9959 2.26172 18.0054 2.26172C19.0145 2.26172 19.9565 2.64759 20.657 3.34847C21.3579 4.04897 21.7438 4.99059 21.7438 6.00009C21.7438 7.00959 21.3579 7.95122 20.657 8.65172C20.5875 8.72149 20.505 8.77683 20.414 8.81454C20.3231 8.85226 20.2256 8.8716 20.1271 8.87147Z" fill="black"/>
</svg>
