<svg width="30" height="30" viewBox="0 0 30 30" fill="none" xmlns="http://www.w3.org/2000/svg">
<path d="M29.4134 7.52066L15.2923 2.53838C15.1031 2.47158 14.8967 2.47158 14.7075 2.53838L0.586382 7.52066C0.415084 7.58113 0.266728 7.69319 0.161723 7.84143C0.0567168 7.98966 0.000219044 8.16679 6.35634e-07 8.34845C-0.000217773 8.5301 0.0558539 8.70737 0.160503 8.85585C0.265152 9.00434 0.413237 9.11676 0.58439 9.17764L14.7055 14.1978C14.8959 14.2655 15.1038 14.2655 15.2942 14.1978L29.4153 9.17764C29.5865 9.11679 29.7346 9.00439 29.8393 8.8559C29.944 8.70742 30.0001 8.53014 29.9999 8.34847C29.9997 8.16679 29.9431 7.98965 29.8381 7.84141C29.7331 7.69317 29.5847 7.58111 29.4134 7.52066ZM27.8889 19.2523V11.5859L26.1311 12.2108V19.2523C25.6016 19.5571 25.2449 20.128 25.2449 20.7828C25.2449 21.4376 25.6016 22.0086 26.1311 22.3134V26.6327C26.1311 27.118 26.5246 27.5116 27.01 27.5116C27.4954 27.5116 27.8889 27.118 27.8889 26.6327V22.3134C28.4184 22.0087 28.7751 21.4376 28.7751 20.7829C28.7751 20.1281 28.4184 19.5571 27.8889 19.2523Z" fill="#147FC7"/>
<path d="M14.9994 16.0058C14.6977 16.0058 14.4005 15.9545 14.1162 15.8534L6.17773 13.0312V16.8989C6.17773 17.8451 7.16486 18.6454 9.1117 19.2772C10.8086 19.828 12.8996 20.1313 14.9994 20.1313C17.0991 20.1313 19.1901 19.828 20.8871 19.2772C22.8339 18.6454 23.821 17.8451 23.821 16.8989V13.0312L15.8826 15.8534C15.5991 15.9543 15.3003 16.0059 14.9994 16.0058Z" fill="#147FC7"/>
</svg>
