<svg width="220" height="220" viewBox="0 0 220 220" fill="none" xmlns="http://www.w3.org/2000/svg">
<g opacity="0.25">
<path d="M129.199 122.18C129.712 122.512 130.222 122.846 130.728 123.181C130.249 123.123 129.736 123.077 129.199 123.053V122.182V122.18Z" fill="url(#paint0_linear_2173_3072)"/>
</g>
<g opacity="0.25">
<path d="M129.162 103.071C129.124 102.081 129.056 101.1 128.957 100.125C130.363 100.561 131.703 100.728 132.756 100.781L129.162 103.071Z" fill="url(#paint1_linear_2173_3072)"/>
</g>
<g opacity="0.25">
<path d="M132.242 122.477C131.247 121.81 130.224 121.139 129.199 120.484V113.945C132.013 113.697 135.148 113.492 138.296 113.422C135.775 115.254 132.871 117.806 132.521 120.039C132.378 120.937 132.284 121.755 132.242 122.477Z" fill="url(#paint2_linear_2173_3072)"/>
</g>
<g opacity="0.25">
<path d="M136.011 109.866C136.679 110.754 137.317 111.456 137.859 111.991C134.851 112.063 131.881 112.261 129.199 112.499V104.999C129.199 104.911 129.199 104.821 129.197 104.733L134.317 101.473C134.314 103.937 134.554 107.921 136.011 109.866Z" fill="url(#paint3_linear_2173_3072)"/>
</g>
<g opacity="0.25">
<path d="M129.184 129.917C129.195 128.751 129.201 127.585 129.201 126.419V124.48C130.193 124.529 131.078 124.652 131.678 124.758C132.061 124.824 132.453 124.753 132.787 124.564C135.465 126.394 137.832 128.15 139.359 129.567C136.617 129.131 132.598 128.83 129.186 129.917H129.184Z" fill="url(#paint4_linear_2173_3072)"/>
</g>
<g opacity="0.25">
<path d="M128.776 98.5616C128.255 94.5752 127.25 90.7406 125.826 87.1172C128.158 89.4272 131.295 92.1354 134.155 93.2662C137.205 94.4718 140.227 94.7468 142.188 94.7688L134.741 99.5142C134.516 99.4152 134.27 99.3624 134.015 99.3712C132.948 99.4042 130.886 99.3382 128.774 98.5616H128.776Z" fill="url(#paint5_linear_2173_3072)"/>
</g>
<g opacity="0.25">
<path d="M143.943 95.5215C143.899 99.1207 144.161 105.615 146.434 108.644C147.802 110.466 149.094 111.771 150.033 112.613C146.951 112.116 143.426 111.94 139.873 111.96C139.794 111.856 139.708 111.755 139.603 111.667C139.018 111.17 138.118 110.305 137.145 109.01C136.217 107.771 135.691 104.801 135.737 101.065C135.74 100.907 135.718 100.751 135.676 100.599L143.924 95.3477C143.937 95.4027 143.946 95.4599 143.943 95.5193V95.5215Z" fill="url(#paint6_linear_2173_3072)"/>
</g>
<g opacity="0.25">
<path d="M140.757 128.943C139.191 127.399 136.58 125.436 133.607 123.399C133.625 123.311 133.636 123.223 133.636 123.135C133.654 122.334 133.75 121.364 133.924 120.255C134.146 118.852 136.228 116.63 139.49 114.309C139.807 114.084 140.034 113.759 140.135 113.391C143.771 113.378 147.353 113.572 150.398 114.117C150.389 114.124 150.385 114.135 150.374 114.139C147.199 116.394 141.785 120.719 141.217 124.323C140.94 126.081 140.786 127.63 140.757 128.923C140.757 128.928 140.755 128.934 140.755 128.943H140.757Z" fill="url(#paint7_linear_2173_3072)"/>
</g>
<g opacity="0.25">
<path d="M205.945 124.154C202.15 117.578 180.597 121.855 157.521 133.814C147.108 139.209 138.148 145.254 131.748 150.895C129.134 145.063 128.923 139.24 129.038 136.221C129.097 134.626 129.137 133.031 129.163 131.436C132.78 130.116 137.442 130.671 139.644 131.056C140.264 131.166 140.9 130.996 141.388 130.594C141.881 130.191 142.169 129.59 142.183 128.955C142.209 127.725 142.359 126.244 142.623 124.546C142.981 122.293 146.105 118.923 151.2 115.301C151.75 114.91 152.083 114.3 152.111 113.629C152.142 112.956 151.863 112.316 151.348 111.878C150.448 111.113 149.064 109.782 147.573 107.795C145.478 105.001 145.333 98.2954 145.366 95.5432C145.375 94.9426 145.144 94.3816 144.717 93.9636C144.29 93.5456 143.731 93.3256 143.133 93.3454C141.426 93.4004 138.064 93.2882 134.678 91.9506C130.666 90.3644 125.815 85.1592 124.063 83.1748C123.52 82.088 122.935 81.0232 122.314 79.9826C122.662 79.6988 123.016 79.4238 123.377 79.1532C124.741 78.1368 126.204 77.215 127.764 76.4032C127.944 76.3108 128.122 76.2206 128.305 76.1326C129.533 75.5254 130.782 75.004 132.045 74.5728C138.564 72.331 145.458 72.3618 151.731 74.355C159.395 76.786 166.134 82.1452 170.125 89.8518L176.463 102.09C177.429 103.956 178.375 105.837 179.27 107.738C180.658 110.688 184.909 117.871 193.713 118.865C203.516 119.97 205.589 123.371 205.943 124.156L205.945 124.154Z" fill="url(#paint8_linear_2173_3072)"/>
</g>
<path d="M131.511 151.982L131.144 151.164C128.469 145.193 128.26 139.222 128.374 136.195C128.486 133.249 128.539 130.143 128.539 126.418V104.997C128.539 96.2824 126.192 87.7486 121.748 80.317L121.455 79.8286L121.895 79.4678C122.24 79.184 122.608 78.898 122.982 78.6186C124.383 77.5714 125.89 76.6276 127.459 75.8114C127.644 75.7168 127.826 75.6244 128.011 75.5342C129.258 74.9182 130.543 74.3814 131.828 73.9436C138.36 71.6974 145.31 71.6182 151.927 73.7192C160.098 76.313 166.768 81.9318 170.709 89.5416L177.049 101.778C178.167 103.934 179.062 105.736 179.867 107.45C181.24 110.365 185.345 117.248 193.789 118.201C203.755 119.325 206.074 122.83 206.547 123.877L205.374 124.478C203.715 121.602 197.782 120.944 189.094 122.676C180.03 124.482 168.927 128.642 157.825 134.393C147.866 139.552 138.758 145.587 132.184 151.386L131.511 151.978V151.982ZM123.175 80.1344C127.551 87.654 129.861 96.2362 129.861 104.997V126.418C129.861 130.16 129.808 133.284 129.696 136.245C129.591 139.02 129.767 144.355 131.997 149.802C138.591 144.119 147.507 138.256 157.218 133.225C168.425 127.419 179.654 123.213 188.834 121.384C192.693 120.617 196.026 120.306 198.752 120.449C197.355 120.071 195.67 119.745 193.639 119.517C184.536 118.489 180.14 111.13 178.673 108.015C177.874 106.317 176.985 104.528 175.876 102.387L169.536 90.151C165.759 82.8536 159.363 77.4658 151.529 74.9776C145.184 72.9624 138.518 73.0372 132.257 75.1932C131.023 75.6134 129.793 76.126 128.596 76.7178C128.418 76.8058 128.242 76.8938 128.066 76.984C126.563 77.765 125.118 78.6714 123.772 79.6768C123.569 79.8286 123.369 79.9804 123.173 80.1344H123.175Z" fill="url(#paint9_linear_2173_3072)"/>
<g opacity="0.5">
<path d="M170.297 158.469C162.617 162.446 155.102 165.575 148.356 167.737C147.509 166.91 146.535 166.041 145.422 165.141C152.253 163.062 160.333 159.743 168.709 155.404C189.353 144.708 203.942 131.893 201.288 126.773C201.269 126.734 201.244 126.692 201.222 126.655V126.65C198.659 122.29 183.649 125.352 166.018 133.488C168.242 138.035 166.438 143.548 161.922 145.889C157.46 148.201 151.995 146.565 149.518 142.246C142.947 146.226 137.385 150.274 133.346 153.939C132.73 152.931 132.2 151.913 131.744 150.894C138.144 145.251 147.105 139.206 157.519 133.811C180.595 121.854 202.149 117.577 205.941 124.153V124.162C205.974 124.213 206.001 124.265 206.032 124.318C209.558 131.127 193.558 146.417 170.295 158.471L170.297 158.469Z" fill="url(#paint10_linear_2173_3072)"/>
</g>
<path d="M148.182 168.489L147.898 168.212C147.016 167.351 146.043 166.493 145.009 165.657L144.041 164.874L145.234 164.511C152.311 162.357 160.326 159.007 168.411 154.818C178.35 149.668 187.192 143.873 193.306 138.501C199.039 133.463 201.807 129.192 200.709 127.076L200.698 127.054C200.689 127.036 200.678 127.019 200.669 127.001L200.647 126.964C198.672 123.681 186.211 124.988 166.895 133.812C167.795 136.012 167.883 138.439 167.132 140.72C166.31 143.22 164.569 145.263 162.233 146.473C157.661 148.841 152.117 147.371 149.31 143.147C143.115 146.935 137.762 150.827 133.798 154.424L133.206 154.961L132.79 154.279C132.179 153.278 131.627 152.229 131.149 151.159L130.951 150.717L131.316 150.396C137.971 144.529 147.172 138.428 157.224 133.223C168.43 127.417 179.659 123.211 188.84 121.382C198.254 119.508 204.532 120.373 206.521 123.82L206.561 123.893C206.57 123.91 206.581 123.928 206.592 123.948L206.618 123.996C208.479 127.586 205.654 133.229 198.674 139.902C191.88 146.394 181.912 153.197 170.606 159.053C163.157 162.91 155.536 166.13 148.562 168.363L148.184 168.484L148.182 168.489ZM146.78 165.413C147.392 165.935 147.977 166.463 148.531 166.991C155.332 164.784 162.746 161.64 169.995 157.885C181.193 152.083 191.051 145.358 197.756 138.952C204.183 132.811 206.985 127.589 205.448 124.623L205.426 124.583C205.41 124.553 205.393 124.524 205.377 124.495L205.338 124.425C203.63 121.6 197.719 120.964 189.093 122.683C180.029 124.489 168.925 128.649 157.824 134.4C148.05 139.462 139.096 145.369 132.551 151.069C132.843 151.694 133.164 152.312 133.508 152.913C137.589 149.305 142.987 145.435 149.178 141.684L149.757 141.334L150.093 141.922C152.412 145.967 157.477 147.455 161.621 145.307C165.777 143.154 167.484 137.984 165.43 133.782L165.133 133.174L165.746 132.891C174.381 128.906 182.693 126.009 189.148 124.737C193.939 123.794 200.022 123.301 201.793 126.317L201.809 126.343C201.84 126.396 201.864 126.438 201.884 126.482C203.71 130.033 198.7 135.517 194.175 139.495C187.984 144.936 179.048 150.794 169.016 155.993C161.3 159.988 153.642 163.233 146.782 165.413H146.78Z" fill="url(#paint11_linear_2173_3072)"/>
<g opacity="0.75">
<path d="M168.708 155.403C160.333 159.742 152.252 163.064 145.421 165.14C144.147 164.106 142.684 163.024 141.012 161.906C137.583 159.605 135.114 156.831 133.348 153.938C137.387 150.273 142.951 146.225 149.52 142.245C151.997 146.564 157.462 148.2 161.923 145.888C166.44 143.547 168.244 138.034 166.02 133.487C183.651 125.351 198.661 122.289 201.22 126.649V126.654C201.244 126.691 201.268 126.733 201.288 126.772C203.941 131.89 189.353 144.707 168.708 155.403Z" fill="url(#paint12_linear_2173_3072)"/>
</g>
<path d="M166.023 133.49C168.248 138.038 166.444 143.551 161.927 145.892C157.465 148.204 151.998 146.565 149.523 142.246C152.526 140.429 155.738 138.623 159.111 136.874C161.445 135.664 163.757 134.533 166.023 133.488V133.49Z" fill="url(#paint13_linear_2173_3072)"/>
<path d="M157.616 147.607C154.147 147.607 150.794 145.795 148.948 142.576L148.627 142.017L149.179 141.683C152.253 139.822 155.493 138.007 158.806 136.291C161.123 135.089 163.459 133.948 165.747 132.892L166.333 132.621L166.616 133.2C167.769 135.556 167.952 138.229 167.129 140.724C166.306 143.223 164.566 145.267 162.23 146.477C160.751 147.242 159.174 147.607 157.618 147.607H157.616ZM150.433 142.466C152.882 146.094 157.669 147.352 161.62 145.304C165.582 143.251 167.32 138.455 165.69 134.37C163.616 135.338 161.506 136.376 159.411 137.461C156.329 139.058 153.311 140.741 150.433 142.466Z" fill="url(#paint14_linear_2173_3072)"/>
<g opacity="0.5">
<path d="M151.349 111.875C150.449 111.11 149.065 109.779 147.574 107.792C145.479 104.998 145.334 98.2925 145.367 95.5403C145.376 94.9397 145.145 94.3787 144.718 93.9607C144.291 93.5427 143.732 93.3227 143.134 93.3425C141.427 93.3975 138.065 93.2853 134.679 91.9477C130.667 90.3615 125.816 85.1563 124.064 83.1719C124.709 84.4567 125.296 85.7745 125.827 87.1209C128.159 89.4309 131.296 92.1391 134.156 93.2699C137.205 94.4755 140.228 94.7505 142.188 94.7725L134.741 99.5179C134.517 99.4189 134.27 99.3661 134.015 99.3749C132.948 99.4079 130.887 99.3419 128.775 98.5653C128.843 99.0823 128.904 99.6037 128.955 100.127C130.361 100.563 131.701 100.73 132.754 100.783L129.16 103.073C129.182 103.625 129.193 104.18 129.195 104.736L134.314 101.476C134.312 103.94 134.552 107.924 136.008 109.869C136.677 110.758 137.315 111.459 137.856 111.994C134.849 112.067 131.879 112.265 129.197 112.502V113.948C132.011 113.699 135.146 113.494 138.294 113.424C135.773 115.257 132.869 117.809 132.519 120.042C132.376 120.939 132.281 121.758 132.24 122.479C131.245 121.813 130.222 121.142 129.197 120.486V122.184C129.71 122.517 130.22 122.851 130.726 123.185C130.246 123.128 129.734 123.082 129.197 123.058V124.483C130.189 124.532 131.074 124.655 131.674 124.761C132.057 124.827 132.449 124.756 132.783 124.567C135.46 126.397 137.828 128.153 139.354 129.57C136.613 129.134 132.594 128.833 129.182 129.92C129.175 130.428 129.171 130.932 129.16 131.438C132.776 130.118 137.438 130.672 139.64 131.057C140.261 131.167 140.897 130.998 141.385 130.595C141.878 130.192 142.166 129.592 142.179 128.956C142.206 127.726 142.355 126.246 142.619 124.547C142.978 122.294 146.102 118.924 151.197 115.303C151.747 114.911 152.079 114.302 152.108 113.631C152.139 112.958 151.859 112.317 151.344 111.88L151.349 111.875ZM137.148 109.013C136.219 107.774 135.694 104.804 135.74 101.069C135.742 100.91 135.72 100.754 135.678 100.602L143.926 95.3511C143.939 95.4061 143.948 95.4633 143.946 95.5227C143.902 99.1219 144.164 105.616 146.436 108.646C147.805 110.467 149.096 111.772 150.035 112.614C146.953 112.117 143.429 111.941 139.876 111.961C139.797 111.858 139.711 111.756 139.605 111.668C139.02 111.171 138.12 110.307 137.148 109.011V109.013ZM150.376 114.141C147.202 116.396 141.788 120.721 141.22 124.325C140.943 126.083 140.789 127.632 140.76 128.925C140.76 128.93 140.758 128.936 140.758 128.945C139.192 127.401 136.58 125.438 133.608 123.401C133.626 123.313 133.637 123.225 133.637 123.137C133.654 122.336 133.751 121.366 133.925 120.257C134.147 118.854 136.228 116.632 139.491 114.311C139.808 114.086 140.034 113.761 140.135 113.393C143.772 113.38 147.354 113.574 150.398 114.119C150.39 114.126 150.385 114.137 150.374 114.141H150.376Z" fill="url(#paint15_linear_2173_3072)"/>
</g>
<path d="M88.7182 51.4825C88.7182 53.3415 88.3046 55.1015 87.5632 56.6789C85.5128 56.3731 83.4184 56.1971 81.2888 56.1553C82.4614 54.9475 83.183 53.2975 83.183 51.4825C83.183 47.7601 80.1668 44.7461 76.451 44.7461C72.7352 44.7461 69.719 47.7579 69.719 51.4825C69.719 53.6473 70.7442 55.5745 72.3326 56.8043C70.2426 57.1475 68.1988 57.6271 66.2034 58.2299C64.9274 56.2917 64.1816 53.9751 64.1816 51.4825C64.1816 44.7065 69.6728 39.2109 76.4488 39.2109C83.2248 39.2109 88.716 44.7065 88.716 51.4825H88.7182Z" fill="url(#paint16_linear_2173_3072)"/>
<g opacity="0.5">
<path d="M31.9261 109.4C31.7853 109.425 31.6467 109.451 31.5059 109.475V104.994C31.5059 100.631 32.0779 96.4027 33.1515 92.3789C34.1613 93.8397 35.2481 95.3533 36.4119 96.8889C39.2125 100.592 42.6951 104.747 46.6925 108.635C46.6353 108.666 46.5649 108.688 46.4769 108.679C43.6477 108.498 37.9959 108.353 31.9261 109.398V109.4Z" fill="url(#paint17_linear_2173_3072)"/>
</g>
<g opacity="0.5">
<path d="M37.561 96.0529C36.1464 94.1851 34.8418 92.3503 33.6582 90.6101C35.6624 84.0981 38.9954 78.1647 43.336 73.1289C43.6242 73.3687 43.919 73.6085 44.2226 73.8461C47.3246 76.3101 51.4276 79.1371 56.4986 81.7397C53.3262 84.2873 45.91 90.8235 45.2324 96.7327C44.8078 100.431 45.4502 103.766 46.163 106.103C42.8652 102.73 39.959 99.2231 37.561 96.0529Z" fill="url(#paint18_linear_2173_3072)"/>
</g>
<g opacity="0.5">
<path d="M45.1525 72.7692C44.8555 72.5338 44.5651 72.2984 44.2812 72.0652C45.0139 71.26 45.7772 70.479 46.5626 69.7266C46.7958 70.2458 47.0621 70.7364 47.3701 71.1918C49.3457 74.1134 51.7503 76.694 53.7699 78.6322C50.3401 76.6412 47.4624 74.604 45.1502 72.7692H45.1525Z" fill="url(#paint19_linear_2173_3072)"/>
</g>
<g opacity="0.5">
<path d="M48.1379 121.292C41.3355 122.462 35.7629 124.62 31.5059 127.733V110.941C37.8221 109.764 43.7599 109.933 46.3867 110.102C46.8861 110.133 47.3657 109.957 47.7287 109.625C52.4037 114.016 57.7387 117.97 63.4961 120.392C59.9849 120.238 54.2473 120.24 48.1401 121.292H48.1379Z" fill="url(#paint20_linear_2173_3072)"/>
</g>
<g opacity="0.5">
<path d="M48.5472 70.3956C48.1996 69.8808 47.9092 69.311 47.6738 68.6972C52.4214 64.4182 58.0138 61.0566 64.1672 58.8984C63.3598 64.0134 62.7196 72.3844 65.9668 77.187C68.6112 81.0964 71.9266 84.48 74.4302 86.7746C68.1668 85.338 62.6844 83.2348 58.0116 80.9138C57.9126 80.5706 57.7168 80.2604 57.4352 80.025C55.3694 78.2782 51.4666 74.7098 48.5494 70.3956H48.5472Z" fill="url(#paint21_linear_2173_3072)"/>
</g>
<g opacity="0.5">
<path d="M63.5271 106.626C62.8803 112.256 64.3939 117.146 65.3773 119.606C59.1337 117.276 53.3389 113.008 48.3251 108.238C48.3207 108.023 48.2767 107.807 48.1953 107.598C47.3879 105.598 46.1119 101.548 46.6465 96.893C47.2845 91.349 55.0395 84.7314 57.4023 82.835C57.5607 82.7074 57.6971 82.5556 57.8027 82.3906C63.0827 84.969 69.3461 87.268 76.5687 88.676C76.6567 88.8014 76.6699 88.9312 76.6699 89.0082C76.6677 89.1094 76.6391 89.2986 76.4565 89.446C72.8287 92.3588 64.3037 99.863 63.5271 106.628V106.626Z" fill="url(#paint22_linear_2173_3072)"/>
</g>
<g opacity="0.5">
<path d="M154.11 177.954C153.956 174.528 151.076 171.301 146.077 168.439C144.731 167.664 143.233 166.923 141.592 166.206C137.526 164.437 132.585 162.855 126.955 161.511C125.692 161.209 124.394 160.921 123.063 160.644C122.676 160.563 122.289 160.483 121.897 160.404C110.072 158.041 95.7699 156.66 80.3699 156.66C39.6633 156.66 6.65671 166.318 6.62591 178.229C6.62591 178.229 5.2377 171.589 19.6873 161.907C31.3297 154.103 31.8819 140.826 31.6575 135.96C31.5585 133.815 31.5145 131.668 31.5057 129.521C42.0085 121.18 59.3885 121.541 64.7521 121.88C65.4407 121.924 66.0919 121.616 66.4945 121.057C66.5275 121.009 66.5561 120.963 66.5847 120.912H66.5869C66.9037 120.377 66.9609 119.733 66.7277 119.15C65.7949 116.842 64.3209 112.163 64.9391 106.788C65.6761 100.373 74.6213 92.7388 77.3471 90.552C77.8113 90.178 78.0841 89.6214 78.0907 89.023C78.0973 88.4466 77.8553 87.9054 77.4329 87.5204C77.4285 87.516 77.4219 87.5116 77.4153 87.5072C77.4043 87.4984 77.3933 87.4852 77.3823 87.4764C75.0019 85.4678 70.5051 81.3538 67.1413 76.384C64.0371 71.7926 64.8907 63.2016 65.7003 58.3836C65.8653 58.3286 66.0347 58.278 66.1997 58.2274C68.1951 57.6246 70.2411 57.1472 72.3311 56.804C74.9403 56.3728 77.6177 56.1484 80.3501 56.1484C80.6625 56.1484 80.9749 56.1506 81.2851 56.155C83.4147 56.1968 85.5113 56.3728 87.5595 56.6786C98.1613 58.245 107.657 63.2214 114.888 70.4572C117.735 73.304 120.232 76.5006 122.311 79.9766C126.684 87.2916 129.195 95.8518 129.195 104.997V126.419C129.195 129.683 129.155 132.955 129.032 136.22C128.917 139.238 129.129 145.061 131.742 150.894C132.198 151.912 132.728 152.931 133.344 153.938C135.11 156.831 137.579 159.608 141.009 161.909C142.683 163.027 144.144 164.109 145.417 165.143C146.531 166.041 147.505 166.912 148.354 167.739C153.934 173.186 154.162 176.946 154.105 177.956L154.11 177.954Z" fill="url(#paint23_linear_2173_3072)"/>
</g>
<path d="M7.27301 184.529L5.98381 178.365C5.92441 178.077 4.6704 171.175 19.3246 161.361C30.5754 153.822 31.2398 141.11 31.0022 135.995C30.8988 133.755 30.846 131.351 30.846 128.643V104.997C30.846 94.1533 34.2868 83.8551 40.7988 75.2201C47.0974 66.8667 56.0514 60.6077 66.013 57.5981C68.0546 56.9821 70.1446 56.4959 72.2258 56.1527C74.8966 55.7127 77.6312 55.4883 80.3526 55.4883C80.6716 55.4883 80.9862 55.4905 81.3008 55.4971C83.4392 55.5389 85.5798 55.7171 87.661 56.0273C98.2056 57.5849 107.782 62.4139 115.357 69.9907C118.252 72.8859 120.784 76.1331 122.881 79.6399C127.446 87.2761 129.859 96.0453 129.859 104.997V126.418C129.859 130.161 129.806 133.285 129.694 136.246C129.584 139.159 129.782 144.901 132.35 150.625C132.805 151.644 133.331 152.642 133.912 153.597C135.801 156.693 138.314 159.304 141.381 161.361C143.006 162.45 144.507 163.55 145.838 164.632C146.903 165.493 147.906 166.379 148.817 167.268C154.581 172.898 154.829 176.902 154.768 177.995L153.45 177.989C153.311 174.922 150.649 171.82 145.75 169.017C144.45 168.269 142.962 167.53 141.328 166.817C137.302 165.066 132.413 163.497 126.801 162.16C125.532 161.858 124.229 161.568 122.929 161.297C122.544 161.216 122.157 161.139 121.768 161.06C109.549 158.62 95.2334 157.328 80.3702 157.328C60.744 157.328 42.2992 159.561 28.4304 163.618C15.0082 167.545 7.30161 172.874 7.28841 178.237L7.27301 184.534V184.529ZM80.3526 56.8105C77.7016 56.8105 75.0396 57.0283 72.4392 57.4573C70.4152 57.7917 68.3802 58.2647 66.3936 58.8631C46.2416 64.9527 32.166 83.9233 32.166 104.999V128.645C32.166 131.331 32.2166 133.716 32.32 135.936C32.5664 141.275 31.8668 154.545 20.0572 162.461C15.8882 165.253 13.0722 167.781 11.1692 169.952C14.9114 167.112 20.6116 164.529 28.0586 162.351C42.044 158.261 60.6208 156.008 80.368 156.008C95.317 156.008 109.72 157.309 122.025 159.766C122.419 159.845 122.81 159.924 123.198 160.006C124.509 160.279 125.822 160.571 127.105 160.877C132.792 162.234 137.755 163.827 141.851 165.609C143.532 166.342 145.063 167.103 146.403 167.875C147.538 168.524 148.559 169.189 149.466 169.864C148.997 169.336 148.476 168.788 147.893 168.218C147.01 167.36 146.04 166.5 145.004 165.664C143.702 164.606 142.236 163.53 140.644 162.463C137.416 160.298 134.772 157.551 132.783 154.29C132.171 153.289 131.619 152.24 131.142 151.171C128.467 145.202 128.258 139.231 128.372 136.202C128.484 133.256 128.537 130.15 128.537 126.425V105.004C128.537 96.2895 126.19 87.7557 121.746 80.3241C119.704 76.9097 117.24 73.7505 114.422 70.9301C107.05 63.5557 97.7282 58.8543 87.4652 57.3385C85.4368 57.0349 83.3556 56.8633 81.2744 56.8215C80.9686 56.8171 80.6606 56.8127 80.3504 56.8127L80.3526 56.8105Z" fill="url(#paint24_linear_2173_3072)"/>
<path d="M154.108 177.965V177.954C153.578 166.169 120.769 156.66 80.3707 156.66C39.9721 156.66 6.65751 166.318 6.62891 178.229V178.244C6.62891 190.166 39.6465 199.829 80.3707 199.829C121.095 199.829 154.113 190.166 154.113 178.244C154.113 178.152 154.11 178.057 154.108 177.965ZM80.3707 194.465C44.2291 194.465 14.9273 187.203 14.9273 178.244V178.231C14.9537 169.279 44.2467 162.024 80.3707 162.024C116.495 162.024 145.335 169.169 145.805 178.029V178.038C145.808 178.106 145.81 178.176 145.81 178.247C145.81 187.207 116.512 194.467 80.3685 194.467L80.3707 194.465Z" fill="url(#paint25_linear_2173_3072)"/>
<path d="M80.3708 200.488C60.6126 200.488 42.0292 198.233 28.0416 194.141C13.8076 189.974 5.9668 184.329 5.9668 178.246C5.9822 172.15 13.8274 166.509 28.0592 162.347C42.0446 158.257 60.6214 156.004 80.3686 156.004C100.116 156.004 118.422 158.224 132.37 162.256C146.54 166.353 154.493 171.919 154.764 177.927V177.956L154.104 177.967L154.764 177.962C154.766 178.057 154.768 178.151 154.768 178.246C154.768 184.331 146.93 189.976 132.696 194.141C118.71 198.235 100.125 200.488 80.3664 200.488H80.3708ZM80.3708 157.322C60.7446 157.322 42.2998 159.555 28.431 163.612C15.0088 167.539 7.3022 172.867 7.289 178.231C7.289 183.612 14.989 188.945 28.4134 192.874C42.2822 196.933 60.7358 199.168 80.3708 199.168C100.006 199.168 118.462 196.933 132.33 192.874C145.755 188.945 153.455 183.612 153.455 178.244C153.455 178.162 153.453 178.079 153.45 177.997V177.973C153.2 172.656 145.385 167.389 132.007 163.524C118.173 159.524 99.8364 157.322 80.3708 157.322ZM80.3708 195.127C62.839 195.127 46.3478 193.433 33.9376 190.357C27.8656 188.852 23.0872 187.094 19.7366 185.13C16.1066 183.002 14.2674 180.686 14.2674 178.246C14.274 175.793 16.1198 173.479 19.752 171.353C23.1048 169.391 27.8832 167.633 33.9552 166.131C46.3654 163.057 62.85 161.365 80.373 161.365C97.896 161.365 114.139 163.033 126.514 166.065C132.568 167.547 137.357 169.281 140.754 171.219C144.417 173.311 146.34 175.591 146.468 177.995V178.03C146.472 178.088 146.474 178.167 146.474 178.248C146.474 180.69 144.635 183.005 141.005 185.132C137.654 187.097 132.878 188.854 126.806 190.359C114.396 193.435 97.907 195.129 80.373 195.129L80.3708 195.127ZM80.3708 162.683C62.9512 162.683 46.581 164.362 34.272 167.411C22.4096 170.348 15.6006 174.293 15.5874 178.233C15.5874 182.186 22.392 186.135 34.2544 189.074C46.5634 192.126 62.9424 193.807 80.3708 193.807C97.7992 193.807 114.178 192.126 126.487 189.074C138.35 186.135 145.152 182.186 145.152 178.244C145.152 178.182 145.15 178.121 145.148 178.061V178.044C144.921 174.134 138.015 170.236 126.199 167.341C113.923 164.335 97.6474 162.679 80.373 162.679L80.3708 162.683Z" fill="url(#paint26_linear_2173_3072)"/>
<g opacity="0.5">
<path d="M145.812 178.245C145.812 187.205 116.515 194.465 80.3711 194.465C44.2273 194.465 14.9277 187.203 14.9277 178.245V178.231C14.9497 170.743 35.4493 164.444 63.2969 162.583C63.6269 170.314 70.0003 176.482 77.8103 176.482C85.6203 176.482 92.1521 170.162 92.3325 162.297C122.484 163.676 145.388 170.182 145.806 178.031V178.04C145.808 178.108 145.81 178.179 145.81 178.249L145.812 178.245Z" fill="url(#paint27_linear_2173_3072)"/>
</g>
<path d="M33.0356 151.802C32.8508 151.802 32.666 151.722 32.534 151.571C32.2964 151.293 32.3294 150.878 32.6044 150.64C32.7188 150.543 35.4644 148.229 42.3922 145.914C48.7194 143.8 59.9262 141.281 77.381 141.281C77.7462 141.281 78.041 141.576 78.041 141.941C78.041 142.306 77.7462 142.601 77.381 142.601C44.3898 142.601 33.5702 151.553 33.4646 151.643C33.3392 151.751 33.1874 151.802 33.0356 151.802Z" fill="url(#paint28_linear_2173_3072)"/>
<path d="M92.8061 142.601H81.3221C80.9569 142.601 80.6621 142.306 80.6621 141.941C80.6621 141.576 80.9569 141.281 81.3221 141.281H92.8061C93.1713 141.281 93.4661 141.576 93.4661 141.941C93.4661 142.306 93.1713 142.601 92.8061 142.601Z" fill="url(#paint29_linear_2173_3072)"/>
<path d="M122.966 109.742C122.622 109.742 122.334 109.478 122.308 109.13C121.322 95.7564 114.854 85.9356 109.603 80.0528C103.892 73.6552 98.3388 70.3926 98.2838 70.3596C97.9692 70.177 97.8614 69.7722 98.044 69.4576C98.2266 69.143 98.6314 69.0352 98.946 69.2178C99.1792 69.352 104.708 72.597 110.555 79.1376C115.956 85.1788 122.609 95.268 123.623 109.033C123.65 109.396 123.377 109.713 123.014 109.74C122.996 109.74 122.981 109.74 122.966 109.74V109.742Z" fill="url(#paint30_linear_2173_3072)"/>
<path d="M127.668 148.203C127.53 148.203 127.391 148.159 127.272 148.071C123.04 144.897 111.294 143.508 111.175 143.495C110.812 143.453 110.552 143.126 110.594 142.765C110.636 142.402 110.964 142.142 111.325 142.184C111.822 142.241 123.546 143.627 128.062 147.015C128.355 147.233 128.412 147.649 128.194 147.939C128.064 148.113 127.866 148.203 127.666 148.203H127.668Z" fill="url(#paint31_linear_2173_3072)"/>
<path d="M37.5021 187.714C37.1523 187.714 36.8025 187.628 36.4857 187.457C34.5563 186.412 30.9769 184.595 28.6691 184.146C25.3537 183.501 17.9265 184.788 17.8517 184.801C17.4931 184.863 17.1499 184.625 17.0883 184.265C17.0245 183.906 17.2665 183.563 17.6251 183.501C17.9397 183.446 25.3669 182.159 28.9221 182.85C31.4037 183.332 35.1195 185.217 37.1149 186.297C37.3261 186.412 37.5659 186.427 37.7903 186.344C38.0125 186.26 38.1819 186.088 38.2633 185.866C39.2599 183.129 41.5413 178.375 45.6135 177.264C48.9883 176.345 52.3037 176.787 54.4927 177.319C54.7435 177.381 55.0031 177.321 55.2011 177.161C55.3991 176.998 55.5091 176.758 55.5003 176.501C55.3485 172.18 55.9007 162.056 64.3069 161.369C64.6699 161.341 64.9889 161.609 65.0175 161.974C65.0461 162.337 64.7777 162.656 64.4125 162.685C57.1393 163.279 56.6773 172.512 56.8181 176.455C56.8423 177.128 56.5563 177.759 56.0349 178.184C55.5113 178.608 54.8359 178.76 54.1803 178.602C52.1431 178.105 49.0653 177.693 45.9611 178.538C42.4609 179.493 40.4127 183.822 39.5041 186.319C39.2929 186.9 38.8397 187.36 38.2611 187.58C38.0169 187.672 37.7595 187.719 37.5043 187.719L37.5021 187.714Z" fill="url(#paint32_linear_2173_3072)"/>
<path d="M33.6608 175.261C33.4188 175.261 33.179 175.204 32.9612 175.09C32.299 174.742 30.9988 174.17 28.5524 173.413C24.115 172.04 16.987 174.047 16.9144 174.069C16.5646 174.168 16.1994 173.965 16.0982 173.616C15.997 173.266 16.2016 172.901 16.5514 172.799C16.8594 172.711 24.1282 170.663 28.9418 172.153C30.9834 172.784 32.541 173.378 33.575 173.921C33.6344 173.952 33.6894 173.946 33.7246 173.932C33.7532 173.921 33.806 173.895 33.8346 173.825C34.5892 171.999 36.4438 168.868 40.4016 168.41C43.618 168.039 45.7894 168.448 47.0478 168.855C47.116 168.877 47.1688 168.855 47.2018 168.837C47.2282 168.82 47.2766 168.78 47.2876 168.703C47.5582 166.758 48.1192 164.184 49.2654 162.965C49.514 162.699 49.932 162.688 50.1982 162.937C50.4644 163.185 50.4754 163.603 50.2268 163.87C49.5294 164.611 48.9332 166.439 48.5944 168.883C48.5328 169.326 48.2798 169.717 47.9014 169.955C47.523 170.192 47.0632 170.247 46.6386 170.111C45.5056 169.744 43.5322 169.378 40.5512 169.722C37.2644 170.1 35.6958 172.771 35.0534 174.328C34.8906 174.72 34.5716 175.028 34.1734 175.173C34.0084 175.233 33.8346 175.263 33.6608 175.263V175.261Z" fill="url(#paint33_linear_2173_3072)"/>
<path d="M37.9037 187.658C37.6243 187.658 37.3625 187.477 37.2745 187.196L33.3453 174.737C33.2353 174.389 33.4289 174.02 33.7765 173.91C34.1241 173.8 34.4937 173.993 34.6037 174.341L38.5329 186.8C38.6429 187.147 38.4493 187.517 38.1017 187.627C38.0357 187.647 37.9697 187.658 37.9037 187.658Z" fill="url(#paint34_linear_2173_3072)"/>
<path d="M55.2095 178.563C55.0335 178.563 54.8553 178.493 54.7255 178.352L46.8935 169.926C46.6449 169.66 46.6603 169.242 46.9287 168.993C47.1949 168.745 47.6129 168.76 47.8615 169.028L55.6935 177.454C55.9421 177.721 55.9267 178.139 55.6583 178.387C55.5307 178.506 55.3701 178.563 55.2095 178.563Z" fill="url(#paint35_linear_2173_3072)"/>
<path d="M100.229 180.778C99.694 180.778 99.1858 180.556 98.8206 180.162C97.5512 178.79 95.162 176.341 93.4284 175.349C90.938 173.923 84.5888 172.924 84.525 172.916C84.1642 172.861 83.9178 172.522 83.975 172.161C84.03 171.8 84.3688 171.556 84.7274 171.611C84.998 171.653 91.3802 172.658 94.084 174.203C95.8748 175.228 98.176 177.52 99.7908 179.265C99.9118 179.395 100.075 179.467 100.251 179.456C100.427 179.45 100.583 179.37 100.693 179.234C102.264 177.28 105.443 174.031 109.09 174.258C112.095 174.442 114.674 175.721 116.306 176.759C116.467 176.86 116.66 176.882 116.839 176.816C117.015 176.75 117.149 176.609 117.204 176.427C118.277 172.861 121.533 164.762 128.611 166.536C128.965 166.624 129.178 166.982 129.09 167.336C129 167.691 128.644 167.904 128.29 167.816C122.317 166.313 119.432 173.604 118.469 176.807C118.293 177.388 117.868 177.844 117.301 178.055C116.731 178.266 116.113 178.2 115.6 177.874C114.097 176.92 111.735 175.745 109.011 175.578C105.962 175.386 103.135 178.308 101.725 180.063C101.375 180.497 100.856 180.759 100.299 180.778C100.277 180.778 100.255 180.778 100.231 180.778H100.229Z" fill="url(#paint36_linear_2173_3072)"/>
<path d="M100.374 169.614C99.9975 169.614 99.6323 169.458 99.3727 169.183C98.9349 168.723 98.0439 167.905 96.2773 166.625C93.0873 164.31 86.7931 163.974 86.7293 163.971C86.3663 163.954 86.0847 163.644 86.1023 163.281C86.1199 162.918 86.4235 162.632 86.7931 162.654C87.0681 162.667 93.5427 163.01 97.0517 165.558C98.5345 166.633 99.6367 167.546 100.328 168.275C100.332 168.279 100.341 168.29 100.374 168.294C100.394 168.294 100.409 168.286 100.422 168.27C101.549 166.983 103.942 164.935 107.319 165.663C110.041 166.251 111.699 167.186 112.612 167.868C112.619 167.872 112.634 167.885 112.663 167.879C112.692 167.872 112.703 167.852 112.705 167.843C113.464 166.33 114.639 164.385 115.923 163.703C116.245 163.531 116.645 163.655 116.817 163.976C116.988 164.297 116.865 164.697 116.544 164.869C115.791 165.267 114.823 166.57 113.884 168.437C113.699 168.805 113.365 169.069 112.967 169.163C112.568 169.258 112.15 169.17 111.823 168.926C111.015 168.323 109.528 167.491 107.04 166.955C104.323 166.367 102.349 168.072 101.414 169.139C101.157 169.432 100.787 169.606 100.4 169.612C100.391 169.612 100.383 169.612 100.372 169.612L100.374 169.614Z" fill="url(#paint37_linear_2173_3072)"/>
<path d="M100.168 180.778C100.168 180.778 100.159 180.778 100.153 180.778C99.7874 180.769 99.4992 180.468 99.508 180.103L99.7544 168.938C99.7632 168.579 100.056 168.293 100.414 168.293C100.419 168.293 100.423 168.293 100.43 168.293C100.795 168.302 101.083 168.603 101.074 168.968L100.828 180.133C100.819 180.492 100.527 180.778 100.168 180.778Z" fill="url(#paint38_linear_2173_3072)"/>
<path d="M116.677 178.175C116.424 178.175 116.184 178.03 116.074 177.786L112.052 168.812C111.903 168.48 112.052 168.088 112.384 167.941C112.717 167.791 113.108 167.941 113.256 168.273L117.277 177.247C117.427 177.579 117.277 177.971 116.945 178.118C116.857 178.158 116.767 178.175 116.677 178.175Z" fill="url(#paint39_linear_2173_3072)"/>
<path d="M92.3344 162.296C92.1518 170.161 85.7212 176.482 77.8122 176.482C69.9032 176.482 63.6288 170.313 63.2988 162.582C68.7416 162.219 74.466 162.023 80.373 162.023C84.4584 162.023 88.458 162.116 92.3344 162.294V162.296Z" fill="url(#paint40_linear_2173_3072)"/>
<g opacity="0.25">
<path d="M77.4333 87.5235C77.4333 87.5235 77.4223 87.5147 77.4157 87.5103C77.4047 87.5015 77.3937 87.4883 77.3827 87.4795C75.0023 85.4709 70.5055 81.3569 67.1417 76.3871C64.0375 71.7957 64.8911 63.2047 65.7007 58.3867C65.1837 58.5451 64.6711 58.7167 64.1651 58.8971C63.3577 64.0121 62.7175 72.3831 65.9647 77.1857C68.6091 81.0951 71.9245 84.4787 74.4281 86.7733C68.1647 85.3367 62.6823 83.2335 58.0095 80.9125C57.9105 80.5693 57.7147 80.2591 57.4331 80.0237C55.3673 78.2769 51.4645 74.7085 48.5473 70.3943C48.1997 69.8795 47.9093 69.3097 47.6739 68.6959C47.2977 69.0325 46.9281 69.3757 46.5629 69.7277C46.7961 70.2469 47.0623 70.7375 47.3703 71.1929C49.3459 74.1145 51.7505 76.6951 53.7701 78.6333C50.3403 76.6423 47.4627 74.6051 45.1505 72.7703C44.8535 72.5349 44.5631 72.2995 44.2793 72.0663C43.9559 72.4139 43.6435 72.7703 43.3355 73.1311C43.6237 73.3709 43.9185 73.6107 44.2221 73.8483C47.3241 76.3123 51.4271 79.1393 56.4981 81.7419C53.3257 84.2895 45.9095 90.8257 45.2319 96.7349C44.8073 100.433 45.4497 103.768 46.1625 106.105C42.8647 102.732 39.9585 99.2253 37.5605 96.0551C36.1459 94.1873 34.8413 92.3525 33.6577 90.6123C33.4795 91.1975 33.3101 91.7893 33.1495 92.3855C34.1593 93.8463 35.2461 95.3599 36.4099 96.8955C39.2105 100.598 42.6931 104.754 46.6905 108.641C46.6333 108.672 46.5629 108.694 46.4749 108.685C43.6457 108.505 37.9939 108.36 31.9241 109.405C31.7833 109.429 31.6447 109.455 31.5039 109.48V110.943C37.8201 109.766 43.7579 109.935 46.3847 110.104C46.8841 110.135 47.3637 109.959 47.7267 109.627C52.4017 114.018 57.7367 117.972 63.4941 120.394C59.9829 120.24 54.2453 120.242 48.1381 121.294C41.3357 122.464 35.7631 124.622 31.5061 127.735V128.644C31.5061 128.939 31.5061 129.231 31.5083 129.526C42.0111 121.186 59.3911 121.547 64.7547 121.885C65.4433 121.929 66.0945 121.621 66.4971 121.063C66.5301 121.014 66.5587 120.968 66.5873 120.917H66.5895C66.9063 120.383 66.9635 119.738 66.7303 119.155C65.7975 116.847 64.3235 112.168 64.9417 106.793C65.6787 100.378 74.6239 92.7441 77.3497 90.5573C77.8139 90.1833 78.0867 89.6267 78.0933 89.0283C78.0999 88.4519 77.8579 87.9107 77.4355 87.5257L77.4333 87.5235ZM76.4565 89.4463C72.8287 92.3591 64.3037 99.8633 63.5271 106.628C62.8803 112.258 64.3939 117.149 65.3773 119.608C59.1337 117.279 53.3389 113.011 48.3251 108.241C48.3207 108.025 48.2767 107.81 48.1953 107.601C47.3879 105.601 46.1119 101.551 46.6465 96.8955C47.2845 91.3515 55.0395 84.7339 57.4023 82.8375C57.5607 82.7099 57.6971 82.5581 57.8027 82.3931C63.0827 84.9715 69.3461 87.2705 76.5687 88.6785C76.6567 88.8039 76.6699 88.9337 76.6699 89.0107C76.6677 89.1119 76.6391 89.3011 76.4565 89.4485V89.4463Z" fill="url(#paint41_linear_2173_3072)"/>
</g>
<g opacity="0.5">
<path d="M166.094 22.2422H117.557C114.919 22.2422 112.783 24.3806 112.783 27.0162V54.7978C112.783 57.4356 114.922 59.5718 117.557 59.5718H125.29V64.0708C125.29 66.141 127.737 67.241 129.285 65.866L136.38 59.5718H166.096C168.734 59.5718 170.87 57.4334 170.87 54.7978V27.0162C170.87 24.3784 168.731 22.2422 166.096 22.2422H166.094Z" fill="#E6EDF7"/>
</g>
<path d="M127.703 67.1413C127.279 67.1413 126.847 67.0511 126.438 66.8663C125.325 66.3647 124.632 65.2955 124.632 64.0745V60.2355H117.559C114.563 60.2355 112.125 57.7979 112.125 54.8015V27.0199C112.125 24.0235 114.563 21.5859 117.559 21.5859H166.095C169.092 21.5859 171.529 24.0235 171.529 27.0199V54.8015C171.529 57.7979 169.092 60.2355 166.095 60.2355H136.631L129.723 66.3647C129.146 66.8773 128.431 67.1413 127.703 67.1413ZM117.559 22.9037C115.291 22.9037 113.445 24.7495 113.445 27.0177V54.7993C113.445 57.0675 115.291 58.9133 117.559 58.9133H125.952V64.0723C125.952 64.7763 126.337 65.3703 126.979 65.6607C127.622 65.9489 128.321 65.8433 128.849 65.3747L136.131 58.9133H166.098C168.366 58.9133 170.212 57.0675 170.212 54.7993V27.0177C170.212 24.7495 168.366 22.9037 166.098 22.9037H117.561H117.559Z" fill="url(#paint42_linear_2173_3072)"/>
<path d="M149.991 42.4497C149.991 45.6133 149.28 48.0553 147.859 49.7713C146.438 51.4873 144.434 52.3453 141.849 52.3453C139.264 52.3453 137.224 51.4829 135.799 49.7559C134.373 48.0289 133.658 45.5935 133.658 42.4519V38.1729C133.658 35.0093 134.369 32.5695 135.79 30.8513C137.211 29.1353 139.22 28.2773 141.816 28.2773C144.412 28.2773 146.423 29.1419 147.85 30.8667C149.276 32.5937 149.991 35.0335 149.991 38.1883V42.4519V42.4497ZM144.568 37.4777C144.568 35.7947 144.348 34.5363 143.908 33.7047C143.468 32.8731 142.771 32.4573 141.816 32.4573C140.861 32.4573 140.203 32.8445 139.781 33.6167C139.356 34.3889 139.13 35.5593 139.097 37.1235V43.1097C139.097 44.8587 139.317 46.1369 139.757 46.9465C140.197 47.7561 140.894 48.1609 141.849 48.1609C142.804 48.1609 143.453 47.7671 143.893 46.9773C144.333 46.1897 144.557 44.9533 144.568 43.2681V37.4755V37.4777Z" fill="url(#paint43_linear_2173_3072)"/>
<g opacity="0.25">
<path d="M19.1862 52.4427H22.3916C27.6892 52.4427 32.4852 54.5899 35.9568 58.0615C39.4306 61.5353 41.5756 66.3291 41.5756 71.6267C41.5756 73.1117 41.4018 74.5527 41.0828 75.9409C41.9408 74.7815 42.8472 73.6617 43.7998 72.5859C43.8086 72.5771 43.8196 72.5639 43.8284 72.5551C44.3168 72.0073 44.8162 71.4727 45.3266 70.9469C45.3772 70.8963 45.4234 70.8457 45.474 70.7951C45.8238 70.4365 46.1824 70.0845 46.5454 69.7347C46.5498 69.7303 46.5542 69.7237 46.563 69.7171C46.574 69.7061 46.5872 69.6951 46.5982 69.6841C47.5222 68.7997 48.4814 67.9527 49.4758 67.1409C49.4956 67.1233 49.511 67.1101 49.5308 67.0969C49.8058 66.8747 50.0808 66.6547 50.3602 66.4347C50.4042 66.3995 50.4504 66.3643 50.4944 66.3291C50.7694 66.1179 51.0466 65.9067 51.326 65.7021C51.3546 65.6801 51.3832 65.6603 51.4118 65.6383C52.0212 65.1895 52.6416 64.7539 53.2752 64.3315C53.3566 64.2765 53.4358 64.2259 53.5172 64.1731C53.746 64.0213 53.9792 63.8695 54.2124 63.7221C54.307 63.6605 54.4038 63.6011 54.5006 63.5395C54.736 63.3921 54.9736 63.2447 55.2134 63.1039C55.2948 63.0533 55.374 63.0049 55.4554 62.9565C55.7722 62.7673 56.0934 62.5825 56.4146 62.3999C56.4652 62.3713 56.5158 62.3449 56.5664 62.3163C56.837 62.1645 57.1098 62.0149 57.3848 61.8697C57.4904 61.8103 57.6004 61.7531 57.7104 61.6959C57.9326 61.5793 58.1592 61.4627 58.3836 61.3505C58.5002 61.2933 58.6124 61.2339 58.729 61.1767C58.971 61.0579 59.2152 60.9391 59.4594 60.8225C59.5496 60.7807 59.6398 60.7367 59.7322 60.6949C60.071 60.5365 60.4098 60.3825 60.7508 60.2329C60.7882 60.2153 60.83 60.1999 60.8674 60.1823C61.1732 60.0503 61.4812 59.9183 61.7892 59.7907C61.8838 59.7533 61.9762 59.7159 62.0708 59.6763C62.337 59.5707 62.6032 59.4629 62.8716 59.3617C62.9618 59.3265 63.052 59.2935 63.1422 59.2583C63.4546 59.1417 63.767 59.0295 64.0816 58.9173C64.1124 58.9063 64.141 58.8931 64.1718 58.8843C64.185 58.8799 64.2004 58.8755 64.2136 58.8711C64.3324 58.8293 64.4512 58.7875 64.57 58.7479C64.7548 58.6841 64.9396 58.6225 65.1266 58.5609C65.2872 58.5081 65.4522 58.4575 65.615 58.4069C65.6458 58.3981 65.6766 58.3849 65.7074 58.3761C65.8724 58.3211 66.0418 58.2705 66.2068 58.2199C64.9308 56.2817 64.185 53.9651 64.185 51.4725C64.185 44.6965 69.6784 39.2009 76.4544 39.2009C83.2304 39.2009 88.7238 44.6965 88.7238 51.4725C88.7238 53.3315 88.308 55.0937 87.5688 56.6689C87.901 56.7195 88.231 56.7701 88.5588 56.8251C95.8012 58.0483 102.5 60.8665 108.282 64.9035C108.321 64.9321 108.361 64.9585 108.401 64.9871C108.656 65.1675 108.911 65.3501 109.164 65.5349C111.199 67.0265 113.117 68.6677 114.897 70.4475C116.422 71.9721 117.843 73.5957 119.156 75.3095C118.923 74.1171 118.798 72.8851 118.798 71.6223C118.798 67.0551 120.397 62.8597 123.064 59.5663H117.561C114.924 59.5663 112.787 57.4279 112.787 54.7923V27.0107C112.787 24.3729 114.926 22.2367 117.561 22.2367H166.098C168.736 22.2367 170.872 24.3751 170.872 27.0107V51.4439C178.482 48.8985 183.968 41.7199 183.968 33.2543C183.968 27.9567 181.821 23.1607 178.35 19.6891C174.876 16.2153 170.082 14.0703 164.784 14.0703H19.1862C8.591 14.0747 0 22.6657 0 33.2609C0 38.5585 2.1472 43.3545 5.6188 46.8239C9.0926 50.2977 13.8864 52.4427 19.184 52.4427H19.1862Z" fill="url(#paint44_linear_2173_3072)"/>
<path d="M170.627 90.8164L172.658 94.7346L176.464 102.083C177.225 103.548 177.968 105.022 178.686 106.509C178.881 106.914 179.079 107.321 179.271 107.73C180.608 110.572 184.599 117.333 192.752 118.719C193.067 118.774 193.386 118.82 193.714 118.86C194.226 118.917 194.715 118.983 195.186 119.051C203.724 120.314 205.607 123.405 205.944 124.151V124.157C205.974 124.21 206.003 124.261 206.032 124.314C206.623 125.458 206.663 126.841 206.212 128.41C214.178 126.078 219.997 118.721 219.997 110C219.997 104.703 217.85 99.9068 214.378 96.4374C210.905 92.9636 206.111 90.8186 200.813 90.8186H170.627V90.8164Z" fill="url(#paint45_linear_2173_3072)"/>
<path d="M76.4508 44.7422C72.7328 44.7422 69.7188 47.754 69.7188 51.4764C69.7188 53.6434 70.7418 55.5684 72.3324 56.7982H72.3346C74.9438 56.367 77.6211 56.1426 80.3535 56.1426H80.4416C80.7254 56.1426 81.007 56.1448 81.2908 56.1492C82.4634 54.9414 83.1849 53.2914 83.1849 51.4764C83.1849 47.754 80.171 44.7422 76.453 44.7422H76.4508Z" fill="url(#paint46_linear_2173_3072)"/>
<path d="M87.3381 56.644C87.4129 56.655 87.4899 56.6638 87.5647 56.6748C87.1071 56.6066 86.6495 56.545 86.1875 56.4922C86.5703 56.5362 86.9553 56.589 87.3359 56.644H87.3381Z" fill="url(#paint47_linear_2173_3072)"/>
<path d="M200.814 167.55H182.237C176.939 167.55 172.143 165.402 168.672 161.931C168.095 161.354 167.561 160.738 167.061 160.094C164.324 161.436 161.623 162.668 158.978 163.779C155.298 165.328 151.732 166.652 148.359 167.732C153.934 173.175 154.167 176.935 154.11 177.947V177.96C154.112 178.052 154.114 178.147 154.114 178.239C154.114 190.159 121.101 199.821 80.3701 199.821C39.6394 199.821 6.62835 190.161 6.62835 178.242V178.224C6.60415 178.11 6.02335 174.827 10.5994 169.58C4.31615 172.733 0.00195312 179.229 0.00195312 186.736C0.00195312 192.033 2.14915 196.829 5.62075 200.301C9.09455 203.775 13.8884 205.92 19.186 205.92H200.814C211.409 205.92 220 197.329 220 186.734C220 181.436 217.853 176.64 214.381 173.168C210.909 169.697 206.113 167.55 200.816 167.55H200.814Z" fill="url(#paint48_linear_2173_3072)"/>
<path d="M69.1045 57.4492C68.3807 57.6164 67.6657 57.8056 66.9551 58.0058C67.6657 57.8034 68.3851 57.6186 69.1045 57.4492Z" fill="url(#paint49_linear_2173_3072)"/>
<path d="M19.1862 129.182H31.5084C31.5084 128.999 31.5084 128.817 31.5084 128.636V104.993C31.5084 104.955 31.5106 104.92 31.5106 104.881C31.5106 104.447 31.5194 104.016 31.5326 103.585C31.5348 103.451 31.5392 103.316 31.5436 103.182C31.5612 102.733 31.581 102.287 31.6096 101.84C31.6162 101.73 31.6272 101.622 31.6338 101.515C31.6602 101.138 31.691 100.76 31.7262 100.386C31.7372 100.263 31.7482 100.137 31.7592 100.014C31.8032 99.5786 31.8538 99.143 31.911 98.7118C31.9286 98.5798 31.944 98.4478 31.9638 98.318C32.0166 97.9418 32.0694 97.5634 32.131 97.1872C32.1442 97.0992 32.1574 97.009 32.1706 96.921C32.2432 96.4876 32.3224 96.0542 32.4082 95.6252C32.4324 95.4954 32.4588 95.3678 32.483 95.2358C32.571 94.8024 32.6634 94.369 32.7624 93.94C32.7756 93.8762 32.7932 93.8124 32.8064 93.7508C32.901 93.3504 33 92.9544 33.1056 92.5584C33.1188 92.499 33.1342 92.4374 33.1496 92.3758C33.1672 92.3142 33.1826 92.2548 33.2002 92.1954C33.2354 92.0612 33.2728 91.927 33.3124 91.795C33.3652 91.6102 33.4158 91.4276 33.4686 91.2428C33.495 91.1526 33.5214 91.0646 33.55 90.9744C33.5852 90.8512 33.6204 90.7258 33.66 90.6026C33.6908 90.5058 33.7216 90.4112 33.7524 90.3166C33.8052 90.1538 33.8558 89.9888 33.9108 89.826C33.9724 89.6346 34.034 89.4432 34.1 89.2496C34.2056 88.9328 34.3178 88.6138 34.4344 88.2992C34.4938 88.132 34.5576 87.9648 34.6214 87.7998C34.6918 87.6084 34.7644 87.4192 34.8392 87.23C34.903 87.0628 34.969 86.8956 35.035 86.7306C35.1164 86.5348 35.1956 86.3368 35.2792 86.141C35.3408 85.9914 35.4046 85.8396 35.4684 85.69C35.4772 85.6702 35.486 85.6526 35.4948 85.6328C32.065 88.8426 27.4582 90.8116 22.3916 90.8116H19.1862C8.591 90.8116 0 99.4004 0 109.993C0 115.291 2.1472 120.089 5.6188 123.559C9.0926 127.032 13.8864 129.177 19.184 129.177L19.1862 129.182Z" fill="url(#paint50_linear_2173_3072)"/>
</g>
<defs>
<linearGradient id="paint0_linear_2173_3072" x1="129.199" y1="122.68" x2="130.728" y2="122.68" gradientUnits="userSpaceOnUse">
<stop stop-color="#003B8D"/>
<stop offset="1" stop-color="#0062EB"/>
</linearGradient>
<linearGradient id="paint1_linear_2173_3072" x1="128.957" y1="101.598" x2="132.756" y2="101.598" gradientUnits="userSpaceOnUse">
<stop stop-color="#003B8D"/>
<stop offset="1" stop-color="#0062EB"/>
</linearGradient>
<linearGradient id="paint2_linear_2173_3072" x1="129.199" y1="117.949" x2="138.296" y2="117.949" gradientUnits="userSpaceOnUse">
<stop stop-color="#003B8D"/>
<stop offset="1" stop-color="#0062EB"/>
</linearGradient>
<linearGradient id="paint3_linear_2173_3072" x1="129.197" y1="106.986" x2="137.859" y2="106.986" gradientUnits="userSpaceOnUse">
<stop stop-color="#003B8D"/>
<stop offset="1" stop-color="#0062EB"/>
</linearGradient>
<linearGradient id="paint4_linear_2173_3072" x1="129.184" y1="127.199" x2="139.359" y2="127.199" gradientUnits="userSpaceOnUse">
<stop stop-color="#003B8D"/>
<stop offset="1" stop-color="#0062EB"/>
</linearGradient>
<linearGradient id="paint5_linear_2173_3072" x1="125.826" y1="93.3157" x2="142.188" y2="93.3157" gradientUnits="userSpaceOnUse">
<stop stop-color="#003B8D"/>
<stop offset="1" stop-color="#0062EB"/>
</linearGradient>
<linearGradient id="paint6_linear_2173_3072" x1="135.676" y1="103.98" x2="150.033" y2="103.98" gradientUnits="userSpaceOnUse">
<stop stop-color="#003B8D"/>
<stop offset="1" stop-color="#0062EB"/>
</linearGradient>
<linearGradient id="paint7_linear_2173_3072" x1="133.607" y1="121.167" x2="150.398" y2="121.167" gradientUnits="userSpaceOnUse">
<stop stop-color="#003B8D"/>
<stop offset="1" stop-color="#0062EB"/>
</linearGradient>
<linearGradient id="paint8_linear_2173_3072" x1="122.314" y1="111.885" x2="205.945" y2="111.885" gradientUnits="userSpaceOnUse">
<stop stop-color="#003B8D"/>
<stop offset="1" stop-color="#0062EB"/>
</linearGradient>
<linearGradient id="paint9_linear_2173_3072" x1="121.455" y1="112.091" x2="206.547" y2="112.091" gradientUnits="userSpaceOnUse">
<stop stop-color="#003B8D"/>
<stop offset="1" stop-color="#0062EB"/>
</linearGradient>
<linearGradient id="paint10_linear_2173_3072" x1="131.744" y1="144.404" x2="206.519" y2="144.404" gradientUnits="userSpaceOnUse">
<stop stop-color="#003B8D"/>
<stop offset="1" stop-color="#0062EB"/>
</linearGradient>
<linearGradient id="paint11_linear_2173_3072" x1="130.951" y1="144.451" x2="207.177" y2="144.451" gradientUnits="userSpaceOnUse">
<stop stop-color="#003B8D"/>
<stop offset="1" stop-color="#0062EB"/>
</linearGradient>
<linearGradient id="paint12_linear_2173_3072" x1="133.348" y1="144.902" x2="201.6" y2="144.902" gradientUnits="userSpaceOnUse">
<stop stop-color="#003B8D"/>
<stop offset="1" stop-color="#0062EB"/>
</linearGradient>
<linearGradient id="paint13_linear_2173_3072" x1="149.523" y1="140.215" x2="166.974" y2="140.215" gradientUnits="userSpaceOnUse">
<stop stop-color="#003B8D"/>
<stop offset="1" stop-color="#0062EB"/>
</linearGradient>
<linearGradient id="paint14_linear_2173_3072" x1="148.627" y1="140.114" x2="167.636" y2="140.114" gradientUnits="userSpaceOnUse">
<stop stop-color="#003B8D"/>
<stop offset="1" stop-color="#0062EB"/>
</linearGradient>
<linearGradient id="paint15_linear_2173_3072" x1="124.064" y1="107.305" x2="152.11" y2="107.305" gradientUnits="userSpaceOnUse">
<stop stop-color="#003B8D"/>
<stop offset="1" stop-color="#0062EB"/>
</linearGradient>
<linearGradient id="paint16_linear_2173_3072" x1="64.1816" y1="48.7204" x2="88.7182" y2="48.7204" gradientUnits="userSpaceOnUse">
<stop stop-color="#003B8D"/>
<stop offset="1" stop-color="#0062EB"/>
</linearGradient>
<linearGradient id="paint17_linear_2173_3072" x1="31.5059" y1="100.927" x2="46.6925" y2="100.927" gradientUnits="userSpaceOnUse">
<stop stop-color="#003B8D"/>
<stop offset="1" stop-color="#0062EB"/>
</linearGradient>
<linearGradient id="paint18_linear_2173_3072" x1="33.6582" y1="89.6157" x2="56.4986" y2="89.6157" gradientUnits="userSpaceOnUse">
<stop stop-color="#003B8D"/>
<stop offset="1" stop-color="#0062EB"/>
</linearGradient>
<linearGradient id="paint19_linear_2173_3072" x1="44.2812" y1="74.1794" x2="53.7699" y2="74.1794" gradientUnits="userSpaceOnUse">
<stop stop-color="#003B8D"/>
<stop offset="1" stop-color="#0062EB"/>
</linearGradient>
<linearGradient id="paint20_linear_2173_3072" x1="31.5059" y1="118.679" x2="63.4961" y2="118.679" gradientUnits="userSpaceOnUse">
<stop stop-color="#003B8D"/>
<stop offset="1" stop-color="#0062EB"/>
</linearGradient>
<linearGradient id="paint21_linear_2173_3072" x1="47.6738" y1="72.8365" x2="74.4302" y2="72.8365" gradientUnits="userSpaceOnUse">
<stop stop-color="#003B8D"/>
<stop offset="1" stop-color="#0062EB"/>
</linearGradient>
<linearGradient id="paint22_linear_2173_3072" x1="46.5195" y1="100.998" x2="76.6699" y2="100.998" gradientUnits="userSpaceOnUse">
<stop stop-color="#003B8D"/>
<stop offset="1" stop-color="#0062EB"/>
</linearGradient>
<linearGradient id="paint23_linear_2173_3072" x1="6.58984" y1="117.189" x2="154.111" y2="117.189" gradientUnits="userSpaceOnUse">
<stop stop-color="#003B8D"/>
<stop offset="1" stop-color="#0062EB"/>
</linearGradient>
<linearGradient id="paint24_linear_2173_3072" x1="5.93359" y1="120.011" x2="154.774" y2="120.011" gradientUnits="userSpaceOnUse">
<stop stop-color="#003B8D"/>
<stop offset="1" stop-color="#0062EB"/>
</linearGradient>
<linearGradient id="paint25_linear_2173_3072" x1="6.62891" y1="178.244" x2="154.113" y2="178.244" gradientUnits="userSpaceOnUse">
<stop stop-color="#01308D"/>
<stop offset="1" stop-color="#051A3F"/>
</linearGradient>
<linearGradient id="paint26_linear_2173_3072" x1="5.9668" y1="178.246" x2="154.768" y2="178.246" gradientUnits="userSpaceOnUse">
<stop stop-color="#003B8D"/>
<stop offset="1" stop-color="#0062EB"/>
</linearGradient>
<linearGradient id="paint27_linear_2173_3072" x1="14.9277" y1="178.381" x2="145.812" y2="178.381" gradientUnits="userSpaceOnUse">
<stop stop-color="#003B8D"/>
<stop offset="1" stop-color="#0062EB"/>
</linearGradient>
<linearGradient id="paint28_linear_2173_3072" x1="32.375" y1="146.541" x2="78.041" y2="146.541" gradientUnits="userSpaceOnUse">
<stop stop-color="#003B8D"/>
<stop offset="1" stop-color="#0062EB"/>
</linearGradient>
<linearGradient id="paint29_linear_2173_3072" x1="80.6621" y1="141.941" x2="93.4661" y2="141.941" gradientUnits="userSpaceOnUse">
<stop stop-color="#003B8D"/>
<stop offset="1" stop-color="#0062EB"/>
</linearGradient>
<linearGradient id="paint30_linear_2173_3072" x1="97.9551" y1="89.4354" x2="123.625" y2="89.4354" gradientUnits="userSpaceOnUse">
<stop stop-color="#003B8D"/>
<stop offset="1" stop-color="#0062EB"/>
</linearGradient>
<linearGradient id="paint31_linear_2173_3072" x1="110.59" y1="145.191" x2="128.326" y2="145.191" gradientUnits="userSpaceOnUse">
<stop stop-color="#003B8D"/>
<stop offset="1" stop-color="#0062EB"/>
</linearGradient>
<linearGradient id="paint32_linear_2173_3072" x1="17.0781" y1="174.543" x2="65.0196" y2="174.543" gradientUnits="userSpaceOnUse">
<stop stop-color="#003B8D"/>
<stop offset="1" stop-color="#0062EB"/>
</linearGradient>
<linearGradient id="paint33_linear_2173_3072" x1="16.0723" y1="169.011" x2="50.4058" y2="169.011" gradientUnits="userSpaceOnUse">
<stop stop-color="#003B8D"/>
<stop offset="1" stop-color="#0062EB"/>
</linearGradient>
<linearGradient id="paint34_linear_2173_3072" x1="33.3145" y1="180.768" x2="38.5637" y2="180.768" gradientUnits="userSpaceOnUse">
<stop stop-color="#003B8D"/>
<stop offset="1" stop-color="#0062EB"/>
</linearGradient>
<linearGradient id="paint35_linear_2173_3072" x1="46.7168" y1="173.69" x2="55.8703" y2="173.69" gradientUnits="userSpaceOnUse">
<stop stop-color="#003B8D"/>
<stop offset="1" stop-color="#0062EB"/>
</linearGradient>
<linearGradient id="paint36_linear_2173_3072" x1="83.9668" y1="173.532" x2="129.11" y2="173.532" gradientUnits="userSpaceOnUse">
<stop stop-color="#003B8D"/>
<stop offset="1" stop-color="#0062EB"/>
</linearGradient>
<linearGradient id="paint37_linear_2173_3072" x1="86.1016" y1="166.133" x2="116.894" y2="166.133" gradientUnits="userSpaceOnUse">
<stop stop-color="#003B8D"/>
<stop offset="1" stop-color="#0062EB"/>
</linearGradient>
<linearGradient id="paint38_linear_2173_3072" x1="99.5078" y1="174.535" x2="101.075" y2="174.535" gradientUnits="userSpaceOnUse">
<stop stop-color="#003B8D"/>
<stop offset="1" stop-color="#0062EB"/>
</linearGradient>
<linearGradient id="paint39_linear_2173_3072" x1="111.994" y1="173.029" x2="117.335" y2="173.029" gradientUnits="userSpaceOnUse">
<stop stop-color="#003B8D"/>
<stop offset="1" stop-color="#0062EB"/>
</linearGradient>
<linearGradient id="paint40_linear_2173_3072" x1="63.2988" y1="169.253" x2="92.3344" y2="169.253" gradientUnits="userSpaceOnUse">
<stop stop-color="#003B8D"/>
<stop offset="1" stop-color="#0062EB"/>
</linearGradient>
<linearGradient id="paint41_linear_2173_3072" x1="31.5039" y1="93.9563" x2="78.0934" y2="93.9563" gradientUnits="userSpaceOnUse">
<stop stop-color="#003B8D"/>
<stop offset="1" stop-color="#0062EB"/>
</linearGradient>
<linearGradient id="paint42_linear_2173_3072" x1="112.125" y1="44.3636" x2="171.529" y2="44.3636" gradientUnits="userSpaceOnUse">
<stop stop-color="#003B8D"/>
<stop offset="1" stop-color="#0062EB"/>
</linearGradient>
<linearGradient id="paint43_linear_2173_3072" x1="133.658" y1="40.3113" x2="149.991" y2="40.3113" gradientUnits="userSpaceOnUse">
<stop stop-color="#01308D"/>
<stop offset="1" stop-color="#051A3F"/>
</linearGradient>
<linearGradient id="paint44_linear_2173_3072" x1="0" y1="45.0056" x2="183.968" y2="45.0056" gradientUnits="userSpaceOnUse">
<stop stop-color="#003B8D"/>
<stop offset="1" stop-color="#0062EB"/>
</linearGradient>
<linearGradient id="paint45_linear_2173_3072" x1="170.627" y1="109.613" x2="219.997" y2="109.613" gradientUnits="userSpaceOnUse">
<stop stop-color="#003B8D"/>
<stop offset="1" stop-color="#0062EB"/>
</linearGradient>
<linearGradient id="paint46_linear_2173_3072" x1="69.7188" y1="50.7702" x2="83.1849" y2="50.7702" gradientUnits="userSpaceOnUse">
<stop stop-color="#003B8D"/>
<stop offset="1" stop-color="#0062EB"/>
</linearGradient>
<linearGradient id="paint47_linear_2173_3072" x1="86.1875" y1="56.5835" x2="87.5647" y2="56.5835" gradientUnits="userSpaceOnUse">
<stop stop-color="#003B8D"/>
<stop offset="1" stop-color="#0062EB"/>
</linearGradient>
<linearGradient id="paint48_linear_2173_3072" x1="0.00195312" y1="183.007" x2="220" y2="183.007" gradientUnits="userSpaceOnUse">
<stop stop-color="#003B8D"/>
<stop offset="1" stop-color="#0062EB"/>
</linearGradient>
<linearGradient id="paint49_linear_2173_3072" x1="66.9551" y1="57.7275" x2="69.1045" y2="57.7275" gradientUnits="userSpaceOnUse">
<stop stop-color="#003B8D"/>
<stop offset="1" stop-color="#0062EB"/>
</linearGradient>
<linearGradient id="paint50_linear_2173_3072" x1="0" y1="107.407" x2="35.4948" y2="107.407" gradientUnits="userSpaceOnUse">
<stop stop-color="#003B8D"/>
<stop offset="1" stop-color="#0062EB"/>
</linearGradient>
</defs>
</svg>
