<svg width="24" height="24" viewBox="0 0 24 24" fill="none" xmlns="http://www.w3.org/2000/svg">
<g clip-path="url(#clip0_2421_9742)">
<path d="M0.597656 13.6005H5.00142V23.4023H0.597656V13.6005ZM6.70614 8.27344H11.1099V23.4023H6.70614V8.27344ZM12.8144 13.6005H17.2181V23.4023H12.8144V13.6005ZM18.9229 8.27344H23.3266V23.4023H18.9229V8.27344Z" fill="white"/>
<path d="M4.36206 9.76428C5.00142 9.12492 5.1435 8.20164 4.85934 7.34916L7.84254 4.72116C8.55294 5.1474 9.33414 5.1474 10.0443 4.72116L13.0275 7.34916C12.6723 8.1306 12.8854 9.12492 13.5248 9.76428C14.377 10.6165 15.7976 10.6165 16.6501 9.76428C17.2892 9.12492 17.4313 8.20164 17.1471 7.34916L20.1303 4.72116C20.9828 5.21844 22.0479 5.07636 22.7583 4.36596C23.6108 3.51372 23.6108 2.09316 22.7583 1.24092C21.9061 0.388443 20.4855 0.388443 19.6333 1.24092C18.9939 1.88004 18.8518 2.80332 19.136 3.6558L16.0817 6.35484C15.4426 5.99964 14.5901 5.99964 13.88 6.35484L10.8968 3.72684C11.1809 2.9454 11.0389 2.02212 10.3995 1.38276C9.54726 0.530763 8.1267 0.530763 7.27422 1.38276C6.70614 1.95108 6.56382 2.87436 6.84822 3.65556L3.86502 6.35484C3.01254 5.85756 1.94742 5.9286 1.23702 6.639C0.384536 7.49124 0.384536 8.9118 1.23702 9.76428C2.0895 10.6168 3.50982 10.6165 4.36206 9.76428Z" fill="white"/>
</g>
<defs>
<clipPath id="clip0_2421_9742">
<rect width="24" height="24" fill="white" transform="translate(-0.00390625)"/>
</clipPath>
</defs>
</svg>
