<svg width="36" height="36" viewBox="0 0 36 36" fill="none" xmlns="http://www.w3.org/2000/svg">
<path d="M33.304 17.983C33.304 19.2644 31.2473 20.2584 30.9314 21.4402C30.6046 22.6629 31.8791 24.5502 31.2596 25.6208C30.6313 26.7068 28.3539 26.5424 27.4726 27.4238C26.5912 28.3051 26.7556 30.5825 25.6696 31.2108C24.5991 31.8302 22.7118 30.5558 21.489 30.8826C20.3073 31.1984 19.3132 33.2551 18.0319 33.2551C16.7505 33.2551 15.7565 31.1984 14.5747 30.8825C13.352 30.5557 11.4647 31.8302 10.3941 31.2108C9.30812 30.5825 9.4725 28.3051 8.59113 27.4238C7.70977 26.5424 5.43241 26.7067 4.80406 25.6208C4.18469 24.5502 5.45917 22.6629 5.13233 21.4402C4.81651 20.2584 2.75977 19.2644 2.75977 17.983C2.75977 16.7017 4.81651 15.7077 5.13238 14.5259C5.45917 13.3031 4.18469 11.4158 4.8041 10.3452C5.43241 9.25929 7.70981 9.42362 8.59117 8.54226C9.47254 7.66089 9.30817 5.38358 10.3941 4.75523C11.4647 4.13582 13.352 5.4103 14.5747 5.08346C15.7565 4.76764 16.7505 2.71094 18.0319 2.71094C19.3133 2.71094 20.3073 4.76764 21.489 5.08351C22.7118 5.41034 24.5991 4.13582 25.6697 4.75527C26.7556 5.38358 26.5913 7.66098 27.4726 8.5423C28.354 9.42367 30.6313 9.2593 31.2597 10.3453C31.8791 11.4159 30.6046 13.3031 30.9314 14.5259C31.2473 15.7077 33.304 16.7017 33.304 17.983Z" fill="url(#paint0_linear_2195_5116)"/>
<path d="M9.83309 21.1411H8.63708C8.45192 21.1411 8.35938 21.0485 8.35938 20.8634V15.8637C8.35938 15.6785 8.45192 15.5859 8.63708 15.5859H12.0783C12.2634 15.5859 12.356 15.6785 12.356 15.8637V16.7818C12.356 16.967 12.2634 17.0596 12.0782 17.0596H10.1108V17.862H11.4533C11.6384 17.862 11.7311 17.9546 11.7311 18.1398V19.0656C11.7311 19.2508 11.6384 19.3434 11.4533 19.3434H10.1108V20.8634C10.1108 21.0485 10.0183 21.1411 9.83309 21.1411ZM14.5935 21.1411H13.4053C13.2201 21.1411 13.1276 21.0485 13.1276 20.8634V15.8637C13.1276 15.6785 13.2201 15.5859 13.4053 15.5859H15.9746C16.3604 15.5859 16.6638 15.6399 16.885 15.7479C17.1061 15.8559 17.2631 16.0064 17.3557 16.1993C17.4483 16.3922 17.4946 16.6173 17.4946 16.8744V17.2293C17.4946 17.4454 17.4637 17.628 17.4019 17.7772C17.3402 17.9264 17.227 18.0369 17.0625 18.1089C17.3453 18.1398 17.5717 18.253 17.7414 18.4484C17.9112 18.6439 17.9961 18.9036 17.9961 19.2277V20.8634C17.9961 21.0485 17.9035 21.1411 17.7183 21.1411H16.5224C16.3372 21.1411 16.2446 21.0485 16.2446 20.8634V19.6829C16.2446 19.5646 16.2227 19.4797 16.1791 19.4283C16.1353 19.3769 16.0595 19.3511 15.9515 19.3511H14.8713V20.8634C14.8713 21.0485 14.7787 21.1411 14.5935 21.1411ZM14.8713 16.9747V17.9623H15.45C15.5836 17.9623 15.6737 17.9276 15.72 17.8581C15.7663 17.7887 15.7895 17.7027 15.7895 17.5997V17.3374C15.7895 17.2345 15.7663 17.1483 15.72 17.0789C15.6737 17.0094 15.5836 16.9747 15.45 16.9747H14.8713ZM22.718 21.1411H19.1379C18.9528 21.1411 18.8602 21.0485 18.8602 20.8634V15.8637C18.8602 15.6785 18.9528 15.5859 19.1379 15.5859H22.718C22.9031 15.5859 22.9957 15.6785 22.9957 15.8637V16.7664C22.9957 16.9516 22.9031 17.0442 22.718 17.0442H20.5884V17.6382H22.093C22.2782 17.6382 22.3707 17.7308 22.3707 17.9161V18.7416C22.3707 18.9267 22.2782 19.0193 22.093 19.0193H20.5885V19.6829H22.718C22.9031 19.6829 22.9957 19.7754 22.9957 19.9607V20.8634C22.9957 21.0485 22.9031 21.1411 22.718 21.1411ZM27.7639 21.1411H24.1838C23.9987 21.1411 23.9061 21.0485 23.9061 20.8634V15.8637C23.9061 15.6785 23.9987 15.5859 24.1838 15.5859H27.7639C27.949 15.5859 28.0416 15.6785 28.0416 15.8637V16.7664C28.0416 16.9516 27.949 17.0442 27.7639 17.0442H25.6344V17.6382H27.139C27.3241 17.6382 27.4167 17.7308 27.4167 17.9161V18.7416C27.4167 18.9267 27.3241 19.0193 27.139 19.0193H25.6344V19.6829H27.7639C27.9491 19.6829 28.0417 19.7754 28.0417 19.9607V20.8634C28.0417 21.0485 27.9491 21.1411 27.7639 21.1411H27.7639Z" fill="white"/>
<defs>
<linearGradient id="paint0_linear_2195_5116" x1="2.75977" y1="17.983" x2="33.304" y2="17.983" gradientUnits="userSpaceOnUse">
<stop stop-color="#123499"/>
<stop offset="1" stop-color="#2A57DE"/>
</linearGradient>
</defs>
</svg>
