<svg width="30" height="30" viewBox="0 0 30 30" fill="none" xmlns="http://www.w3.org/2000/svg">
<path d="M29.1914 13.0485C29.1905 13.0479 29.1898 13.047 29.1891 13.0463L16.9515 0.80918C16.4298 0.287227 15.7363 0 14.9987 0C14.261 0 13.5675 0.287227 13.0456 0.809121L0.814353 13.04C0.810251 13.0441 0.805915 13.0485 0.802048 13.0526C-0.269163 14.1299 -0.267288 15.8779 0.807322 16.9525C1.29822 17.4437 1.94638 17.728 2.63972 17.7579C2.66808 17.7607 2.6965 17.7621 2.7251 17.7621H3.21259V26.7677C3.21259 28.55 4.66279 29.9999 6.4451 29.9999H11.2328C11.7183 29.9999 12.1118 29.6062 12.1118 29.121V22.0605C12.1118 21.2473 12.7735 20.5859 13.5867 20.5859H16.4106C17.2239 20.5859 17.8853 21.2474 17.8853 22.0605V29.1211C17.8853 29.6063 18.2787 30 18.7642 30H23.552C25.3345 30 26.7845 28.55 26.7845 26.7677V17.7621H27.2367C27.9742 17.7621 28.6677 17.4748 29.1898 16.9528C30.2656 15.8766 30.266 14.1254 29.1914 13.0485L29.1914 13.0485ZM27.9467 15.71C27.8537 15.8035 27.7431 15.8777 27.6212 15.9283C27.4993 15.9788 27.3687 16.0047 27.2367 16.0044H25.9055C25.42 16.0044 25.0266 16.3978 25.0266 16.8833V26.7677C25.0266 27.5807 24.3651 28.2422 23.5519 28.2422H19.6431V22.0605C19.6431 20.2782 18.1931 18.828 16.4105 18.828H13.5867C11.8042 18.828 10.354 20.2782 10.354 22.0605V28.2422H6.44521C5.63217 28.2422 4.97047 27.5807 4.97047 26.7677V16.8832C4.97047 16.3977 4.57701 16.0043 4.09156 16.0043H2.78322C2.76951 16.0033 2.75577 16.0027 2.74203 16.0024C2.48017 15.9979 2.23461 15.894 2.05062 15.7097C1.65922 15.3183 1.65922 14.6814 2.05062 14.2897C2.0508 14.2897 2.0508 14.2895 2.05103 14.2893L2.05174 14.2886L14.2889 2.05195C14.3818 1.95838 14.4924 1.8842 14.6143 1.8337C14.7361 1.78321 14.8668 1.75742 14.9987 1.75781C15.2667 1.75781 15.5187 1.86217 15.7084 2.05195L27.9428 14.2861L27.9485 14.2916C28.3379 14.6837 28.3372 15.3193 27.9467 15.71Z" fill="white"/>
</svg>
