<svg width="24" height="24" viewBox="0 0 24 24" fill="none" xmlns="http://www.w3.org/2000/svg">
<g clip-path="url(#clip0_2421_9716)">
<path d="M22.8301 8.77148V22.9004H19.4268V8.77148H22.8301ZM16.7217 14.0986V22.9004H13.3184V14.0986H16.7217ZM10.6143 8.77148V22.9004H7.20996V8.77148H10.6143ZM4.50488 14.0986V22.9004H1.10156V14.0986H4.50488Z" stroke="white"/>
<path d="M19.9912 1.59277C20.6482 0.93571 21.7513 0.935693 22.4082 1.59277H22.4092C23.066 2.24976 23.0661 3.35388 22.4092 4.01074H22.4082C21.8553 4.56331 21.0381 4.66767 20.3857 4.28711L20.0742 4.10547L19.8037 4.34375L16.8203 6.97168L16.5723 7.19141L16.6768 7.50488C16.9119 8.21044 16.7832 8.92651 16.3008 9.40918C15.6435 10.0662 14.5388 10.0661 13.8818 9.40918C13.3746 8.90198 13.2259 8.12655 13.4863 7.55371L13.6396 7.2168L13.3623 6.97168L10.3789 4.34375L10.1045 4.10254L9.79102 4.29004C9.23925 4.62121 8.6556 4.62129 8.10352 4.29004L7.79004 4.10254L7.51562 4.34375L4.5332 6.97168L4.28418 7.19141L4.38867 7.50488C4.62386 8.21045 4.49535 8.92652 4.0127 9.40918C3.35578 10.066 2.25193 10.066 1.59473 9.40918C0.937481 8.75193 0.937603 7.64717 1.59473 6.99023C2.12543 6.45982 2.9367 6.3882 3.61719 6.78516L3.93262 6.96875L4.2041 6.72363L7.1875 4.02441L7.4375 3.79883L7.32227 3.48242C7.10697 2.89101 7.20886 2.23101 7.55859 1.81445L7.63184 1.73438C8.2481 1.11864 9.25691 1.08026 9.92188 1.61914L10.0498 1.73438C10.538 2.22257 10.6552 2.9359 10.4307 3.55371L10.3145 3.875L10.5703 4.09961L13.5537 6.72852L13.8066 6.95117L14.1074 6.7998C14.6849 6.51098 15.362 6.52284 15.8428 6.79004L16.1514 6.96191L16.417 6.72754L19.4707 4.02832L19.7188 3.80957L19.6143 3.49609C19.3791 2.79064 19.5079 2.07515 19.9902 1.59277H19.9912Z" stroke="white"/>
</g>
<defs>
<clipPath id="clip0_2421_9716">
<rect width="24" height="24" fill="white"/>
</clipPath>
</defs>
</svg>
