<svg width="76" height="69" viewBox="0 0 76 69" fill="none" xmlns="http://www.w3.org/2000/svg">
<g clip-path="url(#clip0_2011_938)">
<path d="M27.9695 49.5117L33.6639 60.4682L27.9695 68.999H14.1504C14.1504 52.9342 25.9038 49.5117 25.9038 49.5117H27.9695Z" fill="#FFA875"/>
<path d="M61.85 68.999H48.0324L44.0215 61.1602L48.0324 49.5117H50.2102C50.2102 49.5117 61.85 52.9342 61.85 68.999Z" fill="#FFA875"/>
<path d="M27.9707 49.5117H48.0332V68.999H27.9707V49.5117Z" fill="#81DDFD"/>
<path d="M6.46094 28.634C6.46094 12.8451 20.6093 0 37.9999 0C55.3904 0 69.5388 12.8451 69.5388 28.634H6.46094Z" fill="#827F98"/>
<path d="M11.9686 28.6348H6.46172C6.46172 31.7566 5.82926 34.236 5.15382 35.9936C4.25987 38.3202 5.24114 40.9012 7.53719 42.2153C10.1424 43.7063 14.0784 45.167 19.5008 45.167L11.9686 28.6348Z" fill="#77718C"/>
<path d="M64.0323 28.6348H69.5391C69.5391 31.7566 70.1716 34.236 70.847 35.9936C71.741 38.3202 70.7597 40.9012 68.4637 42.2153C65.8584 43.7063 61.9225 45.167 56.5 45.167L64.0323 28.6348Z" fill="#827F98"/>
<path d="M17.9709 27.4688C17.9709 16.2951 24.003 6.40176 33.2706 0.322266C18.1154 2.40018 6.46094 14.3046 6.46094 28.6342H17.9955C17.981 28.2471 17.9709 27.8591 17.9709 27.4688Z" fill="#77718C"/>
<path d="M64.3476 34.5183C67.7529 34.5183 70.5135 32.012 70.5135 28.9203C70.5135 25.8286 67.7529 23.3223 64.3476 23.3223C60.9422 23.3223 58.1816 25.8286 58.1816 28.9203C58.1816 32.012 60.9422 34.5183 64.3476 34.5183Z" fill="#FFCABD"/>
<path d="M27.9707 49.5117V53.4243C27.9707 55.9391 30.2161 57.9776 32.9859 57.9776C35.7559 57.9776 38.0012 55.939 38.0012 53.4243V49.5117H27.9707Z" fill="white"/>
<path d="M48.0305 49.5117V53.4243C48.0305 55.9391 45.785 57.9776 43.0152 57.9776C40.2453 57.9776 38 55.939 38 53.4243V49.5117H48.0305Z" fill="white"/>
<path d="M28.3246 50.1945L27.9697 49.5117H25.9038C25.9038 49.5117 14.1504 52.9344 14.1504 68.999H16.6665C17.5238 61.331 21.9091 54.6108 28.3246 50.1945Z" fill="#FF995D"/>
<path d="M63.4559 23.6673C62.9329 21.45 60.6426 19.9607 58.1636 20.2377C41.5048 22.0989 30.6518 16.7717 24.9352 12.618C22.9334 11.1634 20.0151 11.3912 18.3344 13.1491C14.3691 17.2965 11.9688 22.7103 11.9688 28.6333C11.9688 41.6741 23.9449 52.4168 38.3077 52.2662C52.5434 52.1168 64.0327 41.5933 64.0327 28.6335C64.0327 26.9299 63.8336 25.2686 63.4559 23.6673Z" fill="#FFDCCE"/>
<path d="M28.0104 50.4238C21.7875 44.4311 17.9719 36.3549 17.9719 27.4689C17.9719 21.7581 19.5487 16.3825 22.3263 11.6784C20.8615 11.5704 19.3654 12.0719 18.3346 13.1501C15.5759 16.0353 13.5761 19.5338 12.6135 23.3898C12.3008 23.3456 11.9805 23.3221 11.6542 23.3221C8.2489 23.3221 5.48828 25.8284 5.48828 28.9201C5.48828 32.0118 8.2489 34.5181 11.6542 34.5181C12.0373 34.5181 12.4115 34.4848 12.7751 34.4242C14.8169 41.6311 20.5646 47.564 28.0104 50.4238Z" fill="#FFCABD"/>
<path d="M22.5904 37.5016C25.7307 37.5016 28.2765 35.6609 28.2765 33.3904C28.2765 31.1199 25.7307 29.2793 22.5904 29.2793C19.45 29.2793 16.9043 31.1199 16.9043 33.3904C16.9043 35.6609 19.45 37.5016 22.5904 37.5016Z" fill="#FFA0AB"/>
<path d="M53.4107 37.5016C56.551 37.5016 59.0968 35.6609 59.0968 33.3904C59.0968 31.1199 56.551 29.2793 53.4107 29.2793C50.2704 29.2793 47.7246 31.1199 47.7246 33.3904C47.7246 35.6609 50.2704 37.5016 53.4107 37.5016Z" fill="#FFA0AB"/>
<path d="M25.9047 30.4741C25.2713 30.4741 24.7578 30.0079 24.7578 29.4329V27.3225C24.7578 26.7475 25.2713 26.2812 25.9047 26.2812C26.5381 26.2812 27.0516 26.7475 27.0516 27.3225V29.4329C27.0516 30.0079 26.5381 30.4741 25.9047 30.4741Z" fill="#423E4F"/>
<path d="M50.098 30.4741C49.4645 30.4741 48.9512 30.0079 48.9512 29.4329V27.3225C48.9512 26.7475 49.4645 26.2812 50.098 26.2812C50.7316 26.2812 51.2449 26.7475 51.2449 27.3225V29.4329C51.2449 30.0079 50.7316 30.4741 50.098 30.4741Z" fill="#423E4F"/>
<path d="M38.0002 31.7318C36.4464 31.7318 34.9688 31.1208 33.9464 30.0556C33.5301 29.622 33.58 28.9643 34.0577 28.5864C34.5351 28.2087 35.2596 28.2538 35.6757 28.6874C36.2624 29.2987 37.1096 29.6492 38.0002 29.6492C38.8906 29.6492 39.7378 29.2985 40.3247 28.6872C40.7411 28.2537 41.4653 28.2085 41.9429 28.5864C42.4204 28.9642 42.4701 29.622 42.054 30.0556C41.0313 31.1208 39.5538 31.7318 38.0002 31.7318Z" fill="#423E4F"/>
<path d="M19.9297 69.0009V62.2034C19.9297 61.6283 20.4432 61.1621 21.0766 61.1621C21.71 61.1621 22.2235 61.6283 22.2235 62.2034V69.0009H19.9297Z" fill="#FF995D"/>
<path d="M53.7793 69.0009V62.2034C53.7793 61.6283 54.2926 61.1621 54.9262 61.1621C55.5597 61.1621 56.073 61.6283 56.073 62.2034V69.0009H53.7793Z" fill="#FF995D"/>
<path d="M38.0005 61.8883C38.6135 61.8883 39.1104 61.4372 39.1104 60.8807C39.1104 60.3242 38.6135 59.873 38.0005 59.873C37.3875 59.873 36.8906 60.3242 36.8906 60.8807C36.8906 61.4372 37.3875 61.8883 38.0005 61.8883Z" fill="white"/>
<path d="M38.0005 66.0602C38.6135 66.0602 39.1104 65.6091 39.1104 65.0526C39.1104 64.4961 38.6135 64.0449 38.0005 64.0449C37.3875 64.0449 36.8906 64.4961 36.8906 65.0526C36.8906 65.6091 37.3875 66.0602 38.0005 66.0602Z" fill="white"/>
</g>
<defs>
<clipPath id="clip0_2011_938">
<rect width="76" height="69" fill="white"/>
</clipPath>
</defs>
</svg>
