<svg width="42" height="42" viewBox="0 0 42 42" fill="none" xmlns="http://www.w3.org/2000/svg">
<path d="M28.875 13.125C27.8307 13.125 26.8292 12.7102 26.0908 11.9717C25.3523 11.2333 24.9375 10.2318 24.9375 9.1875V2.625H10.5C9.45571 2.625 8.45419 3.03984 7.71577 3.77827C6.97734 4.51669 6.5625 5.51821 6.5625 6.5625V35.4375C6.5625 36.4818 6.97734 37.4833 7.71577 38.2217C8.45419 38.9602 9.45571 39.375 10.5 39.375H31.5C32.5443 39.375 33.5458 38.9602 34.2842 38.2217C35.0227 37.4833 35.4375 36.4818 35.4375 35.4375V13.125H28.875ZM17.0625 9.1875C17.8413 9.1875 18.6025 9.41843 19.2501 9.85109C19.8976 10.2837 20.4023 10.8987 20.7003 11.6182C20.9983 12.3377 21.0763 13.1294 20.9243 13.8932C20.7724 14.657 20.3974 15.3586 19.8467 15.9092C19.2961 16.4599 18.5945 16.8349 17.8307 16.9868C17.0669 17.1388 16.2752 17.0608 15.5557 16.7628C14.8362 16.4648 14.2212 15.9601 13.7886 15.3126C13.3559 14.665 13.125 13.9038 13.125 13.125C13.125 12.0807 13.5398 11.0792 14.2783 10.3408C15.0167 9.60234 16.0182 9.1875 17.0625 9.1875ZM11.8125 22.3125C11.8125 21.2682 12.2273 20.2667 12.9658 19.5283C13.7042 18.7898 14.7057 18.375 15.75 18.375H18.375C19.4193 18.375 20.4208 18.7898 21.1592 19.5283C21.8977 20.2667 22.3125 21.2682 22.3125 22.3125V24.9375C22.3125 25.2856 22.1742 25.6194 21.9281 25.8656C21.6819 26.1117 21.3481 26.25 21 26.25H13.125C12.7769 26.25 12.4431 26.1117 12.1969 25.8656C11.9508 25.6194 11.8125 25.2856 11.8125 24.9375V22.3125ZM28.875 32.8125H13.125C12.7769 32.8125 12.4431 32.6742 12.1969 32.4281C11.9508 32.1819 11.8125 31.8481 11.8125 31.5C11.8125 31.1519 11.9508 30.8181 12.1969 30.5719C12.4431 30.3258 12.7769 30.1875 13.125 30.1875H28.875C29.2231 30.1875 29.5569 30.3258 29.8031 30.5719C30.0492 30.8181 30.1875 31.1519 30.1875 31.5C30.1875 31.8481 30.0492 32.1819 29.8031 32.4281C29.5569 32.6742 29.2231 32.8125 28.875 32.8125ZM28.875 26.25H26.25C25.9019 26.25 25.5681 26.1117 25.3219 25.8656C25.0758 25.6194 24.9375 25.2856 24.9375 24.9375C24.9375 24.5894 25.0758 24.2556 25.3219 24.0094C25.5681 23.7633 25.9019 23.625 26.25 23.625H28.875C29.2231 23.625 29.5569 23.7633 29.8031 24.0094C30.0492 24.2556 30.1875 24.5894 30.1875 24.9375C30.1875 25.2856 30.0492 25.6194 29.8031 25.8656C29.5569 26.1117 29.2231 26.25 28.875 26.25ZM28.875 19.6875H26.25C25.9019 19.6875 25.5681 19.5492 25.3219 19.3031C25.0758 19.0569 24.9375 18.7231 24.9375 18.375C24.9375 18.0269 25.0758 17.6931 25.3219 17.4469C25.5681 17.2008 25.9019 17.0625 26.25 17.0625H28.875C29.2231 17.0625 29.5569 17.2008 29.8031 17.4469C30.0492 17.6931 30.1875 18.0269 30.1875 18.375C30.1875 18.7231 30.0492 19.0569 29.8031 19.3031C29.5569 19.5492 29.2231 19.6875 28.875 19.6875Z" fill="#FF8F27"/>
<path d="M28.875 10.5005H34.6763L27.5625 3.38672V9.18797C27.5625 9.53607 27.7008 9.86991 27.9469 10.116C28.1931 10.3622 28.5269 10.5005 28.875 10.5005Z" fill="#FF8F27"/>
</svg>
