<svg width="24" height="24" viewBox="0 0 24 24" fill="none" xmlns="http://www.w3.org/2000/svg">
<path d="M11.4334 15.0002C11.5638 15.0236 11.6981 14.9948 11.8073 14.9198C11.9164 14.8449 11.9916 14.7299 12.0166 14.5998C12.0496 14.4299 12.0665 14.2573 12.0672 14.0842C12.0672 12.9011 11.3252 11.8741 10.2466 11.3744C10.4828 11.1674 10.6722 10.9124 10.802 10.6264C10.9319 10.3404 10.9991 10.03 10.9994 9.71594C10.9994 8.48969 9.99016 7.49219 8.74937 7.49219C7.50859 7.49219 6.49937 8.48969 6.49937 9.71594C6.49967 10.0329 6.56819 10.346 6.70027 10.6341C6.83236 10.9222 7.02491 11.1785 7.26484 11.3856C6.1975 11.8886 5.46484 12.9095 5.46484 14.0852C5.46586 14.2574 5.48265 14.4292 5.515 14.5984C5.53632 14.7132 5.59708 14.817 5.68679 14.8917C5.7765 14.9664 5.8895 15.0074 6.00625 15.0077C6.03677 15.0078 6.06723 15.005 6.09719 14.9992C6.1618 14.9873 6.22343 14.9628 6.27856 14.9271C6.3337 14.8914 6.38125 14.8451 6.41851 14.791C6.45578 14.7369 6.48201 14.676 6.49573 14.6117C6.50944 14.5475 6.51036 14.4812 6.49844 14.4166C6.47718 14.3073 6.46588 14.1964 6.46469 14.0852C6.46469 12.9639 7.49594 12.0522 8.76672 12.0522C10.0375 12.0522 11.0683 12.9639 11.0683 14.0852C11.0672 14.1963 11.0559 14.3071 11.0345 14.4161C11.0223 14.4806 11.0229 14.547 11.0364 14.6113C11.0498 14.6756 11.0758 14.7366 11.1129 14.7908C11.1499 14.8451 11.1973 14.8915 11.2523 14.9274C11.3073 14.9633 11.3689 14.9881 11.4334 15.0002ZM8.74937 8.49391C9.43844 8.49391 9.99953 9.04328 9.99953 9.71781C9.99953 10.3923 9.43703 10.9422 8.74937 10.9422C8.06172 10.9422 7.49922 10.3919 7.49922 9.71687C7.49922 9.04187 8.06172 8.49297 8.74937 8.49297V8.49391ZM17.7203 8.31859L14.417 11.5417L13.2648 10.3881C13.1703 10.2981 13.0444 10.2487 12.9139 10.2502C12.7834 10.2518 12.6587 10.3043 12.5664 10.3966C12.4741 10.4888 12.4215 10.6135 12.4198 10.744C12.4182 10.8745 12.4676 11.0004 12.5575 11.095L14.4095 12.947L18.4197 9.03437C18.4667 8.98855 18.5042 8.93391 18.5301 8.87358C18.556 8.81326 18.5697 8.74842 18.5705 8.68278C18.5714 8.61714 18.5593 8.55198 18.5349 8.49102C18.5105 8.43006 18.4744 8.3745 18.4286 8.3275C18.3828 8.2805 18.3281 8.24299 18.2678 8.21711C18.2075 8.19122 18.1426 8.17747 18.077 8.17665C18.0114 8.17582 17.9462 8.18793 17.8852 8.21229C17.8243 8.23664 17.7687 8.27276 17.7217 8.31859H17.7203Z" fill="black"/>
<path d="M20.5003 8.50031C20.6329 8.50019 20.76 8.44744 20.8537 8.35365C20.9474 8.25987 21 8.13272 21 8.00016V6.50016C20.9995 5.96992 20.7887 5.46153 20.4138 5.08655C20.0389 4.71156 19.5306 4.50062 19.0003 4.5H5.00016C4.46987 4.50062 3.96148 4.71155 3.58652 5.08652C3.21155 5.46148 3.00062 5.96987 3 6.50016V16.0003C3.00062 16.5306 3.21156 17.0389 3.58655 17.4138C3.96153 17.7887 4.46992 17.9995 5.00016 18H8.85047C8.91622 17.9999 8.98135 18.0128 9.04209 18.038C9.10283 18.0632 9.15798 18.1001 9.20438 18.1467L11.2927 20.235C11.3855 20.3279 11.4958 20.4016 11.6172 20.4519C11.7386 20.5021 11.8686 20.528 12 20.528C12.1314 20.528 12.2614 20.5021 12.3828 20.4519C12.5042 20.4016 12.6145 20.3279 12.7073 20.235L14.7956 18.1467C14.8895 18.0532 15.0165 18.0005 15.1491 18H19.0003C19.5305 17.9994 20.0387 17.7885 20.4136 17.4136C20.7885 17.0387 20.9994 16.5305 21 16.0003V10.5C20.996 10.3701 20.9416 10.2468 20.8483 10.1563C20.755 10.0658 20.6301 10.0152 20.5001 10.0152C20.3701 10.0152 20.2452 10.0658 20.1519 10.1563C20.0585 10.2468 20.0041 10.3701 20.0002 10.5V16.0003C19.9998 16.2654 19.8943 16.5195 19.7069 16.7069C19.5195 16.8943 19.2654 16.9998 19.0003 17.0002H15.1491C14.9522 16.9994 14.7571 17.0377 14.5751 17.1127C14.3932 17.1878 14.2278 17.2982 14.0887 17.4375L12 19.5281L9.91125 17.4375C9.77225 17.2978 9.60692 17.1871 9.42484 17.1117C9.24276 17.0363 9.04754 16.9977 8.85047 16.9983H5.00016C4.73506 16.998 4.48089 16.8926 4.29343 16.7052C4.10598 16.5177 4.00056 16.2635 4.00031 15.9984V6.50016C4.00056 6.23506 4.10598 5.98089 4.29343 5.79343C4.48089 5.60598 4.73506 5.50056 5.00016 5.50031H19.0003C19.2654 5.50068 19.5195 5.60614 19.7069 5.79357C19.8943 5.981 19.9998 6.2351 20.0002 6.50016V8.00016C20.0002 8.13281 20.0529 8.26002 20.1466 8.35382C20.2404 8.44762 20.3677 8.50031 20.5003 8.50031Z" fill="black"/>
</svg>
