<svg width="24" height="25" viewBox="0 0 24 25" fill="none" xmlns="http://www.w3.org/2000/svg">
<path d="M20.6286 16.4989C20.5508 16.4052 20.4744 16.3114 20.3994 16.2209C19.3682 14.9736 18.7443 14.2208 18.7443 10.6897C18.7443 8.86156 18.3069 7.36156 17.4449 6.23656C16.8093 5.40547 15.95 4.775 14.8175 4.30906C14.803 4.30096 14.79 4.29032 14.7791 4.27766C14.3718 2.91359 13.2571 2 11.9999 2C10.7427 2 9.62849 2.91359 9.22114 4.27625C9.21027 4.28845 9.19744 4.29875 9.18318 4.30672C6.54036 5.39469 5.25599 7.48203 5.25599 10.6883C5.25599 14.2208 4.63302 14.9736 3.60083 16.2195C3.52583 16.31 3.44943 16.4019 3.37161 16.4975C3.17061 16.7399 3.04326 17.0348 3.00464 17.3473C2.96601 17.6598 3.01772 17.9769 3.15365 18.2609C3.44286 18.8703 4.05927 19.2486 4.76286 19.2486H19.2421C19.9424 19.2486 20.5546 18.8708 20.8447 18.2642C20.9813 17.9801 21.0335 17.6628 20.9952 17.3499C20.9569 17.037 20.8297 16.7417 20.6286 16.4989ZM11.9999 23C12.6773 22.9995 13.3418 22.8156 13.9232 22.4679C14.5045 22.1202 14.9809 21.6217 15.3018 21.0252C15.3169 20.9966 15.3244 20.9646 15.3234 20.9322C15.3225 20.8999 15.3133 20.8684 15.2966 20.8407C15.2799 20.813 15.2563 20.7901 15.2281 20.7742C15.2 20.7583 15.1682 20.75 15.1358 20.75H8.86489C8.83252 20.7499 8.80066 20.7582 8.77243 20.774C8.7442 20.7899 8.72055 20.8128 8.7038 20.8405C8.68704 20.8682 8.67774 20.8997 8.67681 20.9321C8.67588 20.9645 8.68335 20.9965 8.69849 21.0252C9.01936 21.6216 9.49567 22.1201 10.0769 22.4678C10.6581 22.8155 11.3226 22.9994 11.9999 23Z" fill="url(#paint0_linear_2294_18121)"/>
<defs>
<linearGradient id="paint0_linear_2294_18121" x1="2.99219" y1="12.5" x2="21.0074" y2="12.5" gradientUnits="userSpaceOnUse">
<stop stop-color="#123499"/>
<stop offset="1" stop-color="#2A57DE"/>
</linearGradient>
</defs>
</svg>
