<svg width="36" height="35" viewBox="0 0 36 35" fill="none" xmlns="http://www.w3.org/2000/svg">
<path d="M26.1241 22.1681C25.9923 22.1716 25.8659 22.2199 25.7669 22.3046C24.1198 23.7105 22.1028 24.643 19.9416 24.9978C19.8581 25.0117 19.779 25.0437 19.71 25.0914C19.641 25.1391 19.584 25.2013 19.5431 25.2734C19.5023 25.3455 19.4786 25.4256 19.474 25.5078C19.4694 25.59 19.4839 25.6721 19.5164 25.7481L22.9117 33.615C22.9553 33.7144 23.0283 33.7989 23.1213 33.8581C23.2143 33.9172 23.3232 33.9483 23.4343 33.9474C23.5454 33.9465 23.6538 33.9137 23.7458 33.8531C23.8378 33.7925 23.9093 33.7068 23.9513 33.6068L25.5075 29.8345L29.4449 31.3703C29.5478 31.4097 29.6604 31.4189 29.7686 31.3965C29.8768 31.3742 29.9759 31.3214 30.0534 31.2447C30.1309 31.168 30.1835 31.0708 30.2046 30.9652C30.2257 30.8596 30.2144 30.7503 30.172 30.651L26.6577 22.503C26.6137 22.4015 26.5392 22.3152 26.4441 22.2555C26.3489 22.1958 26.2373 22.1653 26.1241 22.1681ZM9.33485 22.5092L5.82265 30.6531C5.77997 30.7526 5.76848 30.8622 5.78961 30.9681C5.81074 31.074 5.86356 31.1715 5.94144 31.2483C6.01932 31.3251 6.11879 31.3779 6.22739 31.3999C6.33599 31.422 6.44887 31.4124 6.55188 31.3724L10.4872 29.8345L12.0434 33.6068C12.2326 34.0615 12.8896 34.0656 13.0852 33.615L16.4825 25.7399C16.5151 25.6639 16.5296 25.5817 16.5249 25.4995C16.5203 25.4174 16.4967 25.3372 16.4558 25.2651C16.415 25.1931 16.3579 25.1308 16.2889 25.0831C16.22 25.0354 16.1408 25.0034 16.0573 24.9896C13.8953 24.6393 11.8761 23.7111 10.2257 22.3087C10.1585 22.2515 10.0782 22.2107 9.99162 22.1895C9.905 22.1684 9.81445 22.1676 9.72744 22.1872C9.64043 22.2068 9.55946 22.2462 9.4912 22.3022C9.42294 22.3581 9.36935 22.4291 9.33485 22.5092Z" fill="#FF5757"/>
<path d="M17.9978 1.09375C10.8586 1.09375 5.05664 6.73244 5.05664 13.6733C5.05664 20.6142 10.8564 26.2488 17.9956 26.2488C25.1348 26.2488 30.9346 20.6142 30.9346 13.6733C30.9346 6.73244 25.137 1.09375 17.9978 1.09375Z" fill="#FFCB3C"/>
<path d="M17.9972 3.82629C15.3122 3.82902 12.7381 4.86749 10.8399 6.71369C8.94179 8.5599 7.87474 11.063 7.87305 13.6733C7.87305 19.1033 12.4121 23.5162 17.9972 23.5162C23.5823 23.5162 28.1213 19.1033 28.1213 13.6733C28.1202 11.0626 27.0534 8.55901 25.1552 6.71236C23.257 4.86571 20.6825 3.82902 17.9972 3.82629Z" fill="#FFEA54"/>
<path d="M17.9946 7.38999C17.8869 7.39767 17.7838 7.43527 17.6975 7.49829C17.6112 7.56132 17.5453 7.64713 17.5077 7.74551L16.0195 11.5839L11.7951 11.7079C11.6805 11.7123 11.5701 11.7505 11.4785 11.8176C11.3869 11.8846 11.3185 11.9772 11.2825 12.083C11.2464 12.1888 11.2444 12.3028 11.2768 12.4097C11.3091 12.5166 11.3742 12.6114 11.4634 12.6814L14.7524 15.2527L13.5746 19.1924C13.5427 19.2999 13.5454 19.4143 13.5824 19.5203C13.6194 19.6262 13.6889 19.7186 13.7815 19.785C13.8741 19.8514 13.9854 19.8887 14.1005 19.8917C14.2155 19.8948 14.3288 19.8635 14.425 19.8021L17.9499 17.5491L21.443 19.8579C21.5383 19.9205 21.6509 19.9531 21.7658 19.9516C21.8808 19.9501 21.9925 19.9144 22.0859 19.8494C22.1794 19.7844 22.2502 19.6931 22.2888 19.5879C22.3274 19.4827 22.332 19.3684 22.3019 19.2606L21.1943 15.2982L24.5279 12.7868C24.6194 12.7186 24.6872 12.6247 24.7221 12.5178C24.757 12.411 24.7573 12.2962 24.723 12.1892C24.6887 12.0821 24.6214 11.9878 24.5303 11.9192C24.4391 11.8505 24.3284 11.8106 24.2132 11.805L19.9909 11.6149L18.5622 7.74964C18.5209 7.63756 18.4431 7.54162 18.3407 7.47635C18.2383 7.41108 18.1168 7.38211 17.9946 7.38999Z" fill="#FEAA2B"/>
</svg>
