<svg width="36" height="36" viewBox="0 0 36 36" fill="none" xmlns="http://www.w3.org/2000/svg">
<g clip-path="url(#clip0_3039_22191)">
<path d="M35.6584 19.4406C36.1138 18.5385 36.1138 17.4615 35.6584 16.5593L35.1868 15.6252C35.0842 15.4228 35.0478 15.1934 35.0828 14.9692L35.2427 13.9351C35.3971 12.9364 35.0643 11.912 34.3523 11.1948L33.6152 10.4521C33.455 10.2914 33.3495 10.0844 33.3136 9.86034L33.1461 8.82736C32.9861 7.84093 32.3653 6.97785 31.4824 6.51199L30.5754 5.97708C30.5579 5.96674 30.5401 5.9569 30.5219 5.94762C30.32 5.84428 30.1557 5.67998 30.0524 5.47803L29.5738 4.54744C29.1226 3.66987 28.2025 3.0209 27.1725 2.85382L26.1396 2.68632C25.9156 2.6504 25.7086 2.54494 25.5478 2.38487L24.8051 1.64758C24.0879 0.935681 23.0638 0.603076 22.065 0.757213L21.0308 0.917047C20.8066 0.952143 20.5771 0.915806 20.3748 0.813187L19.4406 0.341562C18.5386 -0.113819 17.4615 -0.113889 16.5595 0.341562L15.6252 0.813187C15.4229 0.915701 15.1934 0.952056 14.9693 0.917117L13.9351 0.757284C12.9362 0.602795 11.9121 0.935752 11.1949 1.64765L10.4521 2.3848C10.2914 2.54492 10.0844 2.65041 9.86038 2.68632L8.82733 2.85382C7.79745 3.0209 6.87734 3.6698 6.42611 4.54744L5.94759 5.47803C5.84421 5.67997 5.67989 5.84426 5.47793 5.94762L4.54727 6.4262C3.6697 6.87743 3.02073 7.79755 2.85373 8.82743L2.68616 9.86048C2.65026 10.0845 2.54477 10.2915 2.38463 10.4522L1.64756 11.1949C0.935655 11.9121 0.602839 12.9364 0.757187 13.9351L0.917091 14.9693C0.952178 15.1934 0.915816 15.4229 0.813161 15.6252L0.341536 16.5593C-0.113845 17.4614 -0.113845 18.5385 0.341536 19.4406L0.813161 20.3747C0.915757 20.5771 0.952116 20.8065 0.917091 21.0307L0.757187 22.0649C0.602839 23.0636 0.935725 24.0879 1.64756 24.8051L2.38477 25.5478C2.54493 25.7086 2.65042 25.9156 2.6863 26.1396L2.85387 27.1726C3.02087 28.2025 3.66984 29.1226 4.54741 29.5739L5.478 30.0524C5.67997 30.1557 5.84428 30.3201 5.94766 30.522L6.42618 31.4527C6.87748 32.3303 7.79759 32.9792 8.82748 33.1462L9.86045 33.3138C10.0844 33.3497 10.2914 33.4552 10.4522 33.6153L11.195 34.3525C11.9123 35.0644 12.9365 35.397 13.9351 35.2428L14.9694 35.0829C15.1935 35.0479 15.4229 35.0842 15.6252 35.1869L16.5595 35.6585C17.0063 35.8835 17.4997 36.0004 18 36C18.5003 36.0005 18.9937 35.8835 19.4406 35.6585L20.3748 35.1869C20.5771 35.0843 20.8066 35.048 21.0307 35.0829L22.0649 35.2428C23.0636 35.397 24.0879 35.0643 24.8051 34.3524L25.5478 33.6152C25.7085 33.455 25.9156 33.3495 26.1396 33.3137L27.1725 33.1461C28.159 32.9861 29.0221 32.3653 29.488 31.4824L30.0229 30.5754C30.0332 30.5578 30.0431 30.54 30.0523 30.5219C30.1557 30.32 30.32 30.1557 30.5219 30.0523L31.4525 29.5738C32.3512 29.1117 32.9843 28.2403 33.1461 27.2428L33.3136 26.2099C33.3496 25.9859 33.455 25.7788 33.6152 25.6181C33.8673 25.3411 34.1192 25.0639 34.3708 24.7864C35.07 24.0701 35.3958 23.0549 35.2427 22.0649L35.0828 21.0307C35.0478 20.8066 35.0841 20.5771 35.1867 20.3747L35.6584 19.4406Z" fill="url(#paint0_linear_3039_22191)"/>
<path d="M17.9991 5.27344C11.0115 5.27344 5.27148 11.015 5.27148 18.001C5.27148 24.9886 11.013 30.7286 17.9991 30.7286C24.9867 30.7286 30.7267 24.9871 30.7267 18.001C30.7267 11.0134 24.9851 5.27344 17.9991 5.27344ZM25.351 15.0925L23.2415 23.5307C23.1844 23.7589 23.0527 23.9615 22.8673 24.1063C22.6819 24.2511 22.4534 24.3297 22.2182 24.3297H13.78C13.5448 24.3297 13.3163 24.2511 13.1309 24.1063C12.9455 23.9615 12.8138 23.7589 12.7567 23.5307L10.6472 15.0925C10.5871 14.8517 10.6138 14.5975 10.7226 14.3744C10.8314 14.1514 11.0154 13.9738 11.2422 13.8731C11.469 13.7723 11.7241 13.7547 11.9626 13.8234C12.2011 13.8921 12.4077 14.0427 12.5461 14.2487C12.8348 14.673 13.8789 15.8915 14.8348 15.8915C15.0094 15.8915 15.5506 15.4849 16.1081 14.228C16.6083 13.1005 16.9443 11.6496 16.9443 10.6176C16.9443 10.0351 17.4166 9.56285 17.9991 9.56285C18.5816 9.56285 19.0539 10.0351 19.0539 10.6176C19.0539 11.6496 19.3899 13.1005 19.8901 14.228C20.4476 15.4849 20.9887 15.8915 21.1634 15.8915C22.1477 15.8915 23.219 14.5957 23.4521 14.2487C23.5905 14.0426 23.7971 13.892 24.0356 13.8233C24.2741 13.7545 24.5292 13.7721 24.756 13.8728C24.9829 13.9736 25.1669 14.1512 25.2757 14.3743C25.3845 14.5974 25.4112 14.8517 25.351 15.0925Z" fill="url(#paint1_linear_3039_22191)"/>
</g>
<defs>
<linearGradient id="paint0_linear_3039_22191" x1="18" y1="36" x2="18" y2="2.57492e-05" gradientUnits="userSpaceOnUse">
<stop stop-color="#FD5900"/>
<stop offset="1" stop-color="#FFDE00"/>
</linearGradient>
<linearGradient id="paint1_linear_3039_22191" x1="17.9991" y1="30.7287" x2="17.9991" y2="5.27344" gradientUnits="userSpaceOnUse">
<stop stop-color="#FFE59A"/>
<stop offset="1" stop-color="#FFFFD5"/>
</linearGradient>
<clipPath id="clip0_3039_22191">
<rect width="36" height="36" fill="white"/>
</clipPath>
</defs>
</svg>
