<svg width="30" height="30" viewBox="0 0 30 30" fill="none" xmlns="http://www.w3.org/2000/svg">
<path d="M11.4252 14.125C11.9095 14.125 12.3036 14.5196 12.3036 15.0045C12.3036 15.4893 11.9095 15.8839 11.4252 15.8839C10.941 15.8839 10.5469 15.4893 10.5469 15.0045C10.5469 14.5196 10.941 14.125 11.4252 14.125Z" fill="#2AA1BF"/>
<path d="M12.3053 10.6895V12.5117C12.0233 12.4113 11.7262 12.3602 11.4269 12.3605C9.97413 12.3605 8.79186 13.5442 8.79186 14.9989C8.79186 16.4535 9.97413 17.6372 11.4269 17.6372C11.7349 17.6372 12.0306 17.5839 12.3053 17.486V19.3082C12.0178 19.3668 11.7238 19.3962 11.4269 19.3962C9.0056 19.3962 7.03516 17.4232 7.03516 14.9989C7.03516 12.5745 9.0056 10.6016 11.4269 10.6016C11.7238 10.6016 12.0178 10.6309 12.3053 10.6895Z" fill="#2AA1BF"/>
<path d="M5.27598 15.0033C5.27598 18.398 8.03401 21.1595 11.4245 21.1595C11.7202 21.1595 12.0135 21.139 12.3028 21.0968V26.4362H9.66775C9.1829 26.4362 8.7894 26.0422 8.7894 25.5568V24.3115C8.0709 24.1069 7.37818 23.8172 6.71824 23.4461L5.83462 24.3314C5.49147 24.675 4.93577 24.675 4.59262 24.3314L2.10805 21.8437C1.76479 21.5 1.76614 20.9425 2.10805 20.6002L2.99226 19.7148C2.62359 19.0603 2.33348 18.3644 2.12796 17.6417H0.884213C0.399362 17.6417 0.00585938 17.2477 0.00585938 16.7622V13.2444C0.00585938 12.7589 0.399362 12.3649 0.884213 12.3649H2.12796C2.33233 11.6455 2.62101 10.9519 2.99226 10.2911L2.10805 9.4064C1.76614 9.06406 1.76479 8.50654 2.10805 8.16285L4.59262 5.67515C4.93577 5.33158 5.49147 5.33158 5.83462 5.67515L6.71882 6.56047C7.37255 6.19134 8.06757 5.90086 8.7894 5.69509V4.44977C8.7894 3.96431 9.1829 3.57031 9.66775 3.57031H12.3028V8.9098C12.0135 8.86759 11.7202 8.84707 11.4245 8.84707C8.03401 8.84707 5.27598 11.6086 5.27598 15.0033ZM24.7169 4.08509V8.84707H29.4729L24.7169 4.08509ZM16.6946 8.84707H20.3251C20.81 8.84707 21.2035 9.24106 21.2035 9.72653C21.2035 10.212 20.81 10.606 20.3251 10.606H16.6946C16.2097 10.606 15.8162 10.212 15.8162 9.72653C15.8162 9.24106 16.2097 8.84707 16.6946 8.84707ZM25.5952 21.1595H16.6946C16.2097 21.1595 15.8162 20.7655 15.8162 20.28C15.8162 19.7946 16.2097 19.4006 16.6946 19.4006H25.5952C26.0801 19.4006 26.4736 19.7946 26.4736 20.28C26.4736 20.7655 26.0801 21.1595 25.5952 21.1595ZM25.5952 17.6417H16.6946C16.2097 17.6417 15.8162 17.2477 15.8162 16.7622C15.8162 16.2767 16.2097 15.8827 16.6946 15.8827H25.5952C26.0801 15.8827 26.4736 16.2767 26.4736 16.7622C26.4736 17.2477 26.0801 17.6417 25.5952 17.6417ZM25.5952 14.1238H16.6946C16.2097 14.1238 15.8162 13.7298 15.8162 13.2444C15.8162 12.7589 16.2097 12.3649 16.6946 12.3649H25.5952C26.0801 12.3649 26.4736 12.7589 26.4736 13.2444C26.4736 13.7298 26.0801 14.1238 25.5952 14.1238ZM23.8385 10.606C23.3537 10.606 22.9602 10.212 22.9602 9.72653V3.57031H14.0595V26.4362H29.1087C29.5935 26.4362 29.987 26.0422 29.987 25.5568V10.606H23.8385Z" fill="#2AA1BF"/>
</svg>
