<svg width="76" height="76" viewBox="0 0 76 76" fill="none" xmlns="http://www.w3.org/2000/svg">
<g clip-path="url(#clip0_2011_1026)">
<path d="M59.7467 67.109L47.0239 69.5527L43.709 58.1503L47.0239 46.748H49.6021C49.6021 46.748 59.7467 51.016 59.7467 67.109Z" fill="#77718C"/>
<path d="M28.9766 46.748L32.2916 58.1503L28.9766 69.5527L16.2539 67.109C16.2539 51.016 26.3984 46.748 26.3984 46.748H28.9766Z" fill="#77718C"/>
<path d="M47.0239 46.748V69.5526L38.0002 71.5222L28.9766 69.5526V46.748H47.0239Z" fill="#EAEAEA"/>
<path d="M32.291 70.2751L35.0233 53.3418H40.9761L43.7084 70.2751H32.291Z" fill="#FC5C70"/>
<path d="M34.3613 48.2773V53.1654C34.3613 55.1744 35.9899 56.8031 37.9991 56.8031C40.0083 56.8031 41.6369 55.1745 41.6369 53.1654V48.2773H34.3613Z" fill="#FF6F7F"/>
<path d="M9.11523 28.949C9.11523 13.0221 22.0729 0.0644531 37.9998 0.0644531C53.9268 0.0644531 66.8846 13.0221 66.8846 28.949H9.11523Z" fill="#77718C"/>
<path d="M19.3538 27.9493C19.3538 14.8039 28.0986 3.70267 40.0875 0.140453C39.3978 0.0909078 38.7019 0.0644531 37.9998 0.0644531C22.0729 0.0644531 9.11523 13.0221 9.11523 28.949H19.3729C19.3616 28.617 19.3538 28.2841 19.3538 27.9493Z" fill="#6A647F"/>
<path d="M61.6859 35.1569C65.1141 35.1569 67.8933 32.3778 67.8933 28.9496C67.8933 25.5213 65.1141 22.7422 61.6859 22.7422C58.2577 22.7422 55.4785 25.5213 55.4785 28.9496C55.4785 32.3778 58.2577 35.1569 61.6859 35.1569Z" fill="#FFBD86"/>
<path d="M53.9793 11.6752C52.2074 10.0354 49.6904 9.50082 47.3736 10.1801C44.5865 10.9971 41.3933 11.4611 37.9994 11.4611C34.6056 11.4611 31.4123 10.997 28.6253 10.1801C26.3084 9.50098 23.7916 10.0354 22.0195 11.6752C17.375 15.9735 14.4668 22.121 14.4668 28.9484C14.4668 41.945 25.0027 50.9517 37.9993 50.9517C50.9959 50.9517 61.5317 41.945 61.5317 28.9484C61.5319 22.121 58.6239 15.9735 53.9793 11.6752Z" fill="#FED2A4"/>
<path d="M56.0443 26.8756C56.0443 30.6963 52.9365 33.8057 49.1159 33.8057C45.2952 33.8057 42.1875 30.6963 42.1875 26.8756C42.1875 23.055 45.2952 19.9473 49.1159 19.9473C52.9365 19.9474 56.0443 23.055 56.0443 26.8756Z" fill="#FFD7B6"/>
<path d="M34.2 26.8745C34.2 30.9089 30.9184 34.1922 26.8841 34.1922C22.8499 34.1922 19.5664 30.9089 19.5664 26.8745C19.5664 22.8401 22.8497 19.5586 26.8841 19.5586C30.9186 19.5586 34.2 22.8401 34.2 26.8745Z" fill="#FFD7B6"/>
<path d="M27.0551 25.0195C26.4217 25.0195 25.9082 25.533 25.9082 26.1664V28.2695C25.9082 28.9029 26.4217 29.4164 27.0551 29.4164C27.6885 29.4164 28.202 28.9029 28.202 28.2695V26.1664C28.202 25.533 27.6885 25.0195 27.0551 25.0195Z" fill="#423E4F"/>
<path d="M48.9438 25.0195C48.3102 25.0195 47.7969 25.533 47.7969 26.1664V28.2695C47.7969 28.9029 48.3102 29.4164 48.9438 29.4164C49.5773 29.4164 50.0906 28.9029 50.0906 28.2695V26.1664C50.0906 25.533 49.5771 25.0195 48.9438 25.0195Z" fill="#423E4F"/>
<path d="M41.27 31.8038C40.7921 31.3875 40.0677 31.4374 39.6518 31.915C39.2345 32.3939 38.632 32.6685 37.9988 32.6685C37.3655 32.6685 36.763 32.3939 36.3456 31.915C35.9293 31.4374 35.2051 31.3877 34.7274 31.8038C34.2498 32.2199 34.2001 32.9442 34.6162 33.4218C35.4694 34.4008 36.7022 34.9623 37.9986 34.9623C39.295 34.9623 40.5277 34.4009 41.3808 33.4218C41.7972 32.9444 41.7474 32.2199 41.27 31.8038Z" fill="#423E4F"/>
<path d="M28.7244 49.2966C22.9644 43.9953 19.3544 36.3941 19.3544 27.9487C19.3544 21.1583 21.6883 14.9133 25.5967 9.9707C24.2795 10.1678 23.0293 10.7417 22.0205 11.6753C18.8175 14.6394 16.4408 18.4833 15.2737 22.8226C14.9748 22.7697 14.6561 22.741 14.3148 22.741C10.8865 22.741 8.10742 25.5201 8.10742 28.9485C8.10742 32.3768 10.8865 35.1559 14.3148 35.1559C14.6676 35.1559 14.996 35.1249 15.3037 35.0684C17.2059 41.7632 22.205 46.8333 28.7244 49.2966Z" fill="#FFBD86"/>
<path d="M49.115 18.25C44.8242 18.25 41.2566 21.4001 40.5991 25.5075C39.7794 25.1726 38.8956 24.9952 37.9995 24.9952C37.1018 24.9952 36.218 25.1726 35.3983 25.5075C34.7408 21.4001 31.1732 18.25 26.8839 18.25C22.1282 18.25 18.2578 22.1188 18.2578 26.8745C18.2578 31.6303 22.1282 35.5006 26.8839 35.5006C31.2283 35.5006 34.831 32.2695 35.4213 28.0841C36.1782 27.5688 37.0774 27.289 37.9995 27.289C38.92 27.289 39.8207 27.5688 40.5761 28.0841C41.1664 32.2695 44.7691 35.5006 49.115 35.5006C53.8708 35.5006 57.7396 31.6303 57.7396 26.8745C57.7396 22.1188 53.8708 18.25 49.115 18.25ZM26.8839 33.2069C23.3928 33.2069 20.5516 30.3656 20.5516 26.8745C20.5516 23.3834 23.3928 20.5438 26.8839 20.5438C30.375 20.5438 33.2147 23.3834 33.2147 26.8745C33.2147 30.3656 30.375 33.2069 26.8839 33.2069ZM49.115 33.2069C45.6239 33.2069 42.7842 30.3656 42.7842 26.8745C42.7842 23.3834 45.6239 20.5438 49.115 20.5438C52.6061 20.5438 55.4458 23.3834 55.4458 26.8745C55.4458 30.3656 52.6061 33.2069 49.115 33.2069Z" fill="#423E4F"/>
<path d="M49.6234 58.4648C46.5727 58.4648 44.0996 60.938 44.0996 63.9887C44.0996 65.7116 45.4964 67.1084 47.2193 67.1084L49.6234 69.3183L52.0276 67.1084C53.7505 67.1084 55.1473 65.7116 55.1473 63.9887C55.1473 60.938 52.6742 58.4648 49.6234 58.4648Z" fill="#FED2A4"/>
<path d="M26.3774 58.4648C29.4281 58.4648 31.9012 60.938 31.9012 63.9887C31.9012 65.7116 30.5045 67.1084 28.7815 67.1084L26.3774 69.3183L23.9732 67.1084C22.2503 67.1084 20.8535 65.7116 20.8535 63.9887C20.8535 60.938 23.3267 58.4648 26.3774 58.4648Z" fill="#FED2A4"/>
<path d="M72.1241 67.1074H3.87585C1.73531 67.1074 0 68.8427 0 70.9833V73.4125C0 74.8052 1.12899 75.9341 2.52161 75.9341H73.4784C74.871 75.9341 76 74.8052 76 73.4125V70.9833C76 68.8427 74.2647 67.1074 72.1241 67.1074Z" fill="#E8A882"/>
<path d="M12.1663 67.1074H3.87585C1.73531 67.1074 0 68.8427 0 70.9833V73.4125C0 74.8052 1.12899 75.9341 2.52161 75.9341H16.1912C14.1819 73.4176 12.7686 70.4043 12.1663 67.1074Z" fill="#E3986D"/>
</g>
<defs>
<clipPath id="clip0_2011_1026">
<rect width="76" height="76" fill="white"/>
</clipPath>
</defs>
</svg>
