<svg width="30" height="30" viewBox="0 0 30 30" fill="none" xmlns="http://www.w3.org/2000/svg">
<g clip-path="url(#clip0_2019_369)">
<path d="M14.937 11.0173C15.1798 11.0173 15.3765 10.8206 15.3765 10.5779V9.67307C15.3765 9.43031 15.1798 9.23361 14.937 9.23361C14.6943 9.23361 14.4976 9.43031 14.4976 9.67307V10.5779C14.4976 10.8206 14.6943 11.0173 14.937 11.0173ZM12.3735 25.1074C12.2569 25.1074 12.1451 25.1537 12.0627 25.2361C11.9803 25.3185 11.934 25.4303 11.934 25.5469C11.934 25.6634 11.9803 25.7752 12.0627 25.8576C12.1451 25.94 12.2569 25.9863 12.3735 25.9863C12.49 25.9863 12.6018 25.94 12.6842 25.8576C12.7666 25.7752 12.8129 25.6634 12.8129 25.5469C12.8129 25.4303 12.7666 25.3185 12.6842 25.2361C12.6018 25.1537 12.49 25.1074 12.3735 25.1074ZM28.3863 22.8158H28.1742C28.1099 21.7849 27.798 20.7851 27.2616 19.9028C27.2316 19.8535 27.1922 19.8105 27.1456 19.7764C27.099 19.7423 27.0462 19.7178 26.9901 19.7041C26.9341 19.6904 26.8759 19.6879 26.8188 19.6968C26.7618 19.7056 26.7071 19.7256 26.6578 19.7556C26.6084 19.7856 26.5655 19.825 26.5314 19.8715C26.4973 19.9181 26.4728 19.9709 26.4591 20.027C26.4454 20.0831 26.4429 20.1413 26.4518 20.1983C26.4606 20.2553 26.4806 20.3101 26.5106 20.3594C26.9633 21.1041 27.2309 21.9462 27.2938 22.8158H16.3105C16.5159 19.9656 18.9005 17.7094 21.8021 17.7094C23.0662 17.7094 24.255 18.126 25.2398 18.9142C25.331 18.9848 25.4463 19.0167 25.5608 19.003C25.6753 18.9894 25.7799 18.9313 25.852 18.8413C25.924 18.7512 25.9578 18.6365 25.946 18.5217C25.9342 18.407 25.8778 18.3015 25.789 18.228C25.1259 17.6973 24.3619 17.3084 23.551 17.0771C23.5815 16.945 23.598 16.8091 23.598 16.6718C23.598 15.6812 22.7923 14.8753 21.8021 14.8753C20.8119 14.8753 20.0063 15.6812 20.0063 16.6718C20.0063 16.8082 20.0225 16.943 20.0526 17.0743C19.4353 17.2508 18.8483 17.5198 18.3116 17.8722L16.054 17.1141C15.8997 17.0626 15.7655 16.9639 15.6703 16.832C15.5752 16.7 15.524 16.5415 15.5239 16.3788V16.0119C17.2672 14.9489 18.4333 13.032 18.4333 10.8483V10.3543C19.2499 10.3269 19.9058 9.65438 19.9058 8.83125C19.9058 8.00813 19.2499 7.33564 18.4333 7.30816V3.03211C18.4333 1.3602 17.0704 0 15.3952 0H9.35174C7.67654 0 6.31365 1.3602 6.31365 3.03211V7.30811C5.49709 7.33559 4.84113 8.00807 4.84113 8.83119C4.84113 9.65432 5.49709 10.3268 6.31365 10.3543V10.8482C6.31365 13.032 7.47978 14.9489 9.22318 16.0119V16.3787C9.22309 16.5414 9.17185 16.6999 9.07671 16.8319C8.98157 16.9639 8.84735 17.0626 8.69303 17.1141L3.404 18.89C1.73596 19.4497 0.615234 21.006 0.615234 22.7626V29.5605C0.615234 29.8033 0.811934 30 1.05469 30C1.29744 30 1.49414 29.8033 1.49414 29.5605V22.7625C1.49414 21.3841 2.37404 20.1626 3.68367 19.7232L4.5324 19.4382C4.91818 20.024 5.48549 21.1477 5.39209 22.5901C5.32043 23.7008 4.88772 24.5584 4.53791 25.0813C4.35864 25.3471 4.26298 25.6604 4.26322 25.9811V29.5605C4.26322 29.8033 4.45992 30 4.70268 30C4.94543 30 5.14213 29.8033 5.14213 29.5605V25.9811C5.14213 25.8349 5.18531 25.6934 5.26775 25.5709C5.67814 24.9575 6.18492 23.9522 6.26918 22.6467C6.36897 21.1054 5.82797 19.8761 5.38951 19.1505L6.29795 18.8456C7.34608 22.2197 9.2947 25.2439 11.934 27.5928V29.5605C11.934 29.8033 12.1307 30 12.3735 30C12.6162 30 12.8129 29.8033 12.8129 29.5605V27.5922C13.4294 27.043 14.0104 26.4552 14.5524 25.8323C14.7292 25.9913 14.9621 26.0889 15.218 26.0889H19.1596V26.327C19.1596 26.7369 19.3307 27.1073 19.6049 27.3715V29.5605C19.6049 29.8033 19.8016 30 20.0443 30C20.2871 30 20.4838 29.8033 20.4838 29.5605V27.7724C20.6759 27.7909 23.1687 27.7699 23.253 27.7546V29.5605C23.253 29.8033 23.4497 30 23.6924 30C23.9352 30 24.1319 29.8033 24.1319 29.5605V27.2255C24.3347 26.9699 24.4449 26.6533 24.4447 26.3271V26.0889H28.3864C28.9366 26.0889 29.3842 25.6413 29.3842 25.0911V23.8143C29.3842 23.2637 28.9365 22.8158 28.3863 22.8158ZM21.8021 15.7541C22.3078 15.7541 22.7191 16.1657 22.7191 16.6717C22.719 16.7468 22.7097 16.8216 22.6914 16.8944C22.3968 16.8523 22.0996 16.8309 21.8021 16.8305C21.5002 16.8305 21.2033 16.852 20.9125 16.8928C20.8945 16.8204 20.8853 16.7462 20.8852 16.6717C20.8852 16.1658 21.2965 15.7541 21.8021 15.7541ZM18.4333 8.18771C18.7651 8.2142 19.0269 8.4927 19.0269 8.83113C19.0269 9.16957 18.7651 9.44807 18.4333 9.47455V8.18771ZM6.31371 9.47461C5.98195 9.44812 5.7201 9.16963 5.7201 8.83119C5.7201 8.49275 5.98195 8.21426 6.31371 8.18777V9.47461ZM7.19262 10.8482V6.9368C7.83666 6.81952 8.46059 6.61062 9.04541 6.31646C9.55782 6.05873 10.0359 5.73781 10.4685 5.36121C11.1185 5.75627 11.805 6.08797 12.5184 6.35174C12.5725 6.37174 12.6301 6.38088 12.6877 6.37864C12.7454 6.3764 12.8021 6.36282 12.8545 6.33868C12.9069 6.31454 12.954 6.28031 12.9932 6.23794C13.0324 6.19557 13.0629 6.1459 13.0829 6.09176C13.1029 6.03762 13.112 5.98008 13.1098 5.92241C13.1075 5.86474 13.094 5.80808 13.0698 5.75566C13.0457 5.70324 13.0114 5.65609 12.9691 5.6169C12.9267 5.57771 12.877 5.54725 12.8229 5.52727C12.1176 5.26641 11.4408 4.93393 10.8033 4.53504C10.5483 4.37531 10.2154 4.40502 9.99375 4.60711C9.59023 4.97489 9.13831 5.28576 8.65055 5.53107C8.18865 5.76335 7.69856 5.93468 7.19256 6.04078V3.03199C7.19256 1.84471 8.16111 0.878789 9.35174 0.878789H15.3952C16.5858 0.878789 17.5544 1.84471 17.5544 3.03199V6.16313C16.6157 6.24366 15.6705 6.20326 14.742 6.04289C14.503 6.00182 14.2755 6.16189 14.2341 6.40102C14.2142 6.51586 14.2408 6.63389 14.3079 6.72915C14.3751 6.82441 14.4773 6.88909 14.5922 6.90897C15.57 7.07788 16.5652 7.12361 17.5544 7.04508V10.848C17.5544 13.6977 15.2303 16.016 12.3735 16.016C9.51674 16.0162 7.19262 13.6978 7.19262 10.8482ZM13.7539 19.2127L14.5757 18.9453V20.3126L13.7539 20.0453C13.836 19.7738 13.836 19.4841 13.7539 19.2127ZM13.2195 18.4623C12.9816 18.2894 12.6894 18.187 12.3735 18.187C12.0577 18.187 11.7654 18.2894 11.5276 18.4623L10.1679 18.0199C10.0587 17.9848 9.9423 17.9785 9.82992 18.0014L9.49019 17.6617C9.67138 17.5147 9.81934 17.3309 9.92432 17.1225C10.0293 16.9141 10.0889 16.6859 10.0992 16.4528C10.8019 16.7377 11.5696 16.8952 12.3735 16.8952C13.1775 16.8952 13.9453 16.7377 14.6479 16.4528C14.6582 16.6853 14.7176 16.9131 14.8221 17.1211C14.9266 17.3291 15.074 17.5127 15.2545 17.6597L14.9135 18.0006C14.8023 17.9786 14.6873 17.9852 14.5794 18.0199L13.2195 18.4623ZM12.9365 19.6289C12.9365 19.9393 12.6839 20.1919 12.3735 20.1919C12.063 20.1919 11.8105 19.9393 11.8105 19.6289C11.8105 19.3185 12.0631 19.0659 12.3735 19.0659C12.684 19.0659 12.9365 19.3185 12.9365 19.6289ZM10.9931 20.0452L10.1712 20.3126V18.9452L10.9931 19.2126C10.9532 19.3445 10.9315 19.4842 10.9315 19.6289C10.9315 19.7736 10.9532 19.9133 10.9931 20.0452ZM14.2201 23.8143V24.8647C13.652 25.5556 13.0348 26.2046 12.3732 26.8065C9.92101 24.5772 8.11094 21.7316 7.13127 18.5657L8.64346 18.0579L9.29238 18.7068V20.6022C9.29238 20.8155 9.39551 21.0178 9.56818 21.1431C9.65363 21.205 9.75246 21.2458 9.85664 21.2623C9.96081 21.2788 10.0674 21.2704 10.1678 21.238L11.5276 20.7956C11.7654 20.9685 12.0577 21.0708 12.3735 21.0708C12.6893 21.0708 12.9816 20.9685 13.2194 20.7956L14.5791 21.2381C14.781 21.3037 15.0057 21.2689 15.1788 21.1432C15.2641 21.0811 15.3335 20.9997 15.3814 20.9057C15.4293 20.8117 15.4544 20.7078 15.4546 20.6023V18.7025L16.1003 18.0568L17.4806 18.5204C16.3049 19.6035 15.5353 21.121 15.43 22.8158H15.2179C14.6678 22.8158 14.2201 23.2637 14.2201 23.8143ZM23.5658 26.327C23.5658 26.6426 23.309 26.8994 22.9934 26.8994H20.6109C20.2952 26.8994 20.0385 26.6426 20.0385 26.327V25.2199H23.5657V26.327H23.5658ZM28.5053 25.091C28.5053 25.1566 28.4519 25.21 28.3863 25.21H24.4447C24.46 24.7361 24.0727 24.3412 23.5997 24.341H20.0046C19.5316 24.3403 19.1453 24.7363 19.1596 25.21H15.218C15.1864 25.2099 15.1562 25.1974 15.1339 25.1751C15.1116 25.1528 15.0991 25.1225 15.099 25.091V23.8143C15.099 23.7483 15.1524 23.6947 15.218 23.6947H28.3863C28.4518 23.6947 28.5052 23.7483 28.5052 23.8143V25.091H28.5053ZM12.3735 23.3496C12.2569 23.3496 12.1451 23.3959 12.0627 23.4783C11.9803 23.5607 11.934 23.6725 11.934 23.7891C11.934 23.9056 11.9803 24.0174 12.0627 24.0998C12.1451 24.1822 12.2569 24.2285 12.3735 24.2285C12.49 24.2285 12.6018 24.1822 12.6842 24.0998C12.7666 24.0174 12.8129 23.9056 12.8129 23.7891C12.8129 23.6725 12.7666 23.5607 12.6842 23.4783C12.6018 23.3959 12.49 23.3496 12.3735 23.3496ZM9.81 9.23361C9.75229 9.23361 9.69514 9.24497 9.64182 9.26705C9.5885 9.28913 9.54005 9.3215 9.49924 9.36231C9.45843 9.40312 9.42606 9.45157 9.40398 9.50489C9.3819 9.55821 9.37054 9.61535 9.37055 9.67307V10.5779C9.37055 10.8206 9.56725 11.0173 9.81 11.0173C10.0528 11.0173 10.2495 10.8206 10.2495 10.5779V9.67307C10.2495 9.55652 10.2032 9.44474 10.1207 9.36233C10.0383 9.27991 9.92655 9.23361 9.81 9.23361ZM12.3735 21.5918C12.2569 21.5918 12.1451 21.6381 12.0627 21.7205C11.9803 21.8029 11.934 21.9147 11.934 22.0312C11.934 22.1478 11.9803 22.2596 12.0627 22.342C12.1451 22.4244 12.2569 22.4707 12.3735 22.4707C12.49 22.4707 12.6018 22.4244 12.6842 22.342C12.7666 22.2596 12.8129 22.1478 12.8129 22.0312C12.8129 21.9147 12.7666 21.8029 12.6842 21.7205C12.6018 21.6381 12.49 21.5918 12.3735 21.5918ZM13.5248 12.9896C13.4915 12.9425 13.4492 12.9024 13.4004 12.8716C13.3516 12.8408 13.2972 12.8199 13.2403 12.8102C13.1835 12.8004 13.1252 12.8019 13.0689 12.8147C13.0126 12.8274 12.9594 12.8512 12.9123 12.8845C12.8154 12.9529 12.61 13.0661 12.3401 13.0566C12.0997 13.048 11.9204 12.9452 11.835 12.8847C11.7399 12.8184 11.6224 12.7924 11.5081 12.8124C11.3939 12.8323 11.2922 12.8966 11.2252 12.9913C11.1581 13.0859 11.1312 13.2032 11.1503 13.3175C11.1694 13.4319 11.2329 13.5341 11.327 13.6019C11.5202 13.7388 11.9379 13.9361 12.3731 13.9361C12.8707 13.9361 13.24 13.7292 13.4195 13.6021C13.4667 13.5688 13.5068 13.5266 13.5376 13.4778C13.5684 13.429 13.5893 13.3746 13.5991 13.3177C13.6089 13.2608 13.6073 13.2026 13.5946 13.1463C13.5818 13.09 13.5581 13.0368 13.5248 12.9896Z" fill="url(#paint0_linear_2019_369)"/>
</g>
<defs>
<linearGradient id="paint0_linear_2019_369" x1="0.615234" y1="15" x2="29.3842" y2="15" gradientUnits="userSpaceOnUse">
<stop stop-color="#123499"/>
<stop offset="1" stop-color="#2A57DE"/>
</linearGradient>
<clipPath id="clip0_2019_369">
<rect width="30" height="30" fill="white"/>
</clipPath>
</defs>
</svg>
