<svg width="24" height="24" viewBox="0 0 24 24" fill="none" xmlns="http://www.w3.org/2000/svg">
<g clip-path="url(#clip0_2139_6026)">
<path d="M19.4062 6.97266C19.6651 6.97266 19.875 6.7628 19.875 6.50391V1.40625C19.875 0.630844 19.2442 0 18.4688 0H1.40625C0.630844 0 0 0.630844 0 1.40625V22.5938C0 23.3692 0.630844 24 1.40625 24H18.4688C19.2442 24 19.875 23.3692 19.875 22.5938V19.1404C19.875 18.8815 19.6651 18.6716 19.4062 18.6716C19.1474 18.6716 18.9375 18.8815 18.9375 19.1404V22.5938C18.9375 22.8522 18.7272 23.0625 18.4688 23.0625H1.40625C1.14778 23.0625 0.9375 22.8522 0.9375 22.5938V1.40625C0.9375 1.14778 1.14778 0.9375 1.40625 0.9375H18.4688C18.7272 0.9375 18.9375 1.14778 18.9375 1.40625V6.50391C18.9375 6.7628 19.1474 6.97266 19.4062 6.97266Z" fill="black"/>
<path d="M9.93805 2.53125C7.56012 2.53125 5.62555 4.46583 5.62555 6.84375C5.62555 8.07736 6.14633 9.19148 6.97939 9.97823C6.995 9.99492 7.01159 10.0107 7.02973 10.0251C7.79712 10.7273 8.81839 11.1562 9.938 11.1562C11.0576 11.1562 12.0789 10.7272 12.8463 10.0251C12.8642 10.0107 12.881 9.99507 12.8966 9.97823C13.7298 9.19148 14.2505 8.07736 14.2505 6.84375C14.2505 4.46583 12.316 2.53125 9.93805 2.53125ZM9.93805 10.2188C9.17263 10.2188 8.46622 9.96225 7.89941 9.53119C8.31139 8.80064 9.08019 8.34375 9.93805 8.34375C10.7959 8.34375 11.5647 8.80064 11.9767 9.53119C11.4098 9.96225 10.7035 10.2188 9.93805 10.2188ZM9.18805 6.65625V6.35156C9.18805 5.93803 9.52452 5.60156 9.93805 5.60156C10.3516 5.60156 10.688 5.93803 10.688 6.35156V6.65625C10.688 7.06978 10.3516 7.40625 9.93805 7.40625C9.52452 7.40625 9.18805 7.06978 9.18805 6.65625ZM12.654 8.84452C12.3119 8.33623 11.8331 7.93493 11.2729 7.68684C11.4937 7.40152 11.6255 7.04409 11.6255 6.65625V6.35156C11.6255 5.42105 10.8686 4.66406 9.93805 4.66406C9.00753 4.66406 8.25055 5.42105 8.25055 6.35156V6.65625C8.25055 7.04409 8.38241 7.40152 8.60319 7.68684C8.04296 7.93493 7.56422 8.33623 7.22211 8.84452C6.80825 8.28422 6.56305 7.5922 6.56305 6.84375C6.56305 4.98277 8.07706 3.46875 9.93805 3.46875C11.799 3.46875 13.313 4.98277 13.313 6.84375C13.313 7.5922 13.0678 8.28422 12.654 8.84452ZM12.4693 20.5312H9.93805C9.6792 20.5312 9.4693 20.7411 9.4693 21C9.4693 21.2589 9.6792 21.4688 9.93805 21.4688H12.4693C12.7281 21.4688 12.938 21.2589 12.938 21C12.938 20.7411 12.7281 20.5312 12.4693 20.5312ZM12.4693 17.9062H5.81305C5.5542 17.9062 5.3443 18.1161 5.3443 18.375C5.3443 18.6339 5.5542 18.8438 5.81305 18.8438H12.4693C12.7281 18.8438 12.938 18.6339 12.938 18.375C12.938 18.1161 12.7281 17.9062 12.4693 17.9062ZM12.4693 15.2812H5.81305C5.5542 15.2812 5.3443 15.4911 5.3443 15.75C5.3443 16.0089 5.5542 16.2188 5.81305 16.2188H12.4693C12.7281 16.2188 12.938 16.0089 12.938 15.75C12.938 15.4911 12.7281 15.2812 12.4693 15.2812ZM4.14237 12.7936C4.05416 12.7059 3.93492 12.6566 3.81055 12.6562C3.68722 12.6562 3.56628 12.7064 3.47914 12.7936C3.39195 12.8808 3.3418 13.0017 3.3418 13.125C3.3418 13.2483 3.39191 13.3692 3.47914 13.4564C3.56729 13.5439 3.68633 13.5933 3.81055 13.5938C3.9343 13.5938 4.05477 13.5436 4.14237 13.4564C4.22956 13.3692 4.27977 13.2483 4.27977 13.125C4.27977 13.0017 4.22961 12.8808 4.14237 12.7936ZM4.14237 15.4186C4.05411 15.331 3.93491 15.2816 3.81055 15.2812C3.68722 15.2812 3.5668 15.3314 3.47914 15.4186C3.39195 15.5058 3.3418 15.6267 3.3418 15.75C3.3418 15.8733 3.39191 15.9942 3.47914 16.0814C3.56729 16.1689 3.68633 16.2183 3.81055 16.2188C3.9343 16.2188 4.05477 16.1686 4.14237 16.0814C4.22956 15.9942 4.27977 15.8733 4.27977 15.75C4.27977 15.6267 4.22961 15.5058 4.14237 15.4186ZM4.14237 18.0436C4.05411 17.956 3.93491 17.9066 3.81055 17.9062C3.68722 17.9062 3.5668 17.9564 3.47914 18.0436C3.39195 18.1308 3.3418 18.2517 3.3418 18.375C3.3418 18.4983 3.39191 18.6192 3.47914 18.7064C3.56724 18.794 3.68631 18.8434 3.81055 18.8438C3.9343 18.8438 4.05523 18.7936 4.14237 18.7064C4.22956 18.6192 4.27977 18.4983 4.27977 18.375C4.27977 18.2517 4.22961 18.1308 4.14237 18.0436ZM12.4693 12.6562H5.81305C5.5542 12.6562 5.3443 12.8661 5.3443 13.125C5.3443 13.3839 5.5542 13.5938 5.81305 13.5938H12.4693C12.7281 13.5938 12.938 13.3839 12.938 13.125C12.938 12.8661 12.7281 12.6562 12.4693 12.6562ZM23.0159 6.10875C22.5605 5.84583 22.03 5.77598 21.522 5.91206C21.014 6.04819 20.5895 6.37397 20.3266 6.82936L14.4277 17.0464C14.3954 17.1024 14.375 17.1645 14.3678 17.2288L13.9526 20.948C13.9453 21.0135 13.9519 21.0799 13.972 21.1427C13.9921 21.2055 14.0252 21.2633 14.0691 21.3125C14.1131 21.3616 14.1669 21.4009 14.2271 21.4279C14.2873 21.4548 14.3525 21.4688 14.4184 21.4688C14.5185 21.4688 14.6159 21.4368 14.6964 21.3775L17.7097 19.1582C17.7618 19.1199 17.8054 19.0712 17.8377 19.0152L23.7365 8.79816C24.2793 7.85803 23.9561 6.65156 23.0159 6.10875ZM15.0032 19.9872L15.22 18.0451L16.5767 18.8284L15.0032 19.9872ZM17.2602 18.1404L15.474 17.1092L20.2077 8.91028L21.9939 9.94153L17.2602 18.1404ZM22.9246 8.32936L22.4626 9.12966L20.6764 8.09841L21.1385 7.29811C21.2059 7.1806 21.2959 7.07763 21.4034 6.99515C21.5109 6.91268 21.6337 6.85235 21.7646 6.81764C21.8954 6.7822 22.0319 6.77306 22.1662 6.79075C22.3005 6.80843 22.43 6.8526 22.5471 6.92067C22.6646 6.98809 22.7676 7.07814 22.8501 7.18562C22.9326 7.2931 22.9929 7.41587 23.0276 7.54683C23.063 7.67759 23.0722 7.81409 23.0545 7.94841C23.0368 8.08273 22.9927 8.21221 22.9246 8.32936Z" fill="black"/>
</g>
<defs>
<clipPath id="clip0_2139_6026">
<rect width="24" height="24" fill="white"/>
</clipPath>
</defs>
</svg>
