<svg width="30" height="30" viewBox="0 0 30 30" fill="none" xmlns="http://www.w3.org/2000/svg">
<path d="M5.60897 15.2082C5.80931 15.4132 6.04853 15.5762 6.3126 15.6874C6.57667 15.7987 6.86026 15.856 7.14676 15.8561H7.40972V21.0225C7.36599 21.019 7.32446 21.0093 7.2798 21.0093H5.60897V15.2082ZM5.60897 21.8458V22.9337H8.32164V22.6876C8.32164 22.1075 7.85444 21.6353 7.2798 21.6353H5.60897V21.8458ZM10.9291 17.5756V18.8739H13.6424V18.6194C13.6424 18.0437 13.1708 17.5756 12.5915 17.5756H10.9291ZM9.35974 23.559H5.96032C5.77012 23.559 5.60897 23.7204 5.60897 23.9108V27.4215C5.60897 27.6119 5.77012 27.7733 5.96032 27.7733H9.35974C9.55056 27.7733 9.71171 27.6119 9.71171 27.4215V23.9108C9.71049 23.8178 9.673 23.7289 9.60724 23.6632C9.54148 23.5975 9.45265 23.5601 9.35974 23.559ZM11.1927 13.4189H5.60897V13.6822C5.60897 14.5362 6.29885 15.231 7.14676 15.231H10.6168C10.6996 15.231 10.779 15.2639 10.8376 15.3226C10.8962 15.3812 10.9291 15.4608 10.9291 15.5437V16.9502H12.5911C12.6386 16.9502 12.6836 16.9602 12.7301 16.9643V14.9671C12.7304 14.1131 12.0406 13.4189 11.1927 13.4189ZM13.6795 7.34385L12.3794 8.65499C12.3504 8.68415 12.316 8.70731 12.278 8.72313C12.2401 8.73896 12.1994 8.74715 12.1583 8.74723H12.1577C12.1167 8.74729 12.076 8.73923 12.0381 8.72351C12.0002 8.70778 11.9658 8.68471 11.9369 8.65561L10.5999 7.31696C10.5479 7.26412 10.4857 7.22231 10.4172 7.194C10.3487 7.16569 10.2752 7.15146 10.2011 7.15217H3.31386C3.23133 7.1482 3.14887 7.16129 3.07161 7.19061C2.99434 7.21993 2.92394 7.26485 2.86476 7.32259L1.1093 9.08932C1.05609 9.14148 1.01369 9.20366 0.984544 9.27227C0.955399 9.34089 0.940081 9.41459 0.939472 9.48915C0.938863 9.56371 0.952973 9.63766 0.980993 9.70674C1.00901 9.77582 1.05039 9.83868 1.10275 9.8917C1.31261 10.1018 1.69081 10.105 1.90662 9.88858L3.42129 8.38138C3.47973 8.32303 3.55893 8.2903 3.64146 8.29038H5.29698C5.37981 8.29038 5.45925 8.32333 5.51782 8.38197C5.57638 8.44061 5.60929 8.52015 5.60929 8.60308V12.7932H9.52589V8.60308C9.52589 8.59714 9.52901 8.59245 9.52932 8.58651C9.53026 8.55139 9.53723 8.51669 9.54993 8.48394C9.56493 8.44798 9.58679 8.41546 9.61333 8.38763C9.61489 8.38607 9.61521 8.38388 9.61677 8.38232C9.67537 8.32367 9.75471 8.29053 9.83757 8.29007H9.83819C9.84756 8.29007 9.85568 8.29476 9.86474 8.2957C9.89628 8.2982 9.9272 8.30227 9.95687 8.31415C9.99309 8.32916 10.0256 8.35136 10.0537 8.37794C10.0549 8.3795 10.0571 8.37982 10.0587 8.38138L10.059 8.38169L10.0596 8.38232L11.7585 10.0743C11.8654 10.1841 12.0053 10.2429 12.1558 10.2438H12.1586C12.3082 10.2441 12.452 10.1856 12.559 10.0809L14.4862 8.15123C14.593 8.04408 14.6529 7.8989 14.6529 7.74754C14.6529 7.59619 14.593 7.45101 14.4862 7.34385C14.3791 7.23702 14.2341 7.17703 14.0829 7.17703C13.9317 7.17703 13.7866 7.23702 13.6795 7.34385ZM23.5493 15.4317H20.1514C19.9581 15.4317 19.7985 15.5881 19.7985 15.782V27.4205C19.7985 27.6144 19.9581 27.7739 20.1514 27.7739H23.5496C23.7429 27.7739 23.9025 27.6113 23.9025 27.4205V15.782C23.9012 15.6889 23.8635 15.6 23.7975 15.5345C23.7314 15.469 23.6422 15.4321 23.5493 15.4317ZM14.0871 20.6425H10.6877C10.4975 20.6425 10.3363 20.8039 10.3363 20.9943V27.4212C10.3363 27.6116 10.4975 27.7729 10.6877 27.7729H14.0871C14.281 27.7729 14.439 27.615 14.439 27.4212V20.9943C14.439 20.8004 14.281 20.6425 14.0871 20.6425ZM18.8235 17.6819H15.415C15.2214 17.6819 15.0637 17.8401 15.0637 18.0343V27.4215C15.0637 27.6119 15.2248 27.7733 15.415 27.7733H18.8235C19.0143 27.7733 19.1754 27.6119 19.1754 27.4215V18.0343C19.1754 17.8398 19.0174 17.6819 18.8235 17.6819ZM7.58929 5.6678C7.89067 5.6678 8.1886 5.58712 8.45063 5.43453C8.84726 5.20645 9.13728 4.83008 9.25697 4.38807C9.37666 3.94605 9.31624 3.47455 9.08897 3.07711C8.93491 2.81383 8.71483 2.59541 8.45052 2.44348C8.18622 2.29156 7.88687 2.2114 7.58211 2.21094C7.28292 2.21094 6.98748 2.29005 6.72702 2.43921C5.90317 2.91888 5.61991 3.97986 6.09742 4.80319C6.24834 5.06581 6.46568 5.28399 6.72758 5.43577C6.98948 5.58755 7.28669 5.66758 7.58929 5.6678ZM26.0539 7.6456C26.0539 8.98707 24.964 10.0815 23.6211 10.0815C22.2813 10.0815 21.1882 8.98707 21.1882 7.6456C21.1882 6.30414 22.2813 5.2097 23.6211 5.2097C24.964 5.2097 26.0539 6.30414 26.0539 7.6456ZM25.0389 6.67937C24.9171 6.55742 24.7173 6.55742 24.5955 6.67937L23.3369 7.93954L22.6376 7.24535C22.6086 7.21649 22.5741 7.19367 22.5362 7.1782C22.4983 7.16273 22.4577 7.15491 22.4168 7.15521C22.3759 7.1555 22.3354 7.16389 22.2978 7.17989C22.2601 7.1959 22.2259 7.21921 22.1973 7.24848C22.1683 7.27737 22.1452 7.31171 22.1295 7.34955C22.1138 7.38738 22.1057 7.42795 22.1057 7.46893C22.1057 7.50991 22.1138 7.55048 22.1295 7.58831C22.1452 7.62615 22.1683 7.6605 22.1973 7.68938L23.1183 8.60246C23.1807 8.66468 23.2588 8.69314 23.3369 8.69314C23.3781 8.69396 23.419 8.68634 23.4571 8.67075C23.4953 8.65515 23.5298 8.63191 23.5586 8.60246L25.0389 7.1234C25.1607 7.00145 25.1607 6.80132 25.0389 6.67937ZM29.0458 7.01396V8.271L27.9933 8.61809C27.8965 8.64936 27.8216 8.72753 27.7935 8.8276C27.6992 9.15308 27.5682 9.46676 27.4031 9.76256C27.35 9.85637 27.35 9.96894 27.4 10.0627L27.8996 11.0384L27.0127 11.9264L26.0289 11.4258C25.9353 11.3792 25.8228 11.382 25.7323 11.4324C25.4699 11.5856 25.1642 11.7135 24.7988 11.8232C24.7507 11.8372 24.7068 11.8627 24.6708 11.8976C24.6349 11.9325 24.6081 11.9757 24.5927 12.0234L24.246 13.0771H22.9905L22.6533 12.0296C22.6384 11.981 22.6118 11.9367 22.5758 11.9007C22.5399 11.8648 22.4957 11.8382 22.4471 11.8232C22.0817 11.7135 21.7757 11.5856 21.5102 11.4324C21.4197 11.3823 21.3104 11.3792 21.2167 11.4258L20.2298 11.9264L19.3397 11.0384L19.8425 10.0627C19.8674 10.0165 19.8802 9.96473 19.8796 9.91221C19.879 9.8597 19.865 9.8082 19.8391 9.76256C19.6708 9.45893 19.5393 9.14342 19.4521 8.8276C19.4386 8.77843 19.4129 8.73346 19.3774 8.69685C19.3419 8.66023 19.2978 8.63315 19.2491 8.61809L18.1967 8.271V7.01396L19.246 6.67625C19.346 6.64466 19.424 6.56367 19.4521 6.46048C19.5427 6.13872 19.6708 5.82602 19.8391 5.53178C19.8925 5.43797 19.8925 5.3254 19.8456 5.23159L19.3397 4.24972L20.2298 3.35541L21.2167 3.85572C21.3072 3.90263 21.4168 3.89981 21.504 3.85259C21.81 3.68687 22.1255 3.55897 22.4378 3.4711C22.4885 3.4574 22.5349 3.43097 22.5726 3.39431C22.6103 3.35765 22.6381 3.31198 22.6533 3.2616L22.9905 2.21375H24.246L24.5927 3.26754C24.6239 3.3676 24.7048 3.44296 24.805 3.47079C25.1048 3.55209 25.4109 3.6803 25.7419 3.85228C25.8325 3.89919 25.9387 3.90231 26.0293 3.85541L27.013 3.35509L27.9 4.24941L27.4003 5.23127C27.3503 5.32508 27.3534 5.44078 27.4065 5.53146C27.572 5.8254 27.7032 6.13809 27.7907 6.46017C27.8188 6.56336 27.8968 6.64466 27.9999 6.67593L29.0458 7.01396ZM26.6785 7.6456C26.6785 5.95736 25.3075 4.5843 23.6211 4.5843C21.935 4.5843 20.5636 5.95736 20.5636 7.6456C20.5636 9.33417 21.935 10.7069 23.6211 10.7069C25.3075 10.7069 26.6785 9.33417 26.6785 7.6456Z" fill="#123499"/>
</svg>
