<svg width="24" height="24" viewBox="0 0 24 24" fill="none" xmlns="http://www.w3.org/2000/svg">
<g clip-path="url(#clip0_2476_8005)">
<path d="M15.4716 7.63316C13.1375 4.19931 10.0202 2.37426 8.38762 3.4925C8.20786 3.61909 8.05165 3.77619 7.92609 3.95667C7.92609 3.96986 4.14674 11.6182 4.14674 11.6182L2.03685 13.0477C1.71296 13.2675 1.43555 13.5491 1.22048 13.8762C1.00542 14.2033 0.856906 14.5696 0.783431 14.9541C0.709956 15.3386 0.712958 15.7338 0.792266 16.1172C0.871575 16.5005 1.02563 16.8645 1.24565 17.1883L1.34059 17.3281C1.78531 17.9759 2.46749 18.4223 3.23917 18.5704C4.01086 18.7185 4.80983 18.5564 5.46279 18.1193L8.8518 23.1118C9.35026 23.7263 10.3076 24.3382 11.4892 23.6182C11.6985 23.4825 11.877 23.3044 12.0133 23.0954C12.1496 22.8865 12.2406 22.6513 12.2804 22.405C12.3281 22.1601 12.3268 21.9081 12.2766 21.6636C12.2263 21.4192 12.1281 21.1871 11.9876 20.9809L9.00213 16.5765C9.00213 16.5765 16.0597 16.0147 16.0861 16.0041C16.3064 15.958 16.5154 15.8684 16.7006 15.7404C17.5393 15.1707 17.8399 13.976 17.5498 12.3751C17.2887 10.9008 16.5476 9.2314 15.4716 7.63316ZM2.10806 16.8085L2.01312 16.6688C1.86132 16.4453 1.75509 16.1941 1.7005 15.9295C1.64592 15.6649 1.64405 15.3922 1.695 15.1269C1.74596 14.8615 1.84873 14.6089 1.99745 14.3834C2.14617 14.1578 2.33791 13.9638 2.56169 13.8125L4.38411 12.5729L6.78938 16.1149L4.96697 17.3545C4.74344 17.5065 4.49215 17.6129 4.22747 17.6677C3.96278 17.7226 3.68988 17.7247 3.42437 17.674C3.15887 17.6233 2.90596 17.5208 2.68009 17.3723C2.45423 17.2238 2.25985 17.0322 2.10806 16.8085ZM11.2281 21.5004C11.3722 21.7149 11.4254 21.9778 11.3759 22.2314C11.3265 22.4851 11.1785 22.7087 10.9643 22.8534C10.7494 22.9977 10.4861 23.0509 10.2321 23.0015C9.97798 22.952 9.75385 22.804 9.60872 22.5896L6.23026 17.6129L7.5885 16.6899L7.94719 16.6608L11.2281 21.5004ZM7.66235 15.7562L5.04081 11.8951L7.54103 6.79711C7.78367 8.2292 8.49312 9.9303 9.62718 11.5997C10.7613 13.2692 12.0799 14.5562 13.3195 15.3105L7.66235 15.7562ZM15.4426 15.1417C14.1819 15.06 12.13 13.6384 10.392 11.0776C8.654 8.51667 8.0896 6.09294 8.4773 4.88766C8.54731 4.66143 8.68702 4.4631 8.87648 4.32101C9.06594 4.17891 9.29545 4.10032 9.53224 4.09645C10.7824 4.09645 12.9107 5.5259 14.6988 8.16063C15.7063 9.64283 16.4395 11.1936 16.6399 12.5492C17.0329 15.1417 15.4426 15.1417 15.4426 15.1417Z" fill="black"/>
<path d="M12.1752 7.73101C11.8521 7.66757 11.5197 7.66918 11.1972 7.73575C10.8748 7.80232 10.5689 7.93251 10.2974 8.1187C10.2473 8.15334 10.2046 8.19749 10.1716 8.24864C10.1386 8.29979 10.116 8.35694 10.1051 8.41681C10.0942 8.47669 10.0953 8.53813 10.1081 8.59762C10.1209 8.65711 10.1454 8.71349 10.18 8.76354C10.2146 8.81358 10.2588 8.85632 10.31 8.8893C10.3611 8.92229 10.4182 8.94487 10.4781 8.95577C10.538 8.96667 10.5994 8.96566 10.6589 8.95282C10.7184 8.93997 10.7748 8.91553 10.8249 8.8809C10.9968 8.76418 11.1901 8.68248 11.3936 8.64045C11.5971 8.59842 11.807 8.5969 12.0111 8.63596C12.2152 8.67502 12.4097 8.75391 12.5833 8.86811C12.7569 8.98231 12.9064 9.1296 13.0231 9.30156C13.1398 9.47352 13.2215 9.66679 13.2635 9.87032C13.3056 10.0739 13.3071 10.2837 13.268 10.4878C13.229 10.6919 13.1501 10.8864 13.0359 11.06C12.9217 11.2336 12.7744 11.3831 12.6024 11.4998C12.5214 11.5558 12.4603 11.6363 12.4283 11.7294C12.3962 11.8226 12.3948 11.9236 12.4243 12.0176C12.4538 12.1117 12.5126 12.1938 12.5921 12.252C12.6716 12.3102 12.7676 12.3414 12.8662 12.3411C12.9602 12.3429 13.0524 12.3152 13.1299 12.262C13.5401 11.9841 13.8586 11.5907 14.0451 11.1317C14.2315 10.6726 14.2775 10.1686 14.1773 9.68335C14.077 9.19813 13.835 8.75358 13.4819 8.40603C13.1287 8.05847 12.6804 7.82355 12.1936 7.73101H12.1752ZM16.0416 4.42376H16.0864C16.2005 4.42371 16.3106 4.38136 16.3954 4.30489C16.4801 4.22841 16.5335 4.12324 16.5453 4.00969L16.9013 0.549472C16.9094 0.488286 16.9052 0.426096 16.8888 0.366583C16.8725 0.307069 16.8444 0.25144 16.8061 0.202987C16.7679 0.154534 16.7203 0.114241 16.6662 0.084493C16.6122 0.0547446 16.5527 0.0361447 16.4913 0.0297937C16.4299 0.0234428 16.3678 0.0294698 16.3088 0.0475183C16.2498 0.0655667 16.195 0.0952699 16.1477 0.134871C16.1003 0.174471 16.0614 0.223165 16.0332 0.27807C16.005 0.332976 15.9881 0.392978 15.9835 0.454527L15.6301 3.91738C15.6176 4.03908 15.6539 4.16078 15.731 4.25573C15.8082 4.35068 15.9199 4.41112 16.0416 4.42376ZM22.0073 3.71167C21.9395 3.60952 21.8341 3.53832 21.714 3.51362C21.5939 3.48891 21.469 3.5127 21.3664 3.5798L18.1514 5.68969C18.068 5.74481 18.0047 5.82557 17.971 5.91979C17.9374 6.01401 17.9354 6.11661 17.9651 6.21212C17.9949 6.30763 18.0548 6.39089 18.136 6.44935C18.2172 6.50782 18.3152 6.53833 18.4152 6.53629C18.5085 6.53843 18.6003 6.51272 18.6789 6.46244L21.8939 4.35255C21.9936 4.28238 22.0615 4.17558 22.0828 4.0555C22.104 3.93542 22.0769 3.81181 22.0073 3.71167ZM22.991 9.34508L19.2512 8.67255C19.1306 8.65087 19.0062 8.678 18.9056 8.74799C18.8049 8.81797 18.7362 8.92508 18.7145 9.04574C18.6928 9.16639 18.72 9.29073 18.79 9.39138C18.8599 9.49203 18.967 9.56076 19.0877 9.58244L22.8249 10.255H22.9066C23.0242 10.2584 23.1387 10.2168 23.2266 10.1387C23.3146 10.0605 23.3694 9.95176 23.3798 9.83458C23.3903 9.71739 23.3555 9.60065 23.2828 9.5082C23.21 9.41575 23.1047 9.35457 22.9884 9.33716L22.991 9.34508Z" fill="black"/>
</g>
<defs>
<clipPath id="clip0_2476_8005">
<rect width="24" height="24" fill="white"/>
</clipPath>
</defs>
</svg>
