<svg width="30" height="29" viewBox="0 0 30 29" fill="none" xmlns="http://www.w3.org/2000/svg">
<path d="M29.9216 10.8627C29.8254 10.5659 29.6442 10.3039 29.4004 10.1092C29.1566 9.91455 28.8611 9.79577 28.5504 9.76763L19.8902 8.98141L16.4677 0.968572C16.215 0.37987 15.6401 0 15.0001 0C14.3601 0 13.7849 0.37987 13.5339 0.968572L10.1113 8.98141L1.44986 9.76763C0.81487 9.82623 0.277204 10.2563 0.078568 10.8627C-0.0182226 11.1597 -0.0257516 11.4786 0.0569136 11.7799C0.139579 12.0811 0.308806 12.3515 0.543635 12.5576L7.09002 18.2977L5.15985 26.7991C5.01863 27.4242 5.26122 28.0706 5.7799 28.4455C6.05156 28.6431 6.37894 28.7495 6.7149 28.7492C7.00287 28.7493 7.28545 28.6711 7.53247 28.5231L15.0001 24.058L22.4663 28.5231C22.7342 28.6833 23.0432 28.7614 23.355 28.7476C23.6668 28.7338 23.9677 28.6287 24.2203 28.4455C24.7389 28.0706 24.9816 27.4242 24.8404 26.7991L22.9101 18.2978L29.4565 12.5576C29.6914 12.3516 29.8606 12.0812 29.9433 11.7799C30.026 11.4786 30.0184 11.1597 29.9216 10.8627V10.8627Z" fill="#2DACCC"/>
</svg>
