<svg width="24" height="24" viewBox="0 0 24 24" fill="none" xmlns="http://www.w3.org/2000/svg">
<path d="M2.17757 17.7759V17.113C2.17757 16.9193 2.25451 16.7335 2.39148 16.5965C2.52845 16.4596 2.71422 16.3826 2.90793 16.3826H5.37019C5.56435 16.3826 5.72176 16.54 5.72176 16.7342C5.72175 16.9283 5.56434 17.0857 5.37019 17.0857H2.90793C2.90071 17.0857 2.89376 17.0886 2.88866 17.0937C2.88355 17.0988 2.88069 17.1058 2.88069 17.113V17.7759C2.88069 17.7794 2.88138 17.783 2.88275 17.7863C2.88412 17.7896 2.88613 17.7926 2.88866 17.7951C2.89118 17.7977 2.89419 17.7997 2.89749 17.801C2.9008 17.8024 2.90435 17.8031 2.90793 17.8031H5.37019C5.56434 17.8031 5.72175 17.9605 5.72176 18.1547C5.72176 18.3488 5.56435 18.5062 5.37019 18.5062H2.90793C2.81201 18.5062 2.71703 18.4874 2.62842 18.4507C2.53981 18.4139 2.4593 18.3601 2.39148 18.2923C2.32366 18.2245 2.26984 18.144 2.23314 18.0554C2.19644 17.9668 2.17757 17.8718 2.17757 17.7759ZM5.37019 14.4886C5.56434 14.4886 5.72175 14.646 5.72176 14.8401C5.72176 15.0343 5.56435 15.1917 5.37019 15.1917H1.77148C1.57732 15.1917 1.41992 15.0343 1.41992 14.8401C1.41993 14.646 1.57732 14.4886 1.77148 14.4886H5.37019ZM5.37019 12.5945C5.56434 12.5945 5.72175 12.7519 5.72176 12.946C5.72176 13.1402 5.56435 13.2976 5.37019 13.2976H1.77148C1.57732 13.2976 1.41992 13.1402 1.41992 12.946C1.41993 12.7519 1.57733 12.5945 1.77148 12.5945H5.37019ZM5.37019 10.7005C5.56435 10.7005 5.72176 10.8579 5.72176 11.052C5.72175 11.2462 5.56434 11.4036 5.37019 11.4036H1.77148C1.57733 11.4036 1.41993 11.2462 1.41992 11.052C1.41992 10.8579 1.57732 10.7005 1.77148 10.7005H5.37019ZM1.89343 9.25262V8.58974C1.89343 8.49383 1.91235 8.39884 1.94905 8.31023C1.98575 8.22162 2.03957 8.14111 2.10739 8.07329C2.17521 8.00547 2.25572 7.95165 2.34433 7.91495C2.43293 7.87825 2.5279 7.85938 2.62379 7.85938H5.37019C5.56435 7.85939 5.72176 8.01678 5.72176 8.21094C5.72176 8.40509 5.56435 8.56249 5.37019 8.5625H2.62379C2.62023 8.5625 2.6167 8.5632 2.6134 8.56456C2.6101 8.56593 2.60709 8.56794 2.60457 8.57047C2.60204 8.57299 2.60003 8.576 2.59866 8.5793C2.59729 8.5826 2.59656 8.58616 2.59656 8.58974V9.25262C2.59656 9.2562 2.59729 9.25976 2.59866 9.26306C2.60003 9.26636 2.60204 9.26937 2.60457 9.2719C2.6071 9.27442 2.6101 9.27643 2.6134 9.2778C2.6167 9.27916 2.62023 9.27986 2.62379 9.27986H5.37019C5.56434 9.27987 5.72175 9.43727 5.72176 9.63142C5.72176 9.82558 5.56435 9.98297 5.37019 9.98299H2.62379C2.52789 9.98298 2.43293 9.96411 2.34433 9.92741C2.25572 9.89071 2.17521 9.83689 2.10739 9.76907C2.03957 9.70125 1.98576 9.62075 1.94905 9.53214C1.91235 9.44352 1.89343 9.34854 1.89343 9.25262Z" fill="black"/>
<path d="M0 19.5762V8.6042C8.89058e-06 8.41005 0.157405 8.25264 0.351562 8.25264C0.54572 8.25264 0.703116 8.41005 0.703125 8.6042V19.5762C0.703125 19.9047 0.969952 20.1716 1.29845 20.1716H5.37094C5.5651 20.1716 5.7225 20.329 5.7225 20.5231C5.7225 20.7173 5.5651 20.8747 5.37094 20.8747H1.29845C0.581629 20.8747 0 20.2931 0 19.5762ZM14.4895 19.4814C14.4895 19.4741 14.4866 19.4672 14.4815 19.4621C14.4764 19.457 14.4695 19.4542 14.4623 19.4542H9.53769C9.53047 19.4542 9.52357 19.457 9.51846 19.4621C9.51336 19.4672 9.51046 19.4741 9.51045 19.4814V20.1443C9.51045 20.1479 9.51119 20.1514 9.51256 20.1547C9.51393 20.158 9.51594 20.161 9.51846 20.1636C9.52099 20.1661 9.52401 20.1681 9.5273 20.1695C9.53058 20.1708 9.53412 20.1715 9.53769 20.1715H14.4623C14.4658 20.1715 14.4694 20.1708 14.4727 20.1695C14.4759 20.1681 14.479 20.1661 14.4815 20.1636C14.484 20.161 14.486 20.158 14.4874 20.1547C14.4888 20.1514 14.4895 20.1479 14.4895 20.1443V19.4814ZM21.1187 17.7767V17.1138C21.1187 17.1065 21.1158 17.0996 21.1107 17.0945C21.1056 17.0894 21.0987 17.0865 21.0915 17.0865H18.6292C18.435 17.0865 18.2776 16.9291 18.2776 16.735C18.2776 16.5408 18.435 16.3834 18.6292 16.3834H21.0915C21.2852 16.3834 21.4709 16.4603 21.6079 16.5973C21.7449 16.7343 21.8218 16.9201 21.8218 17.1138V17.7767C21.8218 17.9704 21.7449 18.1562 21.6079 18.2931C21.4709 18.4301 21.2852 18.507 21.0915 18.507H18.6292C18.435 18.507 18.2776 18.3496 18.2776 18.1555C18.2776 17.9613 18.435 17.8039 18.6292 17.8039H21.0915C21.0987 17.8039 21.1056 17.801 21.1107 17.7959C21.1158 17.7908 21.1187 17.7839 21.1187 17.7767ZM9.15889 16.8569C9.35305 16.8569 9.51045 17.0143 9.51045 17.2085C9.51045 17.4027 9.35305 17.5601 9.15889 17.5601H7.73836C7.5442 17.5601 7.3868 17.4027 7.3868 17.2085C7.3868 17.0143 7.5442 16.8569 7.73836 16.8569H9.15889ZM16.2616 16.8569C16.4558 16.8569 16.6132 17.0143 16.6132 17.2085C16.6132 17.4027 16.4558 17.5601 16.2616 17.5601H10.5795C10.3853 17.5601 10.2279 17.4027 10.2279 17.2085C10.2279 17.0143 10.3853 16.8569 10.5795 16.8569H16.2616ZM9.15889 14.9629C9.35305 14.9629 9.51045 15.1203 9.51045 15.3144C9.51045 15.5086 9.35305 15.666 9.15889 15.666H7.73836C7.5442 15.666 7.3868 15.5086 7.3868 15.3144C7.3868 15.1203 7.5442 14.9629 7.73836 14.9629H9.15889ZM16.2616 14.9629C16.4558 14.9629 16.6132 15.1203 16.6132 15.3144C16.6132 15.5086 16.4558 15.666 16.2616 15.666H10.5795C10.3853 15.666 10.2279 15.5086 10.2279 15.3144C10.2279 15.1203 10.3853 14.9629 10.5795 14.9629H16.2616ZM22.2279 14.4894C22.4221 14.4894 22.5795 14.6468 22.5795 14.841C22.5795 15.0351 22.4221 15.1925 22.2279 15.1925H18.6292C18.435 15.1925 18.2776 15.0351 18.2776 14.841C18.2776 14.6468 18.435 14.4894 18.6292 14.4894H22.2279ZM9.15889 13.0688C9.35305 13.0688 9.51045 13.2262 9.51045 13.4204C9.51045 13.6145 9.35305 13.7719 9.15889 13.7719H7.73836C7.5442 13.7719 7.3868 13.6145 7.3868 13.4204C7.3868 13.2262 7.5442 13.0688 7.73836 13.0688H9.15889ZM16.2616 13.0688C16.4558 13.0688 16.6132 13.2262 16.6132 13.4204C16.6132 13.6145 16.4558 13.7719 16.2616 13.7719H10.5795C10.3853 13.7719 10.2279 13.6145 10.2279 13.4204C10.2279 13.2262 10.3853 13.0688 10.5795 13.0688H16.2616ZM22.2279 12.5953C22.4221 12.5953 22.5795 12.7527 22.5795 12.9469C22.5795 13.141 22.4221 13.2984 22.2279 13.2984H18.6292C18.435 13.2984 18.2776 13.141 18.2776 12.9469C18.2776 12.7527 18.435 12.5953 18.6292 12.5953H22.2279ZM9.15889 11.1747C9.35305 11.1747 9.51044 11.3321 9.51045 11.5263C9.51045 11.7205 9.35305 11.8779 9.15889 11.8779H7.73836C7.5442 11.8779 7.3868 11.7205 7.3868 11.5263C7.38681 11.3321 7.5442 11.1747 7.73836 11.1747H9.15889ZM16.2616 11.1747C16.4558 11.1747 16.6132 11.3321 16.6132 11.5263C16.6132 11.7205 16.4558 11.8779 16.2616 11.8779H10.5795C10.3853 11.8779 10.2279 11.7205 10.2279 11.5263C10.2279 11.3321 10.3853 11.1747 10.5795 11.1747H16.2616ZM22.2279 10.7013C22.4221 10.7013 22.5795 10.8587 22.5795 11.0528C22.5795 11.247 22.4221 11.4044 22.2279 11.4044H18.6292C18.435 11.4044 18.2776 11.247 18.2776 11.0528C18.2776 10.8587 18.435 10.7013 18.6292 10.7013H22.2279ZM16.8571 8.59056C16.8571 8.58335 16.8542 8.57644 16.8491 8.57133C16.844 8.56623 16.837 8.56333 16.8298 8.56332H7.17014C7.16291 8.56333 7.15597 8.56623 7.15086 8.57133C7.14577 8.57644 7.1429 8.58335 7.1429 8.59056V9.25349C7.1429 9.2607 7.14577 9.26762 7.15086 9.27272C7.15597 9.27783 7.16291 9.28073 7.17014 9.28073H16.8298C16.837 9.28073 16.844 9.27783 16.8491 9.27272C16.8542 9.26762 16.8571 9.2607 16.8571 9.25349V8.59056ZM21.4028 9.25345V8.59052C21.4028 8.5833 21.3999 8.57639 21.3948 8.57129C21.3897 8.56618 21.3828 8.56328 21.3755 8.56328H18.6292C18.435 8.56327 18.2776 8.40588 18.2776 8.21172C18.2776 8.01756 18.435 7.86016 18.6292 7.86015H21.3755C21.5692 7.86015 21.755 7.93711 21.892 8.07407C22.029 8.21103 22.1059 8.39682 22.1059 8.59052V9.25345C22.1059 9.44715 22.029 9.63293 21.892 9.7699C21.755 9.90686 21.5692 9.98381 21.3755 9.98381H18.6292C18.435 9.98381 18.2776 9.8264 18.2776 9.63225C18.2776 9.43809 18.435 9.28069 18.6292 9.28069H21.3755C21.3828 9.28069 21.3897 9.27778 21.3948 9.27267C21.3999 9.26757 21.4028 9.26066 21.4028 9.25345ZM0 6.96358V4.42345C0 3.70663 0.581628 3.125 1.29845 3.125H5.37094C5.5651 3.125 5.7225 3.2824 5.7225 3.47656C5.7225 3.67072 5.5651 3.82812 5.37094 3.82812H1.29845C0.969953 3.82812 0.703125 4.09495 0.703125 4.42345V6.96358C0.703125 7.15774 0.545725 7.31514 0.351562 7.31514C0.1574 7.31514 0 7.15774 0 6.96358ZM12 3.12505C12.1129 3.12505 12.2189 3.17928 12.285 3.2708L12.9409 4.179L14.2291 3.62694C14.3472 3.57632 14.4835 3.5942 14.5846 3.67354C14.6857 3.7529 14.7355 3.88112 14.7144 4.00789L14.3091 6.43962H14.3676C14.5617 6.43962 14.7191 6.59702 14.7191 6.79118C14.7191 6.98535 14.5617 7.14275 14.3676 7.14275H9.63245C9.43828 7.14275 9.28088 6.98535 9.28088 6.79118C9.28089 6.59702 9.43828 6.43962 9.63245 6.43962H9.69095L9.28564 4.00789C9.26452 3.88112 9.31428 3.7529 9.41537 3.67354C9.51646 3.5942 9.6528 3.57632 9.77092 3.62694L11.059 4.179L11.715 3.2708L11.7279 3.25404C11.7944 3.17269 11.8942 3.12505 12 3.12505ZM11.4643 4.81886C11.368 4.95224 11.192 5.001 11.0408 4.93619L10.0849 4.52649L10.4038 6.43962H13.5962L13.9151 4.52649L12.9592 4.93619C12.808 5.001 12.632 4.95224 12.5357 4.81886L12 4.07706L11.4643 4.81886ZM15.1926 20.1443C15.1926 20.2402 15.1737 20.3352 15.137 20.4238C15.1003 20.5124 15.0465 20.5929 14.9787 20.6607C14.9109 20.7286 14.8303 20.7823 14.7417 20.819C14.6531 20.8557 14.5582 20.8746 14.4623 20.8746H9.53773V20.8746C9.44184 20.8746 9.34688 20.8558 9.25827 20.8191C9.16964 20.7824 9.08911 20.7286 9.02129 20.6607C8.95346 20.5929 8.89965 20.5124 8.86295 20.4238C8.82624 20.3352 8.80733 20.2402 8.80733 20.1443V19.4814C8.80733 19.2877 8.88429 19.1019 9.02124 18.965C9.15821 18.828 9.34399 18.751 9.53769 18.751H14.4623C14.656 18.751 14.8418 18.828 14.9787 18.965C15.1157 19.1019 15.1926 19.2877 15.1926 19.4814V20.1443ZM17.5602 9.25349C17.5602 9.4472 17.4832 9.63298 17.3463 9.76994C17.2093 9.90691 17.0235 9.98385 16.8298 9.98386H7.17014C6.97644 9.98385 6.79065 9.90691 6.65369 9.76994C6.51672 9.63298 6.43978 9.44719 6.43977 9.25349V8.59056C6.43978 8.39687 6.51673 8.21112 6.65369 8.07416C6.79065 7.93719 6.97643 7.8602 7.17014 7.8602H16.8298C17.0235 7.8602 17.2093 7.93719 17.3463 8.07416C17.4832 8.21112 17.5602 8.39687 17.5602 8.59056V9.25349Z" fill="black"/>
<path d="M23.297 15.6891V4.42314C23.297 4.09465 23.0302 3.82782 22.7017 3.82782H18.9808V20.1713H22.7017C23.0302 20.1713 23.297 19.9044 23.297 19.5759V17.3297C23.297 17.1355 23.4544 16.9781 23.6486 16.9781C23.8428 16.9781 24.0002 17.1355 24.0002 17.3297V19.5759C24.0001 20.2928 23.4185 20.8744 22.7017 20.8744H18.9808V21.4697C18.9808 22.1867 18.3998 22.7686 17.6823 22.7686H6.31798C5.60046 22.7686 5.01953 22.1867 5.01953 21.4697V2.52937C5.01953 1.81231 5.60046 1.23047 6.31798 1.23047H7.77811C7.97227 1.23047 8.12967 1.38787 8.12967 1.58203C8.12967 1.77619 7.97227 1.93359 7.77811 1.93359H6.31798C5.98924 1.93359 5.72266 2.20018 5.72266 2.52937V21.4697C5.72266 21.7989 5.98924 22.0655 6.31798 22.0655H17.6823C18.0111 22.0655 18.2776 21.7989 18.2776 21.4697V2.52937C18.2776 2.20019 18.0111 1.93359 17.6823 1.93359H9.41873C9.22458 1.93358 9.06717 1.77619 9.06717 1.58203C9.06717 1.38787 9.22458 1.23048 9.41873 1.23047H17.6823C18.3998 1.23047 18.9808 1.81231 18.9808 2.52937V3.12469H22.7017C23.4185 3.12469 24.0002 3.70632 24.0002 4.42314V15.6891C24.0001 15.8832 23.8427 16.0406 23.6486 16.0406C23.4544 16.0406 23.297 15.8832 23.297 15.6891Z" fill="black"/>
</svg>
