<svg width="10" height="10" viewBox="0 0 10 10" fill="none" xmlns="http://www.w3.org/2000/svg">
<g clip-path="url(#clip0_2456_5265)">
<path d="M5 0C2.8878 0 0 1.59646 0 5C0 8.31693 2.77756 10 5 10C8.81299 10 10 6.65945 10 5C10 2.55118 8.12598 0 5 0ZM3.84055 0.470472C3.3189 0.915354 2.88583 1.65157 2.6063 2.56496C2.24409 2.35039 1.91142 2.08465 1.61614 1.77559C2.22638 1.13583 2.99803 0.687008 3.84055 0.470472ZM1.40157 2.01575C1.73228 2.36024 2.10827 2.65354 2.51772 2.88583C2.36417 3.48228 2.27362 4.1437 2.26181 4.83858H0.326772C0.362205 3.80118 0.740157 2.81102 1.40157 2.01575ZM1.40157 7.98425C0.738189 7.18898 0.362205 6.19882 0.326772 5.16142H2.26181C2.27362 5.85827 2.36417 6.51772 2.51772 7.11417C2.11024 7.34842 1.73425 7.63976 1.40157 7.98425ZM1.61614 8.22638C1.91142 7.91732 2.24409 7.65157 2.6063 7.43701C2.88583 8.34842 3.3189 9.08661 3.84055 9.5315C2.99803 9.31299 2.22638 8.86417 1.61614 8.22638ZM4.83858 9.66535C4 9.55906 3.27756 8.62205 2.8878 7.27953C3.49016 6.97441 4.15551 6.80315 4.83858 6.77756V9.66535ZM4.83858 6.45669C4.12598 6.48031 3.43307 6.65551 2.80512 6.9626C2.67323 6.41142 2.59449 5.80315 2.58268 5.16142H4.83858V6.45669ZM4.83858 4.83858H2.58268C2.59449 4.19685 2.67323 3.58858 2.80512 3.0374C3.43504 3.34449 4.12795 3.51969 4.83858 3.54331V4.83858ZM4.83858 3.22244C4.15354 3.19882 3.49016 3.02559 2.8878 2.72047C3.27756 1.37598 4 0.440945 4.83858 0.334646V3.22244ZM8.59842 2.01575C9.25984 2.81102 9.6378 3.80118 9.67323 4.83858H7.74016C7.72835 4.14173 7.6378 3.48228 7.48425 2.88583C7.89173 2.65157 8.26772 2.36024 8.59842 2.01575ZM8.38386 1.77362C8.08858 2.08268 7.75591 2.34843 7.3937 2.56299C7.11417 1.65157 6.6811 0.915354 6.15945 0.468504C7.00197 0.687008 7.77362 1.13583 8.38386 1.77362ZM5.16142 0.334646C6 0.440945 6.72244 1.37795 7.1122 2.72047C6.50984 3.02559 5.84646 3.19685 5.16142 3.22244V0.334646ZM5.16142 3.54331C5.87402 3.51969 6.56693 3.34449 7.19488 3.0374C7.32677 3.58858 7.40551 4.19685 7.41732 4.83858H5.16142V3.54331ZM5.16142 5.16142H7.41732C7.40551 5.80315 7.32677 6.41142 7.19488 6.9626C6.56098 6.65066 5.86759 6.47815 5.16142 6.45669V5.16142ZM5.16142 9.66535V6.77756C5.84646 6.80118 6.50984 6.97441 7.1122 7.27953C6.72244 8.62402 6 9.55906 5.16142 9.66535ZM6.15945 9.52953C6.6811 9.08465 7.11417 8.34843 7.3937 7.43504C7.75591 7.64961 8.08858 7.91535 8.38386 8.22441C7.77362 8.86417 7.00197 9.31299 6.15945 9.52953ZM8.59842 7.98425C8.26772 7.63976 7.89173 7.34842 7.48425 7.11417C7.6378 6.51772 7.72835 5.8563 7.74016 5.16142H9.67323C9.6378 6.19882 9.25984 7.18898 8.59842 7.98425Z" fill="black"/>
</g>
<defs>
<clipPath id="clip0_2456_5265">
<rect width="10" height="10" fill="white"/>
</clipPath>
</defs>
</svg>
