<svg width="36" height="32" viewBox="0 0 36 32" fill="none" xmlns="http://www.w3.org/2000/svg">
<g clip-path="url(#clip0_2126_2473)">
<path d="M25.2888 18.8163C25.2252 18.8795 25.1473 18.93 25.0601 18.9646C24.973 18.9993 24.8786 19.0171 24.7832 19.0172H22.0684V22.0336C22.0684 22.1937 21.9969 22.3471 21.8696 22.4602C21.7423 22.5734 21.5697 22.6369 21.3896 22.6369H14.6025C14.4225 22.6369 14.2499 22.5734 14.1226 22.4602C13.9953 22.3471 13.9238 22.1937 13.9238 22.0336V19.0172H11.209C11.1135 19.0171 11.0192 18.9993 10.9321 18.9646C10.8449 18.93 10.767 18.8795 10.7033 18.8163L-1.00781 7.18164V29.8765C-1.00781 30.0365 -0.936306 30.19 -0.809023 30.3031C-0.68174 30.4163 -0.509107 30.4798 -0.329102 30.4798H36.3213C36.5013 30.4798 36.6739 30.4163 36.8012 30.3031C36.9285 30.19 37 30.0365 37 29.8765V7.18164L25.2888 18.8163Z" fill="white"/>
<path d="M24.4801 17.8105L36.0182 6.34787H-0.0253906L11.5127 17.8105H24.4801ZM15.2816 19.0171H20.7113V21.4303H15.2816V19.0171ZM8.49447 4.53798C8.49447 4.05796 8.70899 3.59761 9.09084 3.25819C9.47269 2.91877 9.99058 2.72808 10.5306 2.72808H25.4622C26.0023 2.72808 26.5202 2.91877 26.902 3.25819C27.2839 3.59761 27.4984 4.05796 27.4984 4.53798V5.14128H28.8558V4.53798C28.8547 3.73825 28.4968 2.97155 27.8607 2.40605C27.2245 1.84056 26.3619 1.52244 25.4622 1.52148H10.5306C9.6309 1.52244 8.76837 1.84056 8.13218 2.40605C7.496 2.97155 7.13812 3.73825 7.13705 4.53798V5.14128H8.49447V4.53798Z" fill="white"/>
</g>
<defs>
<clipPath id="clip0_2126_2473">
<rect width="36" height="32" fill="white" transform="translate(-0.00390625)"/>
</clipPath>
</defs>
</svg>
