<svg width="35" height="30" viewBox="0 0 35 30" fill="none" xmlns="http://www.w3.org/2000/svg">
<path d="M2.31445 27.01V15.7309C2.31445 15.1804 2.76068 14.7342 3.31113 14.7342C3.86158 14.7342 4.30781 15.1804 4.30781 15.7309V27.01C4.30781 27.5558 4.75873 28.0066 5.30449 28.0066H30.6865C31.2322 28.0066 31.6832 27.5557 31.6832 27.01V15.6645C31.6832 15.114 32.1294 14.6678 32.6799 14.6678C33.2304 14.6678 33.6766 15.114 33.6766 15.6645V27.01C33.6766 28.6566 32.3331 30 30.6865 30H5.30449C3.65795 30 2.31445 28.6568 2.31445 27.01ZM24.7065 6.09635V3.13765C24.7065 2.51056 24.1893 1.99337 23.5622 1.99336H12.4289C11.8018 1.99337 11.2846 2.51058 11.2846 3.13765V6.09635C11.2846 6.6468 10.8383 7.09302 10.2879 7.09302C9.73742 7.09302 9.2912 6.6468 9.2912 6.09635V3.13765C9.29121 1.40968 10.7009 1.15795e-05 12.4289 0H23.5622C25.2902 1.10291e-05 26.6998 1.4097 26.6998 3.13765V6.09635C26.6998 6.6468 26.2536 7.09302 25.7032 7.09302C25.1527 7.09302 24.7065 6.6468 24.7065 6.09635Z" fill="white"/>
<path d="M33.0129 12.9887V8.27128C33.0129 7.7239 32.5636 7.27461 32.0162 7.27461H3.97636C3.42889 7.27461 2.97968 7.72384 2.97968 8.27128V12.9887C2.97969 14.1295 3.99022 15.302 6.40174 16.2871C8.72185 17.2349 11.9402 17.8262 15.3954 18.0237C15.9449 18.0552 16.365 18.5261 16.3335 19.0757C16.3021 19.6252 15.8311 20.0453 15.2816 20.0138C11.7076 19.8095 8.24821 19.1947 5.64787 18.1325C3.13896 17.1076 0.986331 15.466 0.986328 12.9887V8.27128C0.986328 6.62298 2.32795 5.28125 3.97636 5.28125H32.0162C33.6646 5.28125 35.0063 6.62305 35.0063 8.27128V12.9887C35.0063 15.4812 32.8277 17.1277 30.295 18.1525C27.6683 19.2154 24.1759 19.826 20.5752 20.0214C20.0256 20.0512 19.5559 19.6298 19.526 19.0802C19.4962 18.5305 19.9176 18.0608 20.4672 18.0309C23.9486 17.8421 27.2005 17.2544 29.5474 16.3047C31.9883 15.3171 33.0129 14.137 33.0129 12.9887Z" fill="white"/>
<path d="M19.458 18.0324H16.5344V19.3281C16.5344 20.0384 17.1197 20.6238 17.8301 20.6238H18.1623C18.8726 20.6238 19.458 20.0384 19.458 19.3281V18.0324ZM21.4513 19.3281C21.4513 21.1393 19.9735 22.6171 18.1623 22.6171H17.8301C16.0188 22.6171 14.541 21.1393 14.541 19.3281V17.0357C14.541 16.4853 14.9872 16.0391 15.5377 16.0391H20.4546C21.0051 16.0391 21.4513 16.4853 21.4513 17.0357V19.3281Z" fill="white"/>
</svg>
